<svg width="552" height="278" viewBox="0 0 552 278" fill="none" xmlns="http://www.w3.org/2000/svg">
<g clip-path="url(#clip0_490_953)">
<path d="M239.151 110.965C239.151 110.965 233.851 74.2288 212.187 52.7215C190.52 31.2115 169.612 26.3225 169.008 34.7002C168.404 43.078 202.675 55.5272 216.559 74.0521C230.443 92.577 239.151 110.965 239.151 110.965Z" fill="#EAEBED"/>
<path d="M234.692 121.167C234.692 121.167 228.525 94.8053 211.422 80.5497C194.319 66.2941 178.816 64.0685 178.906 70.1942C178.995 76.3226 204.687 83.192 215.947 95.7757C227.206 108.359 234.692 121.167 234.692 121.167Z" fill="#EAEBED"/>
<path d="M51.5507 91.604C54.6512 69.3029 91.7552 71.4389 91.7552 71.4389C91.7552 71.4389 121.129 106.044 128.405 106.034C135.68 106.023 109.047 71.5259 109.047 71.5259C122.753 68.4169 160.264 80.9953 160.264 80.9953C160.264 80.9953 163.575 125.3 170.625 123.493C177.672 121.684 165.698 84.4129 165.698 84.4129C179.634 86.7519 194.149 100.881 194.149 100.881C213.041 124.495 181.852 147.624 181.852 147.624C181.852 147.624 183.329 162.953 194.937 179.279C194.937 179.279 197.465 182.243 200.316 187.467L196.656 187.931C196.233 186.984 195.784 186.074 195.303 185.204C195.303 185.196 195.3 185.194 195.295 185.188C195.287 185.175 195.282 185.165 195.274 185.151C194.951 184.616 194.488 183.854 193.915 182.926C193.915 182.926 193.915 182.926 193.915 182.923C193.915 182.923 193.913 182.923 193.913 182.918C192.517 180.864 191.558 179.337 190.93 178.224C190.93 178.221 190.928 178.216 190.925 178.213C186.705 171.742 180.743 163.367 177.285 161.893C177.285 161.893 177.619 161.271 177.856 160.108C177.674 160.677 177.482 161.271 177.285 161.893C172.719 176.165 141.671 182.388 123.762 181.011C105.852 179.635 112.839 173.728 121.226 164.514C129.613 155.301 149.575 154.916 154.996 151.031C160.419 147.147 151.517 145.082 139.992 147.461C128.468 149.837 124.122 162.254 105.55 166.439C86.9783 170.624 68.1806 136.955 68.1806 136.955C81.6706 139.349 104.039 129.208 104.368 124.601C104.696 119.994 70.2879 124.82 64.749 124.155C59.2074 123.491 48.4501 113.902 51.5507 91.6013V91.604Z" fill="#EAEBED"/>
<path d="M196.162 266.442C196.162 266.442 195.996 270.854 197.436 277.481L139.847 277.544C141.224 276.326 142.874 275.002 144.598 273.557C152.491 266.935 168.898 268.836 173.772 266.255C178.644 263.673 171.578 260.994 161.867 261.661C152.158 262.326 147.223 272.025 131.536 273.391C115.85 274.757 104.154 245.067 104.154 245.067C114.951 248.529 134.406 242.699 135.184 238.959C135.961 235.22 107.221 235.352 102.751 234.192C98.2845 233.031 90.52 223.976 95.5203 206.039C100.523 188.102 130.704 193.975 130.704 193.975C130.704 193.975 150.967 225.608 156.935 226.407C162.897 227.209 144.871 195.966 144.871 195.966C156.451 194.94 185.817 209.42 185.817 209.42C185.817 209.42 183.644 246.108 189.622 245.412C195.599 244.713 189.895 212.827 189.895 212.827C201.062 216.292 211.404 229.487 211.404 229.487C224.287 250.944 196.164 266.442 196.164 266.442H196.162Z" fill="#EAEBED"/>
<path d="M484.695 217.655C479.382 219.678 444.188 223.385 445.638 227.86C447.091 232.333 471.686 236.847 484.435 231.156C484.435 231.156 474.087 269.068 454.706 269.512C435.322 269.952 427.989 258.747 416.015 259.238C404.039 259.726 395.746 263.963 402.057 266.466C408.369 268.968 428.197 264.433 438.741 271.471C440.289 272.504 441.792 273.475 443.168 274.395C443.999 274.952 444.784 275.49 445.512 276.012H375.004C375.006 275.439 375.001 274.899 374.988 274.395C374.925 271.418 374.673 269.712 374.673 269.712C374.673 269.712 338.181 254.533 351.08 226.534C351.08 226.534 361.971 208.99 375.177 203.244C375.177 203.244 372.458 243.039 379.867 243.089C387.28 243.142 379.712 198.526 379.712 198.526C379.712 198.526 413.716 176.847 428.026 176.544C428.026 176.544 410.137 217.209 417.334 215.429C424.526 213.647 445.1 172.198 445.1 172.198C445.1 172.198 481.255 160.946 489.776 182.227C498.298 203.51 490.008 215.638 484.692 217.66L484.695 217.655Z" fill="#EAEBED"/>
<path d="M457.415 12.3912C452.874 -4.48025 424.507 0.775279 424.507 0.775279C424.507 0.775279 405.231 30.2806 399.626 30.9821C394.025 31.6809 411.198 2.52624 411.198 2.52624C400.344 1.46617 372.675 14.8015 372.675 14.8015C372.675 14.8015 374.404 49.2406 368.802 48.5339C363.2 47.8272 368.821 17.9606 368.821 17.9606C358.313 21.1171 348.502 33.4107 348.502 33.4107C336.234 53.4334 362.486 68.2085 362.486 68.2085C362.486 68.2085 362.827 80.1568 355.467 93.8559C355.467 93.8559 353.807 96.3848 352.117 100.686H354.981C355.215 99.9158 355.473 99.1721 355.759 98.4575C355.759 98.4522 355.759 98.4496 355.764 98.4443C355.77 98.4338 355.772 98.4232 355.777 98.4127C355.975 97.9697 356.256 97.3368 356.608 96.5668C356.608 96.5668 356.608 96.5668 356.608 96.5641C356.608 96.5641 356.608 96.5641 356.608 96.5615C357.483 94.8422 358.077 93.5738 358.45 92.6561C358.45 92.6535 358.45 92.6508 358.452 92.6482C361.077 87.2529 364.858 80.2253 367.378 78.7539C367.378 78.7539 367.06 78.3056 366.766 77.4354C366.96 77.8547 367.165 78.295 367.378 78.7539C372.273 89.2992 396.783 91.0713 410.442 88.2682C424.1 85.465 418.148 81.5965 410.799 75.3179C403.45 69.0392 388.042 70.6847 383.491 68.2217C378.94 65.7588 385.595 63.3037 394.697 64.0131C403.802 64.7224 408.347 73.8596 423.051 75.2757C437.758 76.6917 448.978 48.9374 448.978 48.9374C438.822 52.0939 420.618 46.4586 419.919 42.9461C419.22 39.431 446.182 39.8002 450.386 38.748C454.587 37.6959 461.947 29.268 457.404 12.3965L457.415 12.3912Z" fill="#EAEBED"/>
<path d="M492.354 144.347C492.354 144.347 495.245 131.175 500.503 132.483C505.76 133.793 492.354 144.347 492.354 144.347Z" fill="#D8C1B5"/>
<path d="M504.071 139.908C506.706 143.848 492.354 144.354 492.354 144.354C492.354 144.354 501.435 135.969 504.071 139.908Z" fill="#D8C1B5"/>
<path d="M236.589 55.0341C236.589 55.0341 219.055 45.6833 222.999 38.6926C226.94 31.7019 236.589 55.0341 236.589 55.0341Z" fill="#D8C1B5"/>
<path d="M234.941 36.5435C241.57 34.3416 236.602 55.0367 236.602 55.0367C236.602 55.0367 228.312 38.7427 234.941 36.5435Z" fill="#D8C1B5"/>
<path d="M37.4895 136.777C37.4895 136.777 28.9919 152.248 22.8696 148.646C16.7474 145.044 37.4895 136.777 37.4895 136.777Z" fill="#D8C1B5"/>
<path d="M21.1327 137.995C19.2776 132.067 37.4919 136.769 37.4919 136.769C37.4919 136.769 22.9877 143.923 21.1327 137.995Z" fill="#D8C1B5"/>
<path d="M481.755 40.797C480.633 41.7278 475.901 42.7589 475.635 42.4372C475.37 42.1154 477.272 37.6457 478.397 36.7149C479.519 35.784 481.182 35.9422 482.11 37.0682C483.037 38.1942 482.88 39.8635 481.758 40.7943L481.755 40.797Z" fill="#6C5950"/>
<path d="M475.519 35.9396C476.197 37.2344 476.229 42.0944 475.861 42.2869C475.493 42.4794 471.528 39.6921 470.85 38.3999C470.172 37.1052 470.669 35.5071 471.959 34.8268C473.249 34.1465 474.841 34.6475 475.519 35.9396Z" fill="#6C5950"/>
<path d="M469.597 40.1588C471.045 40.0006 475.564 41.7463 475.609 42.1603C475.653 42.5743 471.617 45.2587 470.17 45.4196C468.722 45.5778 467.421 44.5283 467.261 43.0779C467.103 41.625 468.149 40.3196 469.594 40.1588H469.597Z" fill="#6C5950"/>
<path d="M471.768 46.9385C472.133 45.5251 475.362 41.9018 475.764 42.0073C476.166 42.1128 477.238 46.8515 476.873 48.2649C476.508 49.6783 475.068 50.5301 473.659 50.1635C472.248 49.797 471.402 48.3519 471.768 46.9385Z" fill="#6C5950"/>
<path d="M478.909 47.7586C477.742 46.8858 475.619 42.5163 475.869 42.1814C476.118 41.8465 480.895 42.6402 482.062 43.5157C483.229 44.3886 483.47 46.0472 482.601 47.218C481.731 48.3889 480.078 48.6315 478.912 47.7586H478.909Z" fill="#6C5950"/>
<path d="M476.736 42.1814C476.736 41.7014 476.347 41.3112 475.866 41.3112C475.388 41.3112 474.999 41.7014 474.999 42.184C474.999 42.6639 475.388 43.0542 475.869 43.0542C476.35 43.0542 476.736 42.6639 476.736 42.1814Z" fill="#BEC2C7"/>
<path d="M360.949 181.555C360.949 129.73 319.086 87.717 267.447 87.717C215.807 87.717 173.944 129.73 173.944 181.555C173.944 202.98 197.022 255.063 204.23 270.809C205.509 273.604 208.292 275.392 211.356 275.392H324.315C327.368 275.392 330.143 273.617 331.428 270.838C338.538 255.464 360.949 205.137 360.949 181.555Z" fill="#BEC2C7"/>
<path d="M352.181 181.554C352.181 202.772 334.926 241.277 326.746 257.097C323.859 262.684 307.859 260.852 305.114 260.852L228.231 259.939C225.474 259.939 212.323 264.377 211.172 261.862C204.688 247.693 183.922 200.831 183.922 181.554C183.922 166.075 188.073 151.564 195.323 139.088C195.323 139.088 222.418 135.317 251.598 139.088C280.777 142.859 320.603 132.807 342.407 142.018C348.647 153.813 352.181 167.27 352.181 181.554Z" fill="#58616E"/>
<path d="M240.354 70.3946H294.742C296.195 70.3946 297.372 71.5786 297.372 73.0342V90.0613C297.372 91.5196 296.192 92.7009 294.742 92.7009H240.354C238.901 92.7009 237.724 91.5169 237.724 90.0613V73.0342C237.724 71.576 238.903 70.3946 240.354 70.3946Z" fill="#53443D"/>
<path d="M297.372 73.0342V90.0613C297.372 91.5196 296.195 92.7009 294.742 92.7009H245.914C244.463 92.7009 243.286 91.5196 243.286 90.0613V73.0342C243.286 71.576 244.463 70.3946 245.914 70.3946H294.742C296.195 70.3946 297.372 71.576 297.372 73.0342Z" fill="#6C5950"/>
<path d="M274.58 21.3676C274.58 24.466 272.591 27.0951 269.825 28.0444C269.811 28.0497 269.798 28.055 269.785 28.0576C269.084 28.3002 268.327 28.4268 267.544 28.4268C263.66 28.4268 260.51 25.2677 260.51 21.3702C260.51 18.5697 262.134 16.1516 264.488 15.0124C265.413 14.5615 266.451 14.311 267.546 14.311C268.379 14.311 269.176 14.456 269.916 14.7223C272.636 15.7007 274.58 18.306 274.58 21.3728V21.3676Z" fill="#53443D"/>
<path d="M274.581 21.3676C274.581 24.4661 272.592 27.0951 269.825 28.0445C269.812 28.0497 269.799 28.055 269.785 28.0576C266.141 26.9475 263.477 23.435 263.477 19.2765C263.477 17.7338 263.842 16.2835 264.488 15.0098C265.413 14.5589 266.451 14.3083 267.547 14.3083C268.38 14.3083 269.176 14.4534 269.917 14.7197C272.636 15.698 274.581 18.3034 274.581 21.3702V21.3676Z" fill="#6C5950"/>
<path d="M280.95 70.3946H254.141C252.659 70.3946 251.461 69.1051 251.608 67.5836C251.671 66.9243 251.997 66.3468 252.467 65.9381C252.938 65.5293 253.56 65.2841 254.222 65.2841C258.059 65.2841 261.167 62.1645 261.167 58.3145V50.509H273.927V58.3145C273.927 62.1645 277.035 65.2841 280.871 65.2841C282.127 65.2841 283.254 66.1596 283.459 67.4042C283.727 68.997 282.492 70.3946 280.95 70.3946Z" fill="#53443D"/>
<path d="M280.95 70.3946H259.414C262.013 68.2085 263.697 64.704 263.697 60.7537V50.509H273.926V58.3145C273.926 62.1645 277.035 65.2841 280.871 65.2841C282.127 65.2841 283.254 66.1596 283.459 67.4042C283.727 68.997 282.492 70.3946 280.95 70.3946Z" fill="#6C5950"/>
<path d="M359.762 72.4066L317.127 47.073C313.451 44.8896 309.249 43.7346 304.979 43.7346H267.547V39.0565H304.979C310.085 39.0565 315.109 40.4357 319.502 43.049L362.137 68.3826L359.762 72.4093V72.4066Z" fill="#BEC2C7"/>
<path d="M344.753 67.0509C343.763 66.4101 343.476 65.0731 344.115 64.079L347.481 58.8472C348.119 57.853 349.451 57.5656 350.442 58.2064C351.432 58.8472 351.719 60.1841 351.08 61.1783L347.714 66.4101C347.076 67.4042 345.744 67.6917 344.753 67.0509Z" fill="#53443D"/>
<path d="M281.042 41.3956C281.042 47.9564 276.396 53.4255 270.227 54.6728C269.36 54.8495 268.464 54.9418 267.544 54.9418C260.09 54.9418 254.049 48.8794 254.049 41.3982C254.049 33.917 260.09 27.8546 267.544 27.8546C268.461 27.8546 269.36 27.9469 270.227 28.1236C276.396 29.3709 281.042 34.84 281.042 41.4008V41.3956Z" fill="#53443D"/>
<path d="M281.042 41.3956C281.042 47.9564 276.397 53.4255 270.227 54.6728C264.058 53.4255 259.412 47.9564 259.412 41.3956C259.412 34.8347 264.058 29.3656 270.227 28.1183C276.397 29.3656 281.042 34.8347 281.042 41.3956Z" fill="#6C5950"/>
<path d="M263.698 58.1009C263.698 58.1009 263.682 54.9814 268.59 54.9418L262.741 53.3412L263.698 58.1036V58.1009Z" fill="#53443D"/>
<path d="M436.116 125.513C422.616 144.85 396.049 149.541 376.781 135.99C372.605 133.058 369.121 129.506 366.354 125.55L366.304 125.481C366.247 125.394 366.189 125.307 366.131 125.22L349.519 100.53C342.877 92.6113 340.72 81.7891 343.741 71.9636C344.651 69.0075 346.027 66.1411 347.893 63.4725C355.82 52.115 370.078 47.8641 382.527 52.1387L382.532 52.1308L409.397 59.0186C411.039 59.3377 412.668 59.7464 414.279 60.2685L414.302 60.2765C418.257 61.5607 422.09 63.4435 425.672 65.9618C436.424 73.5247 442.633 85.1723 443.671 97.35C444.496 106.991 442.078 116.964 436.111 125.51L436.116 125.513Z" fill="#53443D"/>
<path d="M443.676 97.3526C443.361 97.9934 443.029 98.6131 442.693 99.2301L442.688 99.238C441.826 100.786 440.88 102.265 439.853 103.666C439.611 103.995 439.367 104.32 439.117 104.644C437.404 106.854 435.494 108.868 433.418 110.664C433.176 110.875 432.929 111.086 432.682 111.289C430.887 112.776 428.985 114.108 426.985 115.274C426.744 115.419 426.497 115.558 426.25 115.696C425.511 116.112 424.763 116.5 424.003 116.869C423.325 117.196 422.639 117.507 421.946 117.797C421.454 118 420.963 118.198 420.466 118.383C420.222 118.475 419.978 118.567 419.731 118.654C417.873 119.316 415.968 119.849 414.034 120.247C413.79 120.3 413.543 120.345 413.298 120.389C412.347 120.569 411.386 120.716 410.421 120.83C410.019 120.877 409.62 120.919 409.215 120.954C408.679 121.004 408.146 121.041 407.607 121.064C407.363 121.08 407.116 121.088 406.871 121.093C404.982 121.157 403.08 121.093 401.175 120.893C401.072 120.883 400.97 120.875 400.867 120.861C400.725 120.846 400.584 120.83 400.439 120.811C400.266 120.793 400.087 120.769 399.914 120.745C397.911 120.476 395.909 120.062 393.92 119.498C393.676 119.427 393.429 119.356 393.184 119.279C393.176 119.279 393.169 119.279 393.163 119.271C392.895 119.192 392.625 119.105 392.359 119.021C391.369 118.696 390.383 118.333 389.403 117.929C388.757 117.663 388.121 117.386 387.493 117.091C387.246 116.977 386.999 116.858 386.757 116.737C386.694 116.708 386.626 116.674 386.563 116.642C386.326 116.526 386.098 116.408 385.867 116.289C384.182 115.413 382.582 114.438 381.061 113.37C380.982 113.314 380.9 113.259 380.822 113.201C380.656 113.085 380.488 112.964 380.322 112.842C380.286 112.816 380.249 112.787 380.212 112.761C379.066 111.914 377.971 111.015 376.928 110.066V110.071L376.864 110.013C376.786 109.942 376.712 109.868 376.636 109.799L375.238 108.481L374.699 107.974L374.626 107.903L373.89 107.212L370.537 104.056L369.999 103.55L367.106 100.826L366.37 100.132L365.837 99.6283L365.298 99.1247L361.138 95.2061L360.673 94.7683L360.6 94.6971L359.938 94.0748L355.644 90.0323L355.105 89.5286L354.99 89.4179C354.738 89.2227 354.488 89.025 354.238 88.8246C353.991 88.6241 353.742 88.4185 353.503 88.2075C352.575 87.4085 351.703 86.5567 350.888 85.6575C350.723 85.4756 350.56 85.291 350.4 85.1038C349.448 84.0041 348.581 82.8438 347.803 81.6282C347.549 81.2326 347.304 80.8265 347.068 80.4178C347.068 80.4125 347.062 80.4099 347.06 80.4046C346.934 80.1858 346.81 79.9642 346.689 79.7427C345.715 77.9549 344.924 76.072 344.325 74.1259C344.24 73.8622 344.164 73.5985 344.091 73.3348C343.962 72.8839 343.849 72.4303 343.741 71.9741C344.511 69.4743 345.615 67.0377 347.065 64.7303C347.302 64.3532 347.546 63.9814 347.801 63.6149C347.83 63.57 347.861 63.5252 347.893 63.483C349.519 61.1546 351.411 59.1241 353.5 57.4047C353.742 57.2017 353.989 57.0092 354.236 56.8167C356.017 55.4428 357.93 54.2852 359.932 53.3543C360.174 53.2383 360.421 53.1302 360.668 53.0221C362.505 52.2257 364.415 51.6165 366.365 51.1999C366.606 51.1445 366.856 51.097 367.1 51.0496C367.347 51.0021 367.6 50.9573 367.847 50.9177C368.264 50.8492 368.682 50.7885 369.105 50.7411C370.684 50.5486 372.282 50.4826 373.88 50.5433C374.124 50.5512 374.371 50.5617 374.615 50.5802C375.506 50.6356 376.397 50.7305 377.285 50.865C377.59 50.9098 377.894 50.9599 378.197 51.0179C378.903 51.1472 379.608 51.3027 380.309 51.4873C380.554 51.548 380.801 51.6165 381.045 51.6877C381.542 51.8275 382.03 51.9831 382.519 52.1518L382.524 52.1439L384.721 52.7083L385.567 52.9245L386.739 53.2251L387.475 53.415L392.104 54.6016L392.945 54.8152L393.166 54.8732L393.902 55.0605L400.418 56.7323L400.731 56.8114L401.156 56.9195L401.579 57.0277L406.853 58.3804L407.589 58.5703L408.117 58.7048L408.96 58.921L409.386 59.0291C410.694 59.2849 411.995 59.5961 413.285 59.9785C413.53 60.0497 413.777 60.1235 414.021 60.2052C414.105 60.2263 414.187 60.2553 414.268 60.2817L414.292 60.2896C414.667 60.4136 415.04 60.5401 415.416 60.6773C415.676 60.7669 415.934 60.8618 416.191 60.9594C417.379 61.4077 418.556 61.9114 419.715 62.4757C419.962 62.5917 420.209 62.7157 420.451 62.8396C420.892 63.0637 421.331 63.2984 421.77 63.5384C421.993 63.6623 422.219 63.7889 422.44 63.9208C423.533 64.5484 424.607 65.234 425.659 65.975C425.853 66.1095 426.045 66.2492 426.234 66.389C426.481 66.5683 426.728 66.7503 426.97 66.9375C427.301 67.1854 427.624 67.4412 427.945 67.6996C428.139 67.8552 428.333 68.0134 428.52 68.1716C429.999 69.4083 431.376 70.7295 432.648 72.1218C432.653 72.1297 432.661 72.135 432.666 72.1429C432.829 72.317 432.984 72.4963 433.139 72.6756C433.229 72.7732 433.315 72.876 433.402 72.9736C434.577 74.3316 435.656 75.7503 436.637 77.2244C436.776 77.4301 436.912 77.6411 437.044 77.8494C437.79 79.0149 438.476 80.2095 439.101 81.4304C439.356 81.9314 439.603 82.4351 439.837 82.9441C439.853 82.9704 439.863 82.9994 439.876 83.0258C439.984 83.2631 440.092 83.5005 440.194 83.7404C441.046 85.6813 441.75 87.6801 442.304 89.7185C442.378 89.9901 442.449 90.2591 442.514 90.5333C443.074 92.7563 443.455 95.0241 443.65 97.3104C443.65 97.3289 443.65 97.3473 443.655 97.3658L443.676 97.3526Z" fill="#6C5950"/>
<path d="M374.623 50.567V107.898L373.888 107.207V50.5301C374.132 50.538 374.379 50.5486 374.623 50.567Z" fill="#53443D"/>
<path d="M381.056 51.6746V113.367C380.977 113.312 380.895 113.256 380.817 113.198C380.651 113.082 380.483 112.961 380.317 112.84V51.4768C380.562 51.5375 380.809 51.606 381.053 51.6772L381.056 51.6746Z" fill="#53443D"/>
<path d="M387.488 53.4018V117.088C387.241 116.975 386.994 116.856 386.752 116.735V53.2093L387.488 53.3992V53.4018Z" fill="#53443D"/>
<path d="M393.182 54.8627L393.917 55.0499V119.498C393.673 119.427 393.426 119.356 393.182 119.279V54.8627Z" fill="#53443D"/>
<path d="M401.172 56.909V120.893C401.07 120.883 400.967 120.875 400.865 120.861C400.723 120.846 400.581 120.83 400.437 120.811V56.7191L400.749 56.7983L401.175 56.9064L401.172 56.909Z" fill="#53443D"/>
<path d="M407.605 58.5598V121.064C407.361 121.08 407.114 121.088 406.869 121.093V58.3699L407.605 58.5598Z" fill="#53443D"/>
<path d="M414.036 60.1947V120.247C413.792 120.3 413.545 120.345 413.301 120.389V59.9679C413.545 60.0391 413.792 60.113 414.036 60.1947Z" fill="#53443D"/>
<path d="M420.469 62.8291V118.383C420.225 118.475 419.98 118.567 419.733 118.654V62.4651C419.98 62.5812 420.227 62.7051 420.469 62.8291Z" fill="#53443D"/>
<path d="M426.991 66.927V115.274C426.749 115.419 426.502 115.558 426.255 115.696V66.3785C426.502 66.5578 426.749 66.7397 426.991 66.927Z" fill="#53443D"/>
<path d="M433.42 72.4172V110.664C433.179 110.875 432.932 111.086 432.685 111.289V72.1324C432.847 72.3065 433.003 72.4858 433.158 72.6651L433.42 72.4172Z" fill="#53443D"/>
<path d="M439.119 81.4199C439.374 81.921 439.621 82.4246 439.855 82.9336V103.666C439.613 103.995 439.369 104.32 439.119 104.644V81.4199Z" fill="#53443D"/>
<path d="M347.806 63.6043V81.6177C347.551 81.2221 347.307 80.816 347.07 80.4073V64.7198C347.307 64.3427 347.551 63.9709 347.806 63.6043Z" fill="#53443D"/>
<path d="M354.241 56.8062V88.814C353.994 88.6136 353.744 88.4079 353.505 88.197V57.3969C353.747 57.1938 353.994 57.0013 354.241 56.8088V56.8062Z" fill="#53443D"/>
<path d="M360.67 53.0115V94.7605L360.597 94.6893L359.935 94.0669V53.3438C360.176 53.2278 360.423 53.1197 360.67 53.0115Z" fill="#53443D"/>
<path d="M367.103 51.0391V100.82L366.367 100.127V51.192C366.609 51.1366 366.859 51.0892 367.103 51.0417V51.0391Z" fill="#53443D"/>
<path d="M401.596 57.0171L401.173 57.4153L400.437 58.1115L393.921 64.261L393.182 64.9545L387.488 70.3313L386.753 71.0249L381.056 76.3991L380.32 77.0952L374.624 82.4721L373.885 83.1656L367.104 89.5656L366.368 90.2617L361.139 95.1982L360.671 94.7605L360.598 94.6893L360.671 94.6207L366.368 89.2465L367.104 88.553L373.885 82.1503L374.624 81.4568L380.32 76.0773L381.056 75.3838L386.753 70.0096L387.488 69.3161L393.182 63.9393L393.921 63.2457L400.437 57.0962L400.75 56.8009L401.173 56.909L401.596 57.0171Z" fill="#53443D"/>
<path d="M408.134 58.6943L408.977 58.9105L407.605 60.2079L406.87 60.9014L401.173 66.2756L400.437 66.9692L393.921 73.1213L393.183 73.8148L387.489 79.189L386.753 79.8825L381.056 85.2594L380.321 85.9529L374.624 91.3297L373.886 92.0233L367.104 98.4259L366.368 99.1194L365.835 99.6204L365.299 99.1168L366.368 98.1068L367.104 97.4133L373.886 91.0133L374.624 90.3171L380.321 84.9429L381.056 84.2468L386.753 78.8699L387.489 78.1764L393.183 72.7996L393.921 72.106L400.437 65.9566L401.173 65.263L406.87 59.8862L407.605 59.1927L408.134 58.6943Z" fill="#53443D"/>
<path d="M416.21 60.9489L414.037 63.0005L413.301 63.694L407.605 69.0682L406.869 69.7617L401.172 75.1386L400.437 75.8321L393.92 81.9816L393.184 82.6778L387.488 88.052L386.752 88.7455L381.056 94.1197L380.32 94.8158L374.623 100.193L373.888 100.886L370.535 104.048L369.996 103.542L373.885 99.871L374.621 99.1774L380.317 93.8006L381.053 93.1071L386.75 87.7302L387.485 87.0367L393.182 81.6625L393.918 80.969L400.434 74.8169L401.17 74.1233L406.866 68.7491L407.602 68.0556L413.299 62.6788L414.034 61.9852L415.43 60.6667C415.69 60.7564 415.947 60.8513 416.205 60.9489H416.21Z" fill="#53443D"/>
<path d="M421.789 63.5279C422.012 63.6518 422.238 63.7784 422.459 63.9103L420.473 65.7852L419.737 66.4813L414.04 71.8582L413.305 72.5517L407.608 77.9285L406.872 78.6221L401.176 83.9989L400.44 84.6924L393.924 90.8419L393.188 91.5354L387.491 96.9123L386.756 97.6058L381.059 102.983L380.323 103.676L375.239 108.475L374.7 107.969L380.323 102.661L381.059 101.967L386.756 96.5905L387.491 95.897L393.188 90.5228L393.924 89.8267L400.44 83.6772L401.176 82.9836L406.872 77.6094L407.608 76.9133L413.305 71.5391L414.04 70.8456L419.737 65.4687L420.473 64.7726L421.792 63.5279H421.789Z" fill="#53443D"/>
<path d="M428.542 68.1637L426.991 69.6272L426.256 70.3208L420.472 75.7794L419.737 76.4729L414.04 81.8524L413.304 82.5459L407.608 87.9201L406.872 88.6136L401.175 93.9904L400.44 94.684L393.923 100.833L393.188 101.527L387.491 106.904L386.755 107.597L381.059 112.972L380.82 113.198C380.654 113.082 380.486 112.961 380.32 112.84C380.284 112.813 380.247 112.784 380.21 112.758L380.32 112.655L381.056 111.959L386.753 106.585L387.488 105.891L393.185 100.514L393.921 99.8208L400.437 93.6714L401.173 92.9778L406.869 87.601L407.605 86.9075L413.302 81.5306L414.037 80.8371L419.734 75.4603L420.47 74.7667L426.253 69.3082L426.989 68.6146L427.964 67.697C428.158 67.8525 428.352 68.0108 428.539 68.169L428.542 68.1637Z" fill="#53443D"/>
<path d="M433.161 72.6651L432.688 73.1107L426.991 78.4876L426.255 79.1811L420.472 84.6397L419.736 85.3332L414.04 90.7127L413.304 91.4062L407.607 96.7804L406.872 97.4739L401.175 102.851L400.439 103.544L393.923 109.694L393.187 110.387L387.491 115.764L386.755 116.458L386.561 116.64C386.324 116.524 386.095 116.405 385.864 116.286L386.755 115.448L387.491 114.754L393.187 109.377L393.923 108.684L400.439 102.534L401.175 101.838L406.872 96.464L407.607 95.7704L413.304 90.3936L414.04 89.7001L419.736 84.3232L420.472 83.6297L426.255 78.1711L426.991 77.4776L432.669 72.1192L432.688 72.1034V72.1377C432.851 72.3117 433.006 72.491 433.161 72.6703V72.6651Z" fill="#53443D"/>
<path d="M436.656 77.2139C436.795 77.4196 436.932 77.6305 437.063 77.8388L433.421 81.2775L432.686 81.971L426.989 87.3478L426.253 88.0414L420.47 93.5L419.734 94.1935L414.038 99.573L413.302 100.266L407.606 105.641L406.87 106.337L401.173 111.711L400.438 112.405L393.921 118.557L393.185 119.25L393.164 119.269C392.896 119.19 392.626 119.103 392.36 119.018L393.188 118.235L393.924 117.541L400.44 111.392L401.176 110.698L406.872 105.322L407.608 104.628L413.305 99.2539L414.04 98.5604L419.737 93.1809L420.473 92.4873L426.256 87.0288L426.992 86.3352L432.688 80.9584L433.424 80.2649L436.659 77.2139H436.656Z" fill="#53443D"/>
<path d="M440.213 83.7299L439.856 84.0674L439.12 84.761L433.421 90.1404L432.685 90.834L426.988 96.2082L426.253 96.9017L420.469 102.36L419.734 103.054L414.037 108.431L413.301 109.124L407.605 114.501L406.869 115.195L401.172 120.569L400.865 120.859C400.723 120.843 400.581 120.827 400.437 120.809C400.263 120.79 400.085 120.767 399.911 120.743L400.437 120.247L401.172 119.553L406.869 114.179L407.605 113.486L413.301 108.109L414.037 107.415L419.734 102.036L420.469 101.342L426.253 95.8838L426.988 95.1903L432.685 89.8134L433.421 89.1199L439.12 83.7431L439.856 83.0496L439.895 83.0126C440.003 83.25 440.11 83.4873 440.213 83.7273V83.7299Z" fill="#53443D"/>
<path d="M442.535 90.5228L439.855 93.0517L439.12 93.7452L433.42 99.122L432.685 99.8182L426.988 105.192L426.252 105.886L420.469 111.345L419.733 112.038L414.037 117.415L413.301 118.108L410.424 120.827C410.022 120.875 409.622 120.917 409.218 120.951L413.306 117.093L414.042 116.4L419.739 111.02L420.474 110.327L426.258 104.868L426.993 104.175L432.69 98.7977L433.426 98.1042L439.125 92.7273L439.861 92.0338L442.328 89.7053C442.401 89.9769 442.472 90.2459 442.538 90.5202L442.535 90.5228Z" fill="#53443D"/>
<path d="M443.67 97.2999C443.67 97.3183 443.67 97.3368 443.675 97.3552C443.36 97.996 443.029 98.6157 442.693 99.2328L442.687 99.2407L439.852 101.912L439.117 102.608L433.417 107.985L432.682 108.679L426.985 114.053L426.249 114.749L424.003 116.869C423.325 117.196 422.639 117.507 421.945 117.797L426.249 113.736L426.985 113.043L432.682 107.666L433.417 106.972L439.117 101.596L439.852 100.902L443.667 97.3025L443.67 97.2999Z" fill="#53443D"/>
<path d="M367.852 50.9046L367.106 51.6113L366.37 52.3048L360.674 57.679L359.938 58.3725L354.241 63.7494L353.506 64.4429L347.807 69.8197L347.071 70.5133L344.094 73.3243C344.167 73.588 344.244 73.8517 344.328 74.1154L347.071 71.5285L347.807 70.835L353.506 65.4555L354.241 64.762L359.938 59.3878L360.674 58.6943L366.37 53.3174L367.106 52.6239L369.114 50.7305L367.855 50.9072L367.852 50.9046Z" fill="#53443D"/>
<path d="M378.208 51.0048L374.623 54.388L373.888 55.0816L367.106 61.4816L366.37 62.1751L360.674 67.5519L359.938 68.2454L354.241 73.6196L353.506 74.3132L347.806 79.6926L347.071 80.3862L347.063 80.3914C346.937 80.1726 346.813 79.9511 346.692 79.7296L347.071 79.3736L347.806 78.68L353.506 73.3006L354.241 72.607L359.938 67.2328L360.674 66.5393L366.37 61.1625L367.106 60.4689L373.888 54.069L374.623 53.3754L377.293 50.8545C377.598 50.8993 377.903 50.9494 378.205 51.0074L378.208 51.0048Z" fill="#53443D"/>
<path d="M384.732 52.6951L385.578 52.9113L381.056 57.178L380.32 57.8715L374.623 63.2484L373.888 63.9419L367.106 70.3445L366.37 71.038L360.674 76.4122L359.938 77.1058L354.241 82.4826L353.505 83.1761L350.891 85.6417C350.726 85.4598 350.563 85.2752 350.402 85.088L353.503 82.1609L354.239 81.4674L359.935 76.0932L360.671 75.3996L366.367 70.0228L367.103 69.3293L373.885 62.9293L374.621 62.2357L380.317 56.8589L381.053 56.1654L384.729 52.6951H384.732Z" fill="#53443D"/>
<path d="M392.118 54.5884L392.959 54.8047L387.488 59.9705L386.753 60.6641L381.056 66.0383L380.32 66.7318L374.624 72.1113L373.885 72.8048L367.104 79.2048L366.368 79.901L360.671 85.2752L359.936 85.9687L355.642 90.0218L355.104 89.5181L359.936 84.9587L360.671 84.2652L366.368 78.8884L367.104 78.1948L373.885 71.7922L374.624 71.0987L380.32 65.7218L381.056 65.0257L386.753 59.6515L387.488 58.9579L392.118 54.5884Z" fill="#53443D"/>
<path d="M204.214 127.343C201.363 129.669 195.322 139.088 195.322 139.088C195.322 139.088 265.728 150.986 299.753 149.017C333.78 147.047 342.403 142.021 342.403 142.021C342.403 142.021 335.74 132.272 328.624 127.346C328.624 127.346 319.218 121.12 304.577 127.346C291.904 132.736 278.438 120.78 257.94 121.927C246.802 122.552 239.211 129.337 228.669 126.531C215.626 123.061 208.641 123.73 204.211 127.343H204.214Z" fill="#58616E"/>
<path d="M316.449 111.45C321.11 117.961 320.997 126.043 316.197 129.506C311.396 132.968 303.726 130.497 299.065 123.986C294.404 117.476 294.517 109.393 299.317 105.931C304.118 102.468 311.788 104.939 316.449 111.45Z" fill="#EAEBED"/>
<path d="M290.869 108.09C291.87 111.471 290.659 114.815 288.165 115.558C285.672 116.302 282.839 114.163 281.841 110.78C280.84 107.4 282.051 104.056 284.544 103.312C287.038 102.569 289.87 104.707 290.869 108.09Z" fill="#EAEBED"/>
<path d="M267.447 217.457C298.062 217.457 322.881 197.73 322.881 173.396C322.881 149.061 298.062 129.334 267.447 129.334C236.831 129.334 212.013 149.061 212.013 173.396C212.013 197.73 236.831 217.457 267.447 217.457Z" fill="#EAEBED"/>
<path d="M267.447 212.434C254.383 212.434 242.096 208.386 232.85 201.037C223.572 193.661 218.461 183.843 218.461 173.396C218.461 162.948 223.572 153.13 232.85 145.755C242.096 138.405 254.383 134.358 267.447 134.358C280.511 134.358 292.798 138.405 302.044 145.755C311.322 153.13 316.433 162.948 316.433 173.396C316.433 183.843 311.322 193.661 302.044 201.037C292.798 208.386 280.511 212.434 267.447 212.434ZM267.447 135.331C240.969 135.331 219.428 152.408 219.428 173.396C219.428 194.383 240.969 211.461 267.447 211.461C293.925 211.461 315.466 194.383 315.466 173.396C315.466 152.408 293.925 135.331 267.447 135.331Z" fill="#6C5950"/>
<path d="M289.92 195.268H242.453V195.925H289.92V195.268Z" fill="#53443D"/>
<path d="M289.92 157.054H242.453V157.711H289.92V157.054Z" fill="#53443D"/>
<g clip-path="url(#clip1_490_953)">
<path d="M243.664 170.584H241C241 170.584 241.361 172.726 241.361 174.378V181.206C241.361 182.857 241 185 241 185H243.664C243.664 185 243.303 182.857 243.303 181.206V174.378C243.303 172.726 243.664 170.584 243.664 170.584Z" fill="#2E394B"/>
<path d="M252.874 176.048C252.684 175.382 252.039 174.909 251.312 174.909C250.856 174.909 250.44 175.029 250.119 175.229C250.48 174.425 252.042 171.391 254.717 172.217V170.588C253.633 170.588 251.042 170.358 248.911 176.903L248.466 178.136L247.864 179.805V174.382C247.864 172.734 248.225 170.588 248.225 170.588H245.562C245.562 170.588 245.923 172.73 245.923 174.382V181.21C245.923 182.861 245.562 185.004 245.562 185.004H248.225C248.225 185.004 247.893 183.036 247.864 181.417L249.827 175.989C250.017 175.811 250.221 175.706 250.411 175.706C250.677 175.706 250.926 175.913 251.079 176.408L252.542 181.359C253.02 182.952 253.265 185 253.265 185H255.892C255.892 185 254.921 182.952 254.447 181.359L252.867 176.048H252.874Z" fill="#2E394B"/>
<path d="M283.431 170.584H280.768C280.768 170.584 281.129 172.726 281.129 174.378V181.206C281.129 182.857 280.768 185 280.768 185H283.431C283.431 185 283.07 182.857 283.07 181.206V174.378C283.07 172.726 283.431 170.584 283.431 170.584Z" fill="#2E394B"/>
<path d="M290.2 177.266L290.397 176.913L293.973 170.584H292.451C292.451 172.083 291.805 172.832 290.663 174.862L289.787 176.397L288.609 174C287.868 172.519 287.295 170.584 287.295 170.584H284.956L288.441 177.721L288.733 178.318L288.528 178.685L284.96 185H286.481C286.481 183.501 287.127 182.752 288.269 180.722L289.145 179.187L290.324 181.584C291.065 183.065 291.637 185 291.637 185H293.98L290.495 177.863L290.203 177.266H290.2Z" fill="#2E394B"/>
<path d="M278.366 170.584H276.527C277.231 172.65 278.202 177.033 278.202 179.918V183.654L270.703 170.584H268.726V185H271.065C270.36 182.934 269.39 178.55 269.39 175.666V172.061L276.888 184.996H278.866V170.584H278.366Z" fill="#2E394B"/>
<path d="M265.285 170.584H258.406C257.516 170.584 256.797 171.304 256.797 172.188V183.392C256.797 184.28 257.519 184.996 258.406 184.996H265.285C266.175 184.996 266.894 184.276 266.894 183.392V172.188C266.894 171.3 266.171 170.584 265.285 170.584ZM258.968 183.465C258.786 183.465 258.64 183.319 258.64 183.138V172.443C258.64 172.261 258.786 172.115 258.968 172.115H264.723C264.905 172.115 265.051 172.261 265.051 172.443V183.138C265.051 183.319 264.905 183.465 264.723 183.465H258.968Z" fill="#C4A291"/>
<path d="M265.051 167.885H258.64V169.482H265.051V167.885Z" fill="#C4A291"/>
<path d="M263.781 167.121H261.515L263.642 165L263.784 165.142C264.332 165.688 264.332 166.575 263.784 167.121H263.781Z" fill="#C4A291"/>
</g>
<path d="M122.155 118.016C122.155 118.016 122.465 112.631 115.68 111.679C115.68 111.679 111.849 110.659 108.108 114.49C103.155 119.561 106.045 130.386 104.39 132.546C102.734 134.703 90.4845 130.165 92.6102 142.203C93.8321 149.117 103.651 160.443 116.279 161.566C116.279 161.566 126.756 160.008 120.993 150.986C119.454 148.574 115.814 145.565 118.97 141.227C119.632 140.315 122.157 118.013 122.157 118.013L122.155 118.016Z" fill="#53443D"/>
<path d="M59.3241 194.626C59.3767 194.718 59.4292 194.816 59.4844 194.911C60.7667 197.15 63.7096 202.632 66.952 208.634C68.4865 211.482 70.0919 214.446 71.6133 217.233C74.2383 222.046 76.6241 226.333 78.0167 228.599C79.433 230.901 80.4761 232.52 80.8992 233.168H80.9018C81.0279 233.372 81.0568 233.606 81.0384 233.841C80.8913 235.871 80.9333 237.889 81.1304 239.877C83.0853 259.401 96.2048 269.862 96.2048 269.862L100.104 270.44C100.104 270.44 94.5836 249.919 92.9597 238.316C92.6865 236.351 92.5656 234.756 92.6602 233.717C92.9492 230.695 92.4132 226.257 91.4016 221.162C89.6017 212.107 86.2962 200.994 83.4269 192.1C83.2456 191.533 77.7592 171.618 77.7592 171.618C73.1557 175.656 56.3629 177.322 56.3629 177.322C56.3629 177.322 53.5146 184.271 59.3189 194.629L59.3241 194.626Z" fill="#6C5950"/>
<path d="M112.758 148.988C112.758 148.988 104.792 148.753 104.387 155.788C103.982 162.827 112.525 190.059 114.285 192.53C117.491 197.026 130.881 208.919 130.881 208.919L134.399 206.925C134.399 206.925 122.775 186.794 120.773 184.991C117.633 182.161 116.539 151.168 112.758 148.988Z" fill="#D8C1B5"/>
<path d="M108.294 275.392H92.0166C92.0166 275.392 91.6251 272.903 92.4764 271.012C93.291 269.2 94.4524 269.142 92.6236 266.3C93.6589 267.368 96.9827 267.811 99.3371 267.492C99.6261 267.961 101.195 271.11 102.159 271.803C103.223 272.57 107.966 272.296 108.294 275.389V275.392Z" fill="#58616E"/>
<path d="M59.3242 194.626C59.3768 194.718 59.4293 194.816 59.4845 194.911C60.7668 197.15 67.7062 210.01 70.9486 216.012C67.1912 200.501 69.8056 184.993 69.8056 184.993L59.3242 194.626Z" fill="#53443D"/>
<path d="M119.934 117.025C120.04 116.595 110.638 121.291 110.16 121.821C105.751 126.731 107.007 133.139 109.532 133.2C111.15 133.239 110.838 135.94 110.838 135.94L128.868 128.285C128.868 128.285 126.698 115.58 119.937 117.025H119.934Z" fill="#53443D"/>
<path d="M113.876 148.204C113.876 148.204 116.277 150.702 116.277 158.17C116.277 158.17 112.969 163.412 104.388 164.738C104.388 164.738 111.766 148.202 113.876 148.204Z" fill="#737A86"/>
<path d="M72.0159 178.535L72.0711 175.479C66.004 176.246 51.1556 168.203 51.1556 168.203C51.1556 168.203 44.81 172.438 43.9403 184.537C43.5172 190.441 40.8345 215.414 40.5375 222.868C40.4298 225.571 40.393 227.499 40.3799 228.272C40.3799 228.274 40.3799 228.277 40.3799 228.279C40.3773 228.514 40.2669 228.722 40.1224 228.907C38.8664 230.508 37.7786 232.203 36.8353 233.965C27.5783 251.248 32.3553 274.398 32.3553 274.398L34.4915 273.826C34.4915 273.826 42.3952 249.84 47.5111 239.307C48.3782 237.522 49.1691 236.132 49.8287 235.328C51.752 232.984 53.7805 229.002 55.7801 224.211C59.5586 215.153 72.0159 178.533 72.0159 178.533V178.535Z" fill="#6C5950"/>
<path d="M45.3668 275.392H29.0889C29.0889 275.392 28.7 272.903 29.5487 271.012C30.3633 269.2 31.6403 268.375 31.3329 266.184C32.3681 267.252 34.0524 268.449 36.4067 268.132C36.6958 268.602 38.267 271.112 39.2314 271.806C40.2955 272.573 45.0383 272.299 45.3668 275.392Z" fill="#58616E"/>
<path d="M103.289 168.246C101.103 168.62 103.646 170.363 100.638 170.693C96.3575 171.162 91.9379 171.484 89.623 172.409C88.7795 172.747 87.2818 174.276 86.9245 174.709C84.7278 177.375 81.9347 182.673 81.9347 182.673C53.5884 181.378 51.1553 168.206 51.1553 168.206C69.5509 150.274 86.4673 139.7 99.3818 138.3C101.592 138.06 104.387 139.468 106.379 140.357C110.904 142.377 113.876 148.204 113.876 148.204C113.876 148.204 111.597 166.824 103.289 168.246Z" fill="#737A86"/>
<path d="M100.638 170.693C96.3576 171.162 91.938 171.484 89.6231 172.409C88.6772 158.222 95.3486 147.55 95.3486 147.55C95.3486 147.55 99.6999 165.324 100.638 170.693Z" fill="#58616E"/>
<path d="M104.332 145.148C104.332 145.148 93.567 144.557 91.6541 151.34C89.7412 158.122 95.2434 185.194 96.4284 187.989C98.5856 193.076 109.093 207.595 109.093 207.595L112.956 206.413C112.956 206.413 105.951 184.234 104.385 182.04C101.928 178.593 107.551 148.099 104.327 145.148H104.332Z" fill="#D8C1B5"/>
<path d="M89.5312 160.411C89.5602 160.569 99.7184 162.286 106.072 159.05C106.072 159.05 111.38 142.364 103.794 143.16C96.2079 143.959 91.7174 146.356 91.5256 150C91.3338 153.645 89.5312 160.411 89.5312 160.411Z" fill="#737A86"/>
<path d="M106.379 140.359C106.379 140.359 109.372 151.567 113.875 148.207C113.749 147.667 114.535 146.092 115.46 144.497C116.642 142.456 118.053 140.37 118.053 140.37L111.96 135.014L111.597 134.695C109.732 137.965 107.9 139.249 106.379 140.365V140.359Z" fill="#D8C1B5"/>
<path d="M118.053 140.367C118.053 140.367 116.645 142.448 115.46 144.494C111.674 142.153 111.668 137.445 111.96 135.009L118.051 140.367H118.053Z" fill="#C5A291"/>
<path d="M118.221 143.052C118.221 143.052 109.028 137.918 112.302 132.219C115.575 126.523 116.595 122.022 122.604 125.06C128.614 128.097 128.495 130.924 127.862 133.094C127.229 135.262 120.699 144.241 118.221 143.052Z" fill="#D8C1B5"/>
<path d="M129.415 129.772C128.995 127.243 127.713 127 126.822 127.169C123.427 121.534 117.878 123.733 117.878 123.733C114.914 127.464 110.631 128.103 110.631 128.103C110.631 128.103 111.698 130.096 116.094 131.328C117.436 131.705 118.96 131.475 120.432 130.98C117.381 132.686 114.191 133.34 114.191 133.34C119.985 133.872 125.245 130.17 125.818 129.6C126.754 130.107 127.358 130.402 127.413 131.694C127.495 133.622 126.43 135.513 125.553 137.016C125.553 137.016 130.049 133.566 129.415 129.772Z" fill="#53443D"/>
<path d="M127.297 187.641C126.486 186.881 125.206 186.966 124.499 187.82C106.682 209.354 108.579 241.417 129.315 260.799C150.052 280.181 182.056 279.796 202.191 260.43C202.99 259.662 202.982 258.375 202.17 257.616L127.297 187.643V187.641Z" fill="#90AE49"/>
<path d="M125.44 242.216C124.205 242.796 123.367 244.22 123.606 245.32C124.747 250.588 127.797 254.636 131.631 258.217C134.808 261.187 138.055 263.766 142.307 264.789C143.949 265.184 146.098 263.821 146.944 261.854L161.241 228.699C162.019 226.898 160.726 225.598 158.976 226.42L125.44 242.216Z" fill="#EBE839"/>
<path d="M148.108 263.642C147.596 264.892 147.853 266.519 148.66 267.194C152.533 270.429 157.334 271.721 162.076 271.911C166.007 272.069 169.428 271.645 172.96 269.628C174.324 268.847 175.007 266.405 174.442 264.364L164.888 229.912C164.368 228.04 162.715 227.905 161.992 229.677L148.108 263.642Z" fill="#EBE839"/>
<path d="M124.121 240.708C122.883 241.254 121.26 241.008 120.574 240.18C117.289 236.206 116.067 231.386 115.805 226.473C115.587 222.399 115.813 218.71 117.77 215.023C118.527 213.599 120.949 212.861 122.991 213.423L157.468 222.897C159.341 223.412 159.499 225.123 157.746 225.896L124.118 240.708H124.121Z" fill="#EBE839"/>
<path d="M176.35 265.129C176.736 266.416 177.918 267.629 178.93 267.608C183.455 267.523 186.702 266.943 190.704 264.931C194.911 262.816 197.525 261.216 197.775 257.31C198.012 253.618 168.165 228.693 168.165 228.693C166.636 227.52 165.327 228.38 165.874 230.202L176.35 265.129Z" fill="#EBE839"/>
<path d="M121.488 211.49C120.203 211.118 118.947 209.942 118.989 208.927C119.197 203.911 120.293 199.813 122.865 196.137C124.999 193.089 126.394 188.703 132.784 194.676L157.877 219.306C159.065 220.827 158.219 222.151 156.401 221.624L121.488 211.492V211.49Z" fill="#EBE839"/>
<path d="M112.959 206.414C112.959 206.414 113.458 207.685 114.183 208.571C114.909 209.459 116.714 212.057 116.751 213.315C116.751 213.315 116.645 213.874 116.194 213.771C115.742 213.668 114.173 212.109 113.369 212.22C113.369 212.22 112.68 214.309 112.962 215.089C113.729 217.215 112.612 219.91 112.357 220.521C112.102 221.133 109.893 216.429 109.37 214.752C109.018 213.626 108.821 211.034 108.913 208.924C108.968 207.692 107.77 205.733 107.77 205.733L112.962 206.411L112.959 206.414Z" fill="#D8C1B5"/>
<path d="M132.417 28.8022C132.914 30.7852 131.366 37.4067 130.801 37.5491C130.236 37.6915 125.756 32.5889 125.26 30.6059C124.763 28.6229 125.964 26.6108 127.94 26.1124C129.916 25.6141 131.92 26.8192 132.417 28.8022Z" fill="#D8C1B5"/>
<path d="M122.547 33.7861C124.584 33.707 130.722 36.5892 130.745 37.172C130.769 37.7548 124.87 41.1064 122.834 41.1855C120.797 41.2646 119.082 39.6719 119.003 37.6282C118.924 35.5845 120.511 33.8626 122.547 33.7835V33.7861Z" fill="#D8C1B5"/>
<path d="M124.298 43.8331C124.968 41.9028 129.887 37.2221 130.436 37.4146C130.985 37.6071 131.936 44.342 131.266 46.2723C130.596 48.2026 128.491 49.2231 126.565 48.5506C124.642 47.8782 123.625 45.766 124.295 43.8331H124.298Z" fill="#D8C1B5"/>
<path d="M134.138 45.1647C132.577 43.8489 129.96 37.5755 130.333 37.1298C130.706 36.6815 137.32 38.1767 138.88 39.4926C140.441 40.8084 140.646 43.1422 139.335 44.7112C138.026 46.2775 135.698 46.4832 134.135 45.1674L134.138 45.1647Z" fill="#D8C1B5"/>
<path d="M139.469 36.5998C137.666 37.5544 130.89 37.6176 130.619 37.1008C130.348 36.5839 134.221 31.0041 136.024 30.0495C137.826 29.0949 140.06 29.7858 141.011 31.5948C141.962 33.4037 141.274 35.6452 139.471 36.5998H139.469Z" fill="#D8C1B5"/>
<path d="M131.14 35.9985C130.533 35.7085 129.807 35.9669 129.521 36.576C129.232 37.1852 129.489 37.913 130.096 38.2004C130.703 38.4905 131.429 38.2321 131.715 37.6229C132.001 37.0138 131.744 36.286 131.14 35.9985Z" fill="#6C5950"/>
<path d="M413.06 269.562C409.502 269.804 406.42 267.109 406.178 263.539L402.468 209.003C402.227 205.433 404.912 202.339 408.47 202.097C412.027 201.854 415.11 204.549 415.351 208.12L419.061 262.655C419.303 266.226 416.618 269.319 413.06 269.562Z" fill="#BEC2C7"/>
<path d="M413.454 275.36C412.08 275.455 410.887 274.411 410.795 273.032L410.506 268.784C410.411 267.405 411.452 266.207 412.826 266.115C414.2 266.02 415.393 267.064 415.485 268.444L415.774 272.692C415.869 274.071 414.828 275.268 413.454 275.36Z" fill="#BEC2C7"/>
<path d="M413.034 268.185C410.257 268.375 407.853 266.268 407.663 263.481L406.962 253.175C408.825 253.463 410.919 253.943 413.071 253.745C414.648 253.6 416.017 253.835 417.139 254.212L417.722 262.795C417.911 265.58 415.812 267.995 413.034 268.185Z" fill="#58616E"/>
<path d="M413.341 273.776C412.621 273.826 411.998 273.28 411.951 272.557L411.583 267.141C411.533 266.418 412.077 265.793 412.797 265.746C413.517 265.696 414.14 266.242 414.187 266.964L414.555 272.381C414.605 273.103 414.061 273.728 413.341 273.776Z" fill="#58616E"/>
<path d="M408.688 205.319C404.566 205.601 400.963 202.447 400.682 198.313L398.869 171.671C398.588 167.534 401.73 163.918 405.851 163.636C409.973 163.354 413.576 166.508 413.857 170.643L415.67 197.284C415.951 201.422 412.808 205.037 408.688 205.319Z" fill="#6C5950"/>
<path d="M423.229 212.798L394.857 214.741C394.105 214.794 393.453 214.224 393.404 213.47L392.003 192.878C391.953 192.124 392.518 191.47 393.27 191.42L421.642 189.476C422.394 189.423 423.045 189.993 423.095 190.747L424.496 211.339C424.548 212.094 423.981 212.745 423.229 212.798Z" fill="#53443D"/>
<path d="M394.094 226.244V268.114C394.094 272.278 390.733 275.653 386.582 275.653H366.512C362.363 275.653 359 272.28 359 268.114V226.244C359 224.16 359.841 222.275 361.199 220.912C362.558 219.548 364.436 218.702 366.512 218.702C367.379 218.702 368.112 218.13 368.362 217.344C368.417 217.159 368.451 216.961 368.451 216.758V212.811C368.451 212.626 368.483 212.452 368.543 212.289C368.754 211.719 369.3 211.313 369.939 211.313H383.347C383.602 211.313 383.841 211.387 384.041 211.516C384.403 211.748 384.645 212.154 384.645 212.616V216.758C384.645 217.832 385.512 218.702 386.582 218.702C390.731 218.702 394.094 222.077 394.094 226.244Z" fill="#D1B5A7"/>
<path d="M394.094 226.244V268.114C394.094 272.278 390.733 275.653 386.582 275.653H371.652C367.503 275.653 364.14 272.28 364.14 268.114V226.244C364.14 224.16 364.98 222.275 366.339 220.912C367.697 219.548 369.576 218.702 371.652 218.702C372.519 218.702 373.252 218.13 373.502 217.344C373.557 217.159 373.591 216.961 373.591 216.758V212.811C373.591 212.626 373.623 212.452 373.683 212.289C373.893 211.719 374.44 211.313 375.078 211.313H383.345C383.599 211.313 383.839 211.387 384.038 211.516C384.401 211.748 384.643 212.154 384.643 212.616V216.758C384.643 217.832 385.51 218.702 386.579 218.702C390.728 218.702 394.091 222.077 394.091 226.244H394.094Z" fill="#D8C1B5"/>
<path d="M328.036 267.278C330.932 267.238 338.281 273.773 339.879 275.194C341.479 276.616 349.601 275.682 350.941 275.366C351.156 275.316 351.29 275.168 351.351 274.941C351.687 273.728 349.892 270.247 345.728 267.096C340.78 263.354 328.078 264.549 328.078 264.549C328.078 264.549 326.87 265.688 326.77 266.497C326.712 266.946 327.001 267.291 328.036 267.278Z" fill="#45A652"/>
<path d="M326.77 266.5C327.135 266.45 327.532 266.384 327.968 266.302C340.187 263.982 350.939 275.368 350.939 275.368L351.349 274.944C351.685 273.731 349.89 270.25 345.726 267.099C340.778 263.357 328.076 264.552 328.076 264.552C328.076 264.552 326.867 265.691 326.768 266.5H326.77Z" fill="#58C540"/>
<path d="M324.52 266.468C322.292 265.867 315.329 269.461 313.816 270.245C312.3 271.028 306.209 268.699 305.234 268.19C305.079 268.109 305.003 267.966 305 267.779C304.979 266.774 307.05 264.441 310.883 262.829C315.442 260.918 325.022 264.351 325.022 264.351C325.022 264.351 325.732 265.472 325.65 266.115C325.606 266.474 325.317 266.682 324.518 266.468H324.52Z" fill="#45A652"/>
<path d="M325.653 266.118C325.383 266.007 325.086 265.878 324.768 265.728C315.781 261.519 305.237 268.193 305.237 268.193L305.003 267.782C304.982 266.777 307.053 264.443 310.886 262.832C315.445 260.92 325.025 264.354 325.025 264.354C325.025 264.354 325.735 265.474 325.653 266.118Z" fill="#58C540"/>
<path d="M324.375 264.736C323.022 262.861 315.358 261.252 313.692 260.904C312.023 260.554 308.752 254.897 308.313 253.887C308.242 253.726 308.274 253.568 308.389 253.421C309.001 252.627 312.076 252.12 316.067 253.294C320.807 254.689 326.096 263.409 326.096 263.409C326.096 263.409 325.947 264.728 325.479 265.176C325.221 265.427 324.861 265.406 324.378 264.736H324.375Z" fill="#45A652"/>
<path d="M325.477 265.176C325.335 264.918 325.188 264.633 325.033 264.314C320.692 255.367 308.313 253.887 308.313 253.887L308.39 253.421C309.002 252.627 312.076 252.12 316.067 253.294C320.808 254.689 326.097 263.409 326.097 263.409C326.097 263.409 325.947 264.728 325.479 265.176H325.477Z" fill="#58C540"/>
<path d="M328.958 262.125C328.63 261.833 332.51 255.285 335.758 254.615C339.311 253.885 344.66 254.752 344.582 259.741C344.537 262.629 333.391 264.889 332.098 264.485C330.805 264.079 328.958 262.128 328.958 262.128V262.125Z" fill="#DC4D2D"/>
<path d="M330.332 261.353C330.332 261.353 329.573 254.399 324.762 253.563C319.951 252.727 317.239 252.962 316.598 254.816C315.957 256.667 316.637 259.612 318.55 260.78C320.463 261.949 325.931 263.573 325.931 263.573L330.332 261.355V261.353Z" fill="#DC4D2D"/>
<path d="M329.789 266.176C330.096 266.587 325.748 275.281 322.453 276.046C318.85 276.879 313.569 275.468 314.005 268.72C314.26 264.815 325.556 262.241 326.82 262.848C328.083 263.452 329.786 266.178 329.786 266.178L329.789 266.176Z" fill="#DC4D2D"/>
<path d="M328.218 266.93C328.218 266.93 330.698 276.046 335.628 276.223C340.557 276.399 343.156 275.556 343.324 272.963C343.492 270.371 342.089 266.582 339.921 265.398C337.751 264.214 331.983 263.117 331.983 263.117L328.218 266.93Z" fill="#DC4D2D"/>
<path d="M329.826 266.191L328.851 266.176C327.561 266.155 326.529 265.087 326.55 263.792L326.572 262.358C326.592 261.063 327.657 260.028 328.947 260.048L329.922 260.063C331.212 260.084 332.244 261.152 332.223 262.447L332.201 263.881C332.181 265.176 331.116 266.211 329.826 266.191Z" fill="#8B3333"/>
<path d="M329.174 264.132C329.166 264.095 328.406 260.409 325.724 257.93L325.989 257.642C328.766 260.211 329.526 263.9 329.557 264.056L329.174 264.132Z" fill="#53443D"/>
<path d="M329.647 263.892C329.408 260.19 331.662 256.021 331.759 255.847L332.101 256.034C332.077 256.076 329.804 260.279 330.036 263.866L329.647 263.892Z" fill="#53443D"/>
<path d="M331.237 263.378L330.848 263.346C331.071 260.68 333.649 258.141 333.759 258.033L334.03 258.312C334.003 258.336 331.449 260.86 331.237 263.378Z" fill="#53443D"/>
<path d="M328.925 265.087C328.213 263.117 324.694 261.606 324.66 261.59L324.813 261.229C324.965 261.292 328.523 262.824 329.293 264.952L328.927 265.087H328.925Z" fill="#53443D"/>
<path d="M331.554 256.675C331.783 256.775 332.053 256.672 332.153 256.44L332.403 255.873C332.503 255.644 332.4 255.372 332.169 255.272C331.94 255.172 331.67 255.274 331.57 255.506L331.32 256.073C331.221 256.303 331.323 256.574 331.554 256.675Z" fill="#58C540"/>
<path d="M333.236 258.797C333.42 258.969 333.709 258.958 333.88 258.774L334.3 258.32C334.471 258.136 334.46 257.845 334.276 257.674C334.093 257.503 333.804 257.513 333.633 257.698L333.212 258.151C333.042 258.336 333.052 258.626 333.236 258.797Z" fill="#58C540"/>
<path d="M329.817 265.113L329.468 264.939C330.65 262.542 333.977 261.129 334.119 261.07L334.268 261.432C334.234 261.445 330.937 262.85 329.817 265.113Z" fill="#53443D"/>
<path d="M333.354 261.59C333.462 261.817 333.735 261.912 333.961 261.804L334.518 261.535C334.744 261.426 334.839 261.152 334.731 260.925C334.623 260.699 334.35 260.604 334.124 260.712L333.567 260.978C333.341 261.086 333.246 261.361 333.354 261.587V261.59Z" fill="#58C540"/>
<path d="M325.471 257.402C325.293 257.576 325.287 257.867 325.461 258.049L325.892 258.494C326.065 258.673 326.354 258.679 326.536 258.505C326.714 258.331 326.719 258.041 326.546 257.859L326.118 257.413C325.944 257.234 325.655 257.228 325.474 257.402H325.471Z" fill="#58C540"/>
<path d="M324.042 261.089C323.937 261.316 324.037 261.59 324.265 261.695L324.825 261.954C325.051 262.059 325.324 261.959 325.429 261.73C325.534 261.503 325.434 261.229 325.206 261.123L324.646 260.865C324.42 260.759 324.147 260.86 324.042 261.089Z" fill="#58C540"/>
<path d="M328.354 264.38C328.346 264.839 328.813 265.218 329.397 265.226C329.98 265.234 330.458 264.87 330.466 264.412C330.474 263.953 330.006 263.573 329.423 263.565C328.84 263.555 328.361 263.921 328.354 264.38Z" fill="#53443D"/>
<path d="M471.116 155.836C471.116 155.836 468.54 157.771 467.92 158.389C467.3 159.006 467.605 158.979 468.42 159.137C468.843 159.219 469.418 159 469.904 158.787C469.573 160.211 469.368 161.685 469.168 162.315C468.832 163.372 468.238 166.579 469.999 166.489C471.759 166.4 474.087 162.803 474.673 161.02C475.257 159.24 477.314 157.69 477.314 157.69L475.128 154.388C475.128 154.388 472.337 154.61 471.116 155.836Z" fill="#D8C1B5"/>
<path d="M484.921 269.427L488.589 270.798C488.589 270.798 504.52 248.627 506.48 229.118C506.761 226.323 506.74 223.596 506.33 221.017C506.104 219.593 506.13 218.14 506.375 216.722C506.377 216.706 506.38 216.69 506.383 216.674C506.509 215.938 506.664 215.052 506.84 214.034C507.357 211.057 508.07 206.983 508.884 202.342C510.758 191.665 513.188 178.016 515.072 167.982L514.084 167.663L503.392 164.2L501.183 157.157L493.221 155.053C493.221 155.053 491.442 158.544 489.853 175.039C489.558 177.201 489.293 179.587 489.093 182.174C488.473 190.072 488.428 199.868 489.85 211.068C490.215 213.934 490.678 216.896 491.248 219.936C491.668 222.167 491.729 225.205 491.553 228.693C490.751 244.642 484.918 269.425 484.918 269.425L484.921 269.427Z" fill="#6C5950"/>
<path d="M489.096 182.18L506.385 216.674C506.511 215.938 506.666 215.052 506.842 214.034C507.36 211.057 508.072 206.983 508.887 202.342C510.76 191.665 513.191 178.016 515.075 167.982L514.087 167.663L503.395 164.2L501.185 157.157L493.224 155.053C493.224 155.053 491.445 158.544 489.855 175.039C489.561 177.201 489.295 179.587 489.096 182.174V182.18Z" fill="#53443D"/>
<path d="M496.699 159.483L497.099 156.039C503.804 157.827 521.719 151.044 521.719 151.044C521.719 151.044 528.214 156.775 527.363 170.511C526.948 177.217 524.672 208.942 527.329 214.857C536.439 235.159 527.691 271.719 527.691 271.719L524.341 272.75C524.341 272.75 519.223 244.181 515.063 231.557C514.357 229.416 513.681 227.734 513.061 226.729C511.253 223.799 509.574 219.013 508.05 213.32C505.171 202.558 502.853 188.556 501.311 177.749C501.098 177.76 496.699 159.48 496.699 159.48V159.483Z" fill="#6C5950"/>
<path d="M448.565 148.036L449.064 151.406C449.064 151.406 449.285 151.406 449.674 151.377C450.896 151.292 453.865 151.126 457.223 150.765C462.276 150.264 468.269 149.373 470.655 147.896C474.292 145.668 480.259 138.843 484.145 132.019C484.255 131.852 484.34 131.684 484.424 131.518C486.45 127.897 487.866 124.303 487.976 121.434C488.06 119.68 487.866 118.174 487.503 116.866C487.03 115.139 486.255 113.776 485.448 112.745C485.338 112.579 485.228 112.41 485.06 112.27C483.727 110.683 482.424 110.013 482.424 110.013C481.757 109.733 481.037 110.068 480.288 110.875V110.904C479.678 111.545 479.011 112.521 478.372 113.744C478.343 113.773 478.317 113.8 478.317 113.829C478.178 114.079 478.039 114.359 477.873 114.664C477.818 114.72 477.789 114.804 477.763 114.86C477.458 115.5 477.153 116.168 476.846 116.866C473.433 124.332 469.796 135.639 466.772 139.012C465.468 140.46 459.501 143.302 454.753 145.417C451.34 146.92 448.562 148.036 448.562 148.036H448.565Z" fill="#D8C1B5"/>
<path d="M481.008 125.294C481.094 125.526 481.189 125.75 481.294 125.982C484.213 132.293 490.945 159.153 490.945 159.153C500.651 160.786 521.848 158.098 524.67 154.219C524.849 152.281 520.411 141.404 517.163 137.746C516.756 137.287 516.391 136.794 516.073 136.275C515.271 134.969 514.762 133.498 514.599 131.961C513.96 125.895 514.204 120.21 514.149 116.753C513.513 116.281 512.901 115.846 512.328 115.429C511.453 114.788 510.681 114.19 510.113 113.583C509.488 112.921 509.096 112.246 509.049 111.482C509.015 110.904 509.033 110.313 509.094 109.72C509.12 109.441 509.157 109.161 509.199 108.882C509.648 105.947 510.87 103.283 510.87 103.283C507.777 102.028 503.521 101.981 501.863 102.099C484.148 103.378 480.038 110.688 480.038 110.688C483.013 112.623 478.706 119.171 481.005 125.292L481.008 125.294Z" fill="#737A86"/>
<path d="M480.038 110.688C480.038 110.688 477.237 115.59 476.819 116.853C476.819 116.853 480.451 116.713 481.917 119.517C481.917 119.517 482.269 111.35 480.038 110.688Z" fill="#737A86"/>
<path d="M499.301 149.65C506.395 149.576 512.402 142.182 516.073 136.275C515.271 134.969 514.762 133.498 514.599 131.961C513.96 125.895 514.205 120.21 514.149 116.753C513.513 116.281 512.901 115.846 512.328 115.429C511.453 114.788 510.681 114.19 510.113 113.583C504.304 123.438 489.684 149.752 499.301 149.65Z" fill="#58616E"/>
<path d="M513.104 275.608H531.575C531.575 275.608 532.017 272.784 531.052 270.64C530.128 268.583 528.68 267.647 529.027 265.16C527.852 266.373 525.939 267.732 523.27 267.37C522.941 267.903 521.157 270.751 520.064 271.539C518.858 272.41 513.474 272.101 513.104 275.608Z" fill="#D8C1B5"/>
<path d="M473.443 275.608H491.915C491.915 275.608 492.606 272.652 491.392 270.64C490.318 268.86 490.73 267.845 491.526 266.373C490.691 266.716 489.608 267.03 488.415 266.962C487.496 266.909 486.521 266.489 485.669 265.991C484.873 266.901 481.471 270.772 480.406 271.539C479.2 272.41 473.816 272.101 473.446 275.608H473.443Z" fill="#D8C1B5"/>
<path d="M470.986 154.649L471.73 157.526C471.73 157.526 480.955 155.585 482.981 155.14H483.01C486.479 154.304 490.365 153.302 493.641 152.186C495.946 151.379 497.943 150.514 499.304 149.652C499.443 149.568 499.553 149.486 499.693 149.373C502.94 147.005 506.798 140.043 509.796 132.578C510.213 131.547 510.6 130.515 510.989 129.513C512.376 125.779 513.487 122.103 514.152 118.928C514.57 117.035 514.846 115.308 514.901 113.887C514.93 113.386 514.956 112.911 514.93 112.465C514.875 104.388 506.493 107.479 505.465 109.736C503.884 113.33 502.218 117.982 500.665 122.604C499.806 125.139 498.973 127.673 498.14 130.014C497.667 131.436 497.196 132.773 496.752 133.999C495.893 136.338 495.115 138.234 494.422 139.431C493.978 140.212 492.701 141.298 491.008 142.524C488.066 144.668 470.994 154.652 470.994 154.652L470.986 154.649Z" fill="#D8C1B5"/>
<path d="M501.313 115.102C506.655 113.623 514.94 117.547 514.94 117.547C517.142 105.823 510.873 103.286 510.873 103.286C509.265 102.616 503.239 110.77 501.316 115.102H501.313Z" fill="#737A86"/>
<path d="M491.05 71.2173C491.069 70.7163 491.455 65.3105 499.658 65.0283C499.658 65.0283 495.625 65.5109 494.926 67.2909C494.926 67.2909 497.672 65.0916 499.91 65.7983C502.146 66.505 503.46 70.4394 503.473 71.7316C503.486 73.0263 502.244 77.1954 500.825 77.5488C500.286 77.6833 499.669 77.6463 499.106 77.5488C499.485 78.1395 499.855 78.7934 500.207 79.5239C503.481 86.2667 500.105 92.8565 497.333 92.1287C495.556 91.662 495.052 94.7051 495.052 94.7051L477.786 80.6763C477.786 80.6763 484.129 67.5071 491.048 71.2121L491.05 71.2173Z" fill="#53443D"/>
<path d="M498.791 103.948C497.811 101.967 496.077 99.1141 494.613 93.1071L494.117 93.3391L485.798 97.263C485.798 97.263 486.681 99.9791 487.335 102.579C487.845 104.612 487.955 107.004 488.854 107.355C491.061 108.966 498.817 106.063 498.791 103.948Z" fill="#D8C1B5"/>
<path d="M485.798 97.2656C485.798 97.2656 486.683 99.9791 487.335 102.582C492.196 101.221 493.673 96.0921 494.117 93.3417L485.798 97.2656Z" fill="#C5A291"/>
<path d="M484.776 100.14C484.776 100.14 496.408 97.437 494.621 90.1932C492.834 82.9493 493.131 77.7228 485.627 79.1415C478.125 80.5602 477.369 83.6824 477.379 86.2456C477.39 88.8087 481.704 100.657 484.776 100.14Z" fill="#D8C1B5"/>
<path d="M476.725 82.1319C477.975 79.5054 479.447 79.6452 480.367 80.1119C485.832 75.0357 491.195 79.1837 491.195 79.1837C493.257 84.1861 497.73 86.2298 497.73 86.2298C497.73 86.2298 495.943 88.0651 490.764 88.0256C489.182 88.0124 487.592 87.2846 486.145 86.2799C488.935 89.1015 492.209 90.8208 492.209 90.8208C485.727 89.5761 481.607 83.1102 481.16 82.3086C480.177 82.8307 479.389 83.6218 478.858 85.2936C478.257 87.1923 478.43 88.8035 478.669 91.248C478.669 91.248 474.849 86.0689 476.722 82.1319H476.725Z" fill="#53443D"/>
<path d="M461.916 156.912C456.669 159.214 448.733 177.016 447.012 180.887C445.286 184.761 429.886 189.734 427.214 190.265C426.785 190.349 426.42 190.193 426.128 189.835C424.536 187.923 424.938 180.175 429.878 171.086C435.753 160.285 459.619 152.028 459.619 152.028C459.619 152.028 462.728 153.091 463.563 154.47C464.031 155.232 463.792 156.092 461.916 156.914V156.912Z" fill="#45A652"/>
<path d="M463.563 154.467C462.864 154.673 462.095 154.884 461.243 155.09C437.33 160.92 427.214 190.265 427.214 190.265L426.128 189.835C424.536 187.923 424.938 180.175 429.878 171.086C435.753 160.284 459.619 152.028 459.619 152.028C459.619 152.028 462.728 153.091 463.563 154.47V154.467Z" fill="#58C540"/>
<path d="M474.261 152.682C471.06 157.45 473.869 176.745 474.487 180.94C475.099 185.141 464.754 197.622 462.783 199.507C462.468 199.808 462.077 199.874 461.635 199.729C459.268 198.972 455.471 192.216 454.785 181.884C453.976 169.606 469.712 149.795 469.712 149.795C469.712 149.795 472.905 149.022 474.347 149.731C475.149 150.122 475.406 150.976 474.263 152.682H474.261Z" fill="#45A652"/>
<path d="M474.344 149.734C473.864 150.285 473.328 150.876 472.718 151.509C455.647 169.295 462.78 199.51 462.78 199.51L461.632 199.731C459.265 198.975 455.468 192.219 454.782 181.887C453.973 169.609 469.709 149.797 469.709 149.797C469.709 149.797 472.902 149.025 474.344 149.734Z" fill="#58C540"/>
<path d="M464.588 141.675C464.941 140.876 452.62 132.253 446.216 133.712C439.217 135.307 430.28 141.256 434.484 150.182C436.917 155.348 458.847 150.288 460.849 148.497C462.852 146.707 464.588 141.673 464.588 141.673V141.675Z" fill="#DC4D2D"/>
<path d="M461.485 141.412C461.485 141.412 457.194 128.256 465.187 122.802C473.181 117.352 478.257 115.556 480.921 118.367C483.586 121.178 484.755 127.043 482.256 130.719C479.757 134.395 471.226 141.802 471.226 141.802L461.485 141.412Z" fill="#DC4D2D"/>
<path d="M466.388 149.66C466.17 150.654 481.082 162.763 487.643 161.437C494.816 159.989 503.19 153.115 496.907 141.309C493.271 134.476 470.81 139.099 469.026 141.224C467.242 143.35 466.388 149.657 466.388 149.657V149.66Z" fill="#DC4D2D"/>
<path d="M469.833 149.731C469.833 149.731 472.781 168.198 464.04 172.557C455.298 176.916 449.924 177.525 447.515 172.992C445.103 168.457 444.546 160.474 447.494 156.564C450.442 152.65 459.943 145.945 459.943 145.945L469.833 149.734V149.731Z" fill="#DC4D2D"/>
<path d="M461.187 138.773L462.931 137.947C465.241 136.852 468.001 137.846 469.091 140.164L470.299 142.732C471.389 145.05 470.401 147.822 468.089 148.917L466.344 149.743C464.035 150.838 461.273 149.845 460.181 147.525L458.974 144.959C457.884 142.641 458.873 139.869 461.185 138.774L461.187 138.773Z" fill="#8B3333"/>
<path d="M465.08 145.649C465.009 145.341 463.375 138.068 466.294 131.164L467.006 131.467C464.187 138.142 465.816 145.399 465.834 145.473L465.083 145.649H465.08Z" fill="#53443D"/>
<path d="M464.066 145.702C461.561 139.044 454.044 133.334 453.968 133.276L454.43 132.654C454.748 132.891 462.203 138.561 464.786 145.428L464.066 145.699V145.702Z" fill="#53443D"/>
<path d="M461.504 145.802C459.073 141.435 452.415 138.986 452.347 138.959L452.609 138.231C452.893 138.337 459.604 140.802 462.176 145.422L461.504 145.802Z" fill="#53443D"/>
<path d="M466.291 147.047C465.944 142.582 471.113 136.902 471.333 136.66L471.901 137.187C471.848 137.245 466.738 142.859 467.058 146.991L466.291 147.049V147.047Z" fill="#53443D"/>
<path d="M455.471 133.981C455.14 134.35 454.57 134.381 454.199 134.052L453.29 133.234C452.922 132.902 452.891 132.33 453.219 131.958C453.55 131.589 454.12 131.557 454.491 131.887L455.4 132.704C455.768 133.036 455.8 133.609 455.471 133.981Z" fill="#55A741"/>
<path d="M454.17 139.186C453.978 139.645 453.447 139.861 452.993 139.668L451.865 139.194C451.408 139.001 451.193 138.469 451.385 138.012C451.576 137.554 452.107 137.337 452.562 137.53L453.689 138.005C454.146 138.197 454.362 138.73 454.17 139.186Z" fill="#55A741"/>
<path d="M465.474 147.772C461.614 144.597 454.527 144.776 454.454 144.779L454.433 144.006C454.724 144.001 461.879 143.822 465.962 147.171L465.474 147.772Z" fill="#53443D"/>
<path d="M456.23 144.318C456.219 144.813 455.807 145.211 455.31 145.201L454.088 145.175C453.594 145.164 453.198 144.75 453.208 144.252C453.219 143.756 453.631 143.358 454.128 143.368L455.35 143.395C455.844 143.405 456.24 143.819 456.23 144.318Z" fill="#55A741"/>
<path d="M467.029 130.305C467.494 130.473 467.739 130.993 467.573 131.46L467.161 132.615C466.993 133.081 466.475 133.326 466.01 133.16C465.545 132.992 465.3 132.472 465.466 132.005L465.878 130.85C466.047 130.384 466.564 130.138 467.029 130.305Z" fill="#55A741"/>
<path d="M472.605 135.776C472.978 136.101 473.02 136.676 472.697 137.05L471.898 137.978C471.575 138.353 471.002 138.395 470.629 138.071C470.256 137.746 470.214 137.171 470.537 136.797L471.336 135.869C471.659 135.494 472.232 135.452 472.605 135.776Z" fill="#55A741"/>
<path d="M467.513 145.246C467.899 146.068 467.365 147.134 466.322 147.63C465.279 148.123 464.12 147.859 463.734 147.036C463.348 146.214 463.881 145.148 464.924 144.652C465.968 144.159 467.126 144.423 467.513 145.246Z" fill="#53443D"/>
<path d="M551.084 275H0.916056C0.410132 275 0 275.391 0 275.873V277.127C0 277.609 0.410132 278 0.916056 278H551.084C551.59 278 552 277.609 552 277.127V275.873C552 275.391 551.59 275 551.084 275Z" fill="#53443D"/>
</g>
<defs>
<clipPath id="clip0_490_953">
<rect width="552" height="278" fill="white"/>
</clipPath>
<clipPath id="clip1_490_953">
<rect width="52.973" height="20" fill="white" transform="translate(241 165)"/>
</clipPath>
</defs>
</svg>
