<svg width="80" height="80" viewBox="0 0 80 80" fill="none" xmlns="http://www.w3.org/2000/svg">
<g clip-path="url(#clip0_92_520)">
<path d="M79.96 37.69C79.92 37.51 79.88 37.32 79.87 37.14C79.68 34.28 79.16 31.42 78.27 28.41C78.01 27.52 77.45 27.01 76.75 27.01C76.6 27.01 76.45 27.03 76.29 27.07C75.43 27.31 75.08 28.14 75.35 29.28L75.64 30.46C76.02 31.97 76.41 33.54 76.6 35.12C78.11 47.83 74.23 58.59 65.05 67.12C58.01 73.66 49.76 76.98 40.53 76.98C38.32 76.98 36.04 76.79 33.73 76.41C24.82 74.95 17.39 70.67 11.65 63.7C4.41003 54.93 1.71003 44.83 3.61003 33.67C5.25003 24.06 10.01 16.27 17.76 10.53C24.46 5.56001 31.81 3.04001 39.59 3.04001C43.18 3.04001 46.92 3.58001 50.7 4.64001C50.96 4.71001 51.27 4.79001 51.55 4.79001C51.59 4.79001 51.63 4.79001 51.67 4.79001C52.36 4.73001 52.9 4.19001 52.97 3.49001C53.06 2.64001 52.64 2.07001 51.74 1.80001C47.85 0.61001 43.92 0.0100098 40.06 0.0100098C38.72 0.0100098 37.36 0.0800098 36.01 0.23001C27.13 1.19001 19.29 4.76001 12.7 10.82C0.51003 22.03 -3.40997 40.38 3.16003 55.43C8.90003 68.58 19.04 76.65 33.29 79.4C34.25 79.59 35.27 79.71 36.17 79.82H36.29C36.71 79.89 37.13 79.94 37.48 79.99H42.51C42.9 79.94 43.92 79.8 43.92 79.8C44.92 79.67 45.92 79.54 46.91 79.37C62.68 76.77 75.91 64.05 79.07 48.42C79.32 47.2 79.48 45.93 79.64 44.66C79.72 44.05 79.79 43.44 79.88 42.83C79.9 42.67 79.94 42.5 79.97 42.32L80 42.21V37.88L79.97 37.67L79.96 37.69Z" fill="#2972A5"/>
<path d="M42 15.28C42.67 15.28 43.16 14.95 43.38 14.34C43.61 13.71 43.38 12.98 42.84 12.63C42.5 12.41 42.04 12.26 41.61 12.22C41 12.17 40.38 12.15 39.75 12.15C38.05 12.15 36.29 12.34 34.52 12.7C19.88 15.73 10.35 29.71 12.81 44.53C15.03 57.88 26.8 67.59 40.79 67.62C40.97 67.6 41.19 67.59 41.52 67.57C42.27 67.53 43.29 67.47 44.27 67.29C55.87 65.11 63.49 58.3 66.91 47.05C67.75 44.29 68.03 41.36 67.78 38.08C67.71 37.12 67.1 36.47 66.28 36.47C66.23 36.47 66.18 36.47 66.12 36.47C65.69 36.51 65.33 36.69 65.08 36.99C64.8 37.34 64.68 37.83 64.75 38.39C64.99 40.43 64.84 42.59 64.3 45C61.72 56.53 51.81 64.58 40.19 64.58C36.15 64.58 32.23 63.61 28.55 61.69C21.03 57.78 16.16 50.29 15.53 41.67C14.9 33.06 18.61 24.95 25.47 19.99C29.87 16.8 34.7 15.19 39.82 15.19C40.49 15.19 41.17 15.22 41.84 15.27C41.89 15.27 41.95 15.27 42 15.27V15.28Z" fill="#2972A5"/>
<path d="M52.73 20.8C52.73 21.92 52.73 23.05 52.74 24.17C52.74 24.84 52.53 25.35 52.04 25.85C48.32 29.55 44.62 33.25 40.91 36.96L39.41 38.46C39.24 38.63 39.06 38.8 38.91 39C38.6 39.42 38.52 39.93 38.69 40.41C38.86 40.89 39.24 41.23 39.74 41.36C39.87 41.39 40 41.41 40.12 41.41C40.56 41.41 40.96 41.2 41.44 40.71C44.98 37.16 48.52 33.62 52.06 30.09C52.3 29.85 52.54 29.57 52.79 29.28C53.41 28.56 54.05 27.81 54.91 27.47C55.35 27.29 55.85 27.21 56.49 27.21C56.86 27.21 57.25 27.24 57.64 27.27H57.76C58.05 27.3 58.34 27.32 58.62 27.33C58.69 27.29 58.77 27.27 58.85 27.27H60.71C61.12 27.27 61.53 27.27 62 27.27C62.65 27.27 63.16 27.05 63.62 26.59C67.49 22.7 71.36 18.83 75.25 14.96C75.89 14.32 76.06 13.74 75.8 13.08C75.54 12.42 75.04 12.14 74.12 12.14H73.17H70.99C70.38 12.14 69.76 12.14 69.06 12.16C68.8 12.16 68.41 12.13 68.14 11.85C67.86 11.57 67.83 11.18 67.84 10.83C67.86 9.91001 67.86 8.98001 67.85 7.96001C67.85 7.28001 67.85 6.61001 67.85 5.93001C67.86 5.00001 67.6 4.50001 66.94 4.20001C66.74 4.11001 66.55 4.07001 66.36 4.07001C65.93 4.07001 65.49 4.30001 65.02 4.77001L61.29 8.50001C58.68 11.11 56.06 13.73 53.44 16.33C52.93 16.84 52.71 17.38 52.71 18.08C52.71 18.98 52.71 19.89 52.71 20.79L52.73 20.8ZM55.79 18.72C55.79 18.36 56.04 18.06 56.19 17.91C58.47 15.63 60.75 13.35 63.04 11.07L63.75 10.37C63.85 10.27 63.96 10.23 64.03 10.2L64.16 10.15C64.22 10.12 64.29 10.11 64.35 10.11C64.45 10.11 64.55 10.14 64.63 10.19C64.77 10.29 64.85 10.44 64.85 10.61V11.47C64.85 12.11 64.85 12.74 64.85 13.37C64.85 14.61 65.39 15.14 66.64 15.16H67.72H69.56C69.77 15.16 69.95 15.28 70.03 15.47C70.11 15.66 70.07 15.88 69.92 16.02L66.9 19.03L65.61 20.32C64.51 21.42 63.41 22.53 62.29 23.61C61.93 23.96 61.36 24.2 60.88 24.22C60.18 24.24 59.48 24.25 58.77 24.25H56.27C55.99 24.25 55.77 24.01 55.77 23.74V22.63C55.77 21.31 55.77 20.02 55.78 18.72H55.79Z" fill="#2972A5"/>
<path d="M32.75 29.66C34.85 28.15 37.23 27.35 39.81 27.28C40.45 27.26 40.97 27.07 41.29 26.72C41.54 26.45 41.66 26.09 41.64 25.68C41.6 24.78 40.93 24.24 39.88 24.24H39.75C38.94 24.27 38.14 24.36 37.39 24.5C29.33 25.96 23.82 33.17 24.57 41.28C25.31 49.37 32 55.48 40.12 55.5H40.22C42.8 55.5 45.17 54.93 47.25 53.79C52.63 50.87 55.5 46.26 55.78 40.11C55.8 39.59 55.65 39.13 55.35 38.81C55.08 38.52 54.7 38.37 54.27 38.37C53.07 38.37 52.78 39.45 52.74 40.36C52.45 47.15 46.92 52.46 40.15 52.46C39.74 52.46 39.32 52.44 38.9 52.4C33.74 51.91 29.36 48.23 28 43.23C26.62 38.15 28.53 32.69 32.77 29.66H32.75Z" fill="#2972A5"/>
</g>
<defs>
<clipPath id="clip0_92_520">
<rect width="80" height="80" fill="white"/>
</clipPath>
</defs>
</svg>
