<svg width="81" height="80" viewBox="0 0 81 80" fill="none" xmlns="http://www.w3.org/2000/svg">
<g clip-path="url(#clip0_92_540)">
<path d="M79.5772 48.7455C78.565 47.2758 76.8737 46.4353 74.9343 46.4353C74.8341 46.4353 74.734 46.4353 74.6317 46.4419C71.0271 46.6008 64.6189 50.5659 59.4732 53.7514C57.2878 55.1036 55.2221 56.3817 53.6658 57.1852L53.5766 57.2309C52.2401 57.9277 51.5435 58.2107 51.1757 58.2107C50.9711 58.2107 50.8448 58.128 50.773 58.0605L50.5401 57.8362L50.6859 57.5488C51.4129 56.1204 51.4782 54.4678 50.86 53.0176C50.2549 51.5936 49.0512 50.5158 47.558 50.0629C46.5545 49.758 45.5163 49.5251 44.417 49.2768C43.3047 49.0264 42.1533 48.7673 41.0432 48.4276C39.8199 48.0531 38.5835 47.5785 37.3885 47.119C34.7699 46.1131 32.0643 45.0723 29.4044 45.0723C27.7653 45.0723 26.2678 45.4598 24.8333 46.2524L11.9887 53.5903L11.8624 53.6012H11.8428C11.3487 53.6012 11.0135 53.0067 10.5042 52.0356C10.3757 51.7896 10.2277 51.5087 10.1537 51.4129C9.52246 50.5942 8.61478 50.1434 7.60044 50.1434C7.30224 50.1434 6.99532 50.1826 6.69276 50.261C6.26395 50.3764 2.31543 52.5865 1.72337 53.0416C0.478303 53.9996 0.147446 55.563 0.878815 57.0284C2.91838 60.2901 4.79469 63.8067 6.61005 67.2099C8.53207 70.8114 10.5172 74.5347 12.6917 77.938C13.5254 79.2444 14.272 80.0022 15.6085 80.0022C15.8349 80.0022 16.0808 79.9804 16.3377 79.9369C16.9189 79.8367 20.2623 77.9576 21.1591 77.3436C23.7384 75.5777 22.883 73.7704 21.2744 70.9703L20.9196 70.3519L21.4725 70.2082C21.7838 70.1277 22.156 69.8881 22.5151 69.6552C23.0789 69.2915 23.6623 68.9148 24.2913 68.9148C24.3349 68.9148 24.3784 68.9148 24.4219 68.9214H24.448L24.4742 68.9301C27.4497 69.5637 30.5101 70.4869 33.4683 71.3818C36.7747 72.3813 40.1942 73.4155 43.4876 74.0361C44.367 74.2016 45.2224 74.2865 46.0278 74.2865C47.817 74.2865 49.4735 73.8728 50.9536 73.0541C55.0611 70.3541 59.4036 67.7869 63.6046 65.3025C68.193 62.5895 72.9361 59.785 77.3722 56.8085L77.6508 56.6212C78.8001 55.8569 79.5597 55.3518 80.0691 54.0105C80.7743 52.1532 80.5937 50.2371 79.5706 48.7521L79.5772 48.7455ZM21.011 74.2125L21.0198 74.9702L21.0002 75.0333C20.8543 75.5102 19.9096 76.1155 16.7796 77.7246C16.4139 77.914 16.1244 78.0621 15.9742 78.1449L15.837 78.2211L14.9947 78.0686L2.31108 55.8482L2.29802 55.809C2.17612 55.4541 2.2719 55.1689 2.36767 54.962C2.57881 54.5026 3.47561 53.9996 5.33015 53.0416C6.07023 52.6583 6.83642 52.2621 7.09545 52.0574L7.23041 51.9507L8.3231 52.0356L21.011 74.2146V74.2125ZM77.4832 54.6332L77.4549 54.6572L77.4222 54.6768C73.2517 57.1155 69.0898 59.7501 65.0673 62.2977C60.9534 64.9041 56.6979 67.5975 52.4229 70.0906L51.8744 70.4129C49.726 71.6736 48.3046 72.5054 46.0909 72.5054C45.3443 72.5054 44.515 72.4096 43.5551 72.2158C40.2182 71.5364 36.8073 70.5239 33.5096 69.5441C30.3861 68.6165 27.1537 67.6585 23.9996 66.9857L23.967 66.9813L23.9235 66.9617C23.9235 66.9617 23.9104 66.9617 23.9039 66.9617C23.5077 66.9617 22.4868 67.5932 21.8121 68.009C20.9501 68.5425 20.5213 68.7973 20.1926 68.7973C20.0359 68.7973 19.9271 68.7406 19.8618 68.6927L19.7856 68.6361L12.6112 55.7132L12.9529 55.06L13.077 54.9969C14.9598 54.0323 16.8274 52.9 18.6341 51.8048C20.321 50.7814 22.0646 49.7254 23.8233 48.8022L24.1128 48.6497C25.3579 47.9943 26.9077 47.1756 28.3139 46.9296C28.6251 46.8752 28.969 46.8468 29.3325 46.8468C31.7857 46.8468 35.0355 48.0749 37.9022 49.1593C39.1494 49.6318 40.3292 50.0759 41.2978 50.3634C41.8986 50.5419 42.7366 50.7226 43.6225 50.9142C45.1963 51.2539 46.8245 51.6067 47.6973 52.0508C48.6551 52.5386 49.3407 53.5358 49.4887 54.6507C49.628 55.7024 49.2819 56.6887 48.5397 57.3594C47.9737 57.871 46.8005 58.1759 45.993 58.1759C45.9124 58.1759 45.8362 58.1737 45.7644 58.1672C44.1014 58.03 42.2643 57.4073 40.4881 56.8085C38.9709 56.2946 37.5387 55.8112 36.224 55.6087C36.0955 55.5891 35.9693 55.5782 35.8517 55.5782C35.2793 55.5782 34.8722 55.8265 34.7852 56.2293C34.7155 56.5602 34.8809 57.0001 35.4077 57.2505C36.766 57.5597 38.1438 57.9712 39.6022 58.4045C42.6496 59.3125 45.8014 60.2488 48.827 60.2488C50.6337 60.2488 52.2161 59.9156 53.6614 59.2319C56.3431 57.9647 59.0727 56.2206 61.7109 54.5331C64.645 52.6583 67.6772 50.7205 70.7137 49.3835C71.9304 48.8479 73.5194 48.2339 75.03 48.2339C75.5416 48.2339 76.0226 48.3057 76.4601 48.4451C77.5594 48.7978 78.3626 49.7624 78.6129 51.0296C78.885 52.4079 78.4387 53.8233 77.4745 54.6311L77.4832 54.6332Z" fill="#2972A5"/>
<path d="M54.5843 49.7755C54.7476 49.9235 54.9718 50.0041 55.2199 50.0041C55.5399 50.0041 55.8555 49.8669 56.0405 49.6513L74.451 27.1914L74.4815 26.5883L68.3062 15.2658L67.8708 14.9L42.7866 14.8608C42.434 14.9849 42.2207 15.3202 41.9747 15.7056C41.9377 15.7644 41.8985 15.8254 41.8594 15.8842C40.1311 18.5297 37.8434 22.8366 36.4503 25.7173C36.4024 25.8175 36.3545 25.9111 36.3088 26.0004C36.065 26.4751 35.9279 26.7472 36.0628 27.2284L54.5843 49.7733V49.7755ZM51.8809 43.5198L38.9121 27.812H48.4787L52.6383 43.1278L51.883 43.5198H51.8809ZM55.2308 45.7102L50.3419 27.8098H60.1175L55.2286 45.7102H55.2308ZM58.5829 43.6831L57.8276 43.2933L61.9851 27.8142H71.7171L58.5829 43.6853V43.6831ZM72.024 25.9111H63.0604L67.4464 17.7219L72.024 25.9111ZM65.9793 16.5657L61.5106 24.9182L56.8524 16.5657H65.9793ZM59.8018 25.9111H50.675L55.1437 17.5586L59.8018 25.9111ZM53.7811 16.5657L49.0337 24.9051L44.4757 16.5657H53.7789H53.7811ZM43.0108 17.5586L47.5732 25.9133H38.4485L43.0108 17.5586Z" fill="#2972A5"/>
<path d="M44.1254 9.36938C44.33 9.57623 44.5694 9.6851 44.8197 9.6851C45.0962 9.6851 45.3552 9.55011 45.5119 9.32148C45.6969 9.05366 45.7187 8.69656 45.5751 8.31552C45.303 7.59044 43.64 4.72715 43.1437 4.07176C42.8194 3.64281 42.5255 3.43378 42.2491 3.43378C42.2164 3.43378 42.1838 3.43595 42.1489 3.44249C41.8551 3.49257 41.6418 3.62539 41.5199 3.84095C41.3632 4.1153 41.361 4.51159 41.5112 4.90352C41.6614 5.28022 43.8968 9.09067 44.1297 9.37156L44.1254 9.36938Z" fill="#2972A5"/>
<path d="M65.655 9.67202C65.8923 9.67202 66.1317 9.56315 66.345 9.36065C66.665 9.03404 68.7981 5.36076 68.9962 4.78811C69.1334 4.39617 69.1007 3.99989 68.9092 3.72771C68.7655 3.52521 68.5456 3.41852 68.2736 3.41852C68.2039 3.41852 68.1321 3.42505 68.0581 3.43811C67.9579 3.45553 67.7751 3.55569 67.4725 3.92368C67.1199 4.35045 65.1152 7.80381 64.9759 8.21752C64.8257 8.66606 64.8562 9.08412 65.0586 9.36283C65.2001 9.5588 65.4177 9.67202 65.655 9.67202Z" fill="#2972A5"/>
<path d="M55.2089 6.83052C55.5768 6.83052 56.0447 6.62584 56.1492 6.04665C56.3168 5.11472 56.2994 1.97926 56.1884 0.992896C56.1579 0.727253 56.0252 0.350562 55.9185 0.232982C55.7335 0.0304837 55.457 0 55.3112 0C54.9346 0 54.5058 0.202499 54.4427 0.542174C54.3121 1.23894 54.3165 5.39778 54.4514 6.24697C54.5189 6.67592 54.8867 6.83052 55.2111 6.83052H55.2089Z" fill="#2972A5"/>
<path d="M6.5513 55.3344C5.1408 55.6414 5.08639 58.1171 6.84298 58.2455C9.13721 58.4132 8.86077 54.8314 6.5513 55.3344Z" fill="#2972A5"/>
</g>
<defs>
<clipPath id="clip0_92_540">
<rect width="80" height="80" fill="white" transform="translate(0.5)"/>
</clipPath>
</defs>
</svg>
