<svg width="80" height="80" viewBox="0 0 80 80" fill="none" xmlns="http://www.w3.org/2000/svg">
<g clip-path="url(#clip0_92_529)">
<path d="M79.56 77.63L64.35 51.28L64.04 50.73C63.78 50.26 63.51 49.78 63.2 49.34C62.94 48.96 62.57 48.75 62.16 48.75C61.75 48.75 61.38 48.96 61.1 49.33C60.99 49.48 60.89 49.65 60.8 49.82L58.61 53.61C54.18 61.27 49.76 68.93 45.35 76.6C44.99 77.23 44.58 77.47 43.88 77.47C37.68 77.46 31.49 77.45 25.29 77.45H13.58C13.47 77.45 13.38 77.4 13.32 77.31C13.26 77.22 13.26 77.11 13.32 77.01L13.49 76.68C13.59 76.49 13.68 76.32 13.77 76.16L15.82 72.62C17.55 69.64 19.34 66.55 21.05 63.49C21.62 62.48 22.31 62.07 23.51 62.03C26.23 61.95 29.08 61.27 32.21 59.95C36.53 58.12 39.74 54.99 43.19 51.38C43.79 50.75 43.78 50.1 43.16 49.49L42.77 49.11C41.11 47.49 39.4 45.81 37.63 44.26C36.88 43.61 36.05 43.07 35.17 42.49C34.77 42.23 34.37 41.97 33.98 41.7C33.85 41.61 33.81 41.44 33.89 41.3L39.76 31.15C39.81 31.06 39.91 31 40.02 31C40.13 31 40.23 31.06 40.28 31.15L49.58 47.02C49.69 47.22 49.81 47.42 49.95 47.59C50.2 47.91 50.57 48.09 50.94 48.09C51.13 48.09 51.31 48.05 51.48 47.96C52.05 47.67 52.31 47.07 52.12 46.46C52.03 46.17 51.86 45.89 51.7 45.61C50.91 44.26 50.13 42.9 49.34 41.54C47.41 38.19 45.41 34.72 43.32 31.4C41.61 28.69 40.95 26.19 41.26 23.54C41.32 23.02 41.43 22.56 42.1 22.24C46.73 20.05 51.35 17.85 55.98 15.65L59.74 13.86C59.93 13.77 60.12 13.68 60.3 13.57C60.7 13.31 60.94 12.92 60.94 12.5C60.94 12.07 60.71 11.68 60.3 11.41C60.11 11.28 59.9 11.18 59.69 11.09L59.57 11.03C53.75 8.26003 47.94 5.49003 42.11 2.73003C41.73 2.55003 41.25 2.32003 41.26 1.56003C41.26 1.06003 41.12 0.630029 40.85 0.360029C40.64 0.150029 40.36 0.0300293 39.98 0.0300293C39.24 0.0600293 38.76 0.650029 38.73 1.58003C38.73 1.72003 38.73 1.87003 38.73 2.01003V6.71003C38.73 13.47 38.73 20.23 38.71 26.99C38.71 27.52 38.55 28.1 38.27 28.6C37.26 30.4 36.23 32.18 35.2 33.96L31.5 40.36C31.44 40.46 31.34 40.51 31.24 40.51C31.21 40.51 31.18 40.51 31.14 40.49L30.65 40.32C30.33 40.21 30.03 40.11 29.72 40.01C27.13 39.18 24.48 38.76 21.84 38.76C20.01 38.76 18.14 38.96 16.29 39.36C11.49 40.4 7.24 42.73 3.66 46.28C2.78 47.15 1.92 48.09 1.1 49C0.74 49.4 0.37 49.8 0 50.19V50.74C0.39 51.15 0.77 51.56 1.15 51.97C2.02 52.91 2.92 53.88 3.85 54.78C7.78 58.6 12.45 60.96 17.75 61.79C17.91 61.81 18.07 61.85 18.26 61.89L18.55 61.95C18.64 61.97 18.72 62.03 18.76 62.12C18.8 62.21 18.8 62.31 18.75 62.39L18.59 62.68C18.49 62.87 18.39 63.05 18.29 63.22L9.97 77.64C9.31 78.78 9.43 79.31 10.49 79.98H79.1C80.16 79.23 80.24 78.79 79.56 77.61V77.63ZM41.32 5.62003C41.32 5.52003 41.37 5.42003 41.46 5.36003C41.51 5.33003 41.57 5.31003 41.62 5.31003C41.66 5.31003 41.71 5.31003 41.75 5.34003L56.14 12.18C56.25 12.23 56.31 12.34 56.31 12.45C56.31 12.56 56.24 12.67 56.14 12.72L41.75 19.57C41.75 19.57 41.66 19.6 41.62 19.6C41.56 19.6 41.51 19.58 41.46 19.55C41.37 19.49 41.32 19.4 41.32 19.29V5.62003ZM31.68 56.75C34.06 52.52 34.1 48.46 31.8 44.34C31.74 44.24 31.75 44.12 31.81 44.02C31.87 43.94 31.96 43.89 32.06 43.89C32.07 43.89 32.09 43.89 32.1 43.89C33.65 44.1 37.94 47.44 40.31 50.27C40.41 50.39 40.4 50.56 40.3 50.67C37.67 53.47 35.27 55.64 32.08 57.17C32.04 57.19 31.99 57.2 31.95 57.2C31.87 57.2 31.79 57.17 31.73 57.1C31.64 57 31.62 56.86 31.69 56.74L31.68 56.75ZM11.93 56.73C11.99 56.85 11.98 56.99 11.89 57.08C11.83 57.14 11.75 57.18 11.67 57.18C11.63 57.18 11.58 57.18 11.54 57.15C8.11 55.54 5.59 53.06 3.31 50.65C3.2 50.53 3.2 50.35 3.31 50.23C5.46 47.95 8.05 45.37 11.55 43.71C11.59 43.69 11.64 43.68 11.68 43.68C11.76 43.68 11.84 43.71 11.9 43.78C11.99 43.88 12.01 44.02 11.94 44.13C9.56 48.36 9.55 52.48 11.94 56.72L11.93 56.73ZM12.65 50.62C12.58 48.25 13.46 45.98 15.14 44.2C16.85 42.39 19.14 41.36 21.58 41.29H21.83C26.81 41.29 30.83 45.25 30.97 50.31C31.04 52.67 30.16 54.93 28.5 56.68C26.77 58.5 24.44 59.54 21.92 59.6H21.7C16.86 59.6 12.79 55.57 12.64 50.62H12.65ZM76.23 77.25C76.18 77.34 76.08 77.4 75.97 77.4H48.33C48.22 77.4 48.12 77.34 48.07 77.25C48.02 77.16 48.02 77.04 48.07 76.95L61.89 53.01C61.94 52.92 62.04 52.86 62.15 52.86C62.26 52.86 62.36 52.92 62.41 53.01L76.23 76.95C76.28 77.04 76.28 77.16 76.23 77.25Z" fill="#2972A5"/>
<path d="M14.7699 36.23C15.0999 36.55 15.4699 36.71 15.8299 36.71C16.1399 36.71 16.4299 36.59 16.6699 36.36C17.2199 35.83 17.1699 35.06 16.5399 34.41C15.3499 33.18 14.3699 32.2 13.4299 31.32C13.2299 31.13 12.9399 30.99 12.7399 30.89C12.6899 30.86 12.6399 30.84 12.5899 30.82C11.6899 30.82 11.3999 31.19 11.2499 31.55C11.0199 32.08 11.1199 32.57 11.5599 33.02C12.6199 34.1 13.6799 35.18 14.7799 36.24L14.7699 36.23Z" fill="#2972A5"/>
<path d="M27.3101 36.6C27.5001 36.69 27.6801 36.73 27.8601 36.73C28.1801 36.73 28.4901 36.59 28.7801 36.3C30.0301 35.09 31.0501 34.06 32.0001 33.08C32.6101 32.45 32.6601 31.73 32.1501 31.19C31.9101 30.94 31.6101 30.8 31.2901 30.8C30.9301 30.8 30.5401 30.98 30.2101 31.3C29.0201 32.45 27.9901 33.49 27.0601 34.47C26.8801 34.66 26.7501 34.93 26.6601 35.12C26.6401 35.17 26.6201 35.21 26.6001 35.25C26.6201 36.14 26.9601 36.42 27.3301 36.6H27.3101Z" fill="#2972A5"/>
<path d="M20.54 32.75C20.54 32.75 20.54 32.84 20.54 32.88C20.62 33.74 21.09 34.25 21.8 34.25H21.85C22.58 34.22 23.04 33.7 23.06 32.87C23.09 31.42 23.1 29.94 23.06 28.33C23.04 27.45 22.58 26.91 21.8 26.9C21.05 26.9 20.58 27.45 20.54 28.36C20.52 28.84 20.52 29.32 20.53 29.8V30.47V32.74L20.54 32.75Z" fill="#2972A5"/>
<path d="M54.31 51.33C53.65 51.35 53.0599 51.96 53.0699 52.61C53.0899 53.26 53.69 53.84 54.33 53.84H54.36C55.02 53.82 55.61 53.21 55.59 52.56C55.57 51.91 54.98 51.33 54.31 51.33Z" fill="#2972A5"/>
<path d="M21.8401 54.84C24.2601 54.82 26.2201 52.85 26.2101 50.43C26.2101 48.01 24.2301 46.03 21.8001 46.02C20.6301 46.02 19.5201 46.49 18.6801 47.35C17.8401 48.2 17.3901 49.32 17.4001 50.48C17.4401 52.88 19.4101 54.84 21.8001 54.84H21.8301H21.8401ZM20.5001 51.74C20.1501 51.39 19.9601 50.92 19.9701 50.43C19.9701 49.41 20.8001 48.58 21.8201 48.58C22.8401 48.58 23.6601 49.42 23.6601 50.45C23.6601 51.47 22.8301 52.29 21.8101 52.29C21.3101 52.29 20.8501 52.09 20.5001 51.74Z" fill="#2972A5"/>
</g>
<defs>
<clipPath id="clip0_92_529">
<rect width="80" height="79.98" fill="white" transform="translate(0 0.0100098)"/>
</clipPath>
</defs>
</svg>
