<svg width="24" height="24" viewBox="0 0 24 24" fill="none" xmlns="http://www.w3.org/2000/svg">
<rect x="0.25" y="0.25" width="23.5" height="23.5" rx="11.75" fill="#EDE2DD" fill-opacity="0.2"/>
<rect x="0.25" y="0.25" width="23.5" height="23.5" rx="11.75" stroke="#8C7367" stroke-width="0.5"/>
<mask id="mask0_630_191" style="mask-type:alpha" maskUnits="userSpaceOnUse" x="4" y="4" width="16" height="16">
<rect x="4" y="4" width="16" height="16" fill="#D9D9D9"/>
</mask>
<g mask="url(#mask0_630_191)">
<path d="M8.20517 18.3334C7.86839 18.3334 7.58333 18.2167 7.35 17.9834C7.11667 17.75 7 17.465 7 17.1282V9.53852C7 9.20174 7.11667 8.91669 7.35 8.68335C7.58333 8.45002 7.86839 8.33335 8.20517 8.33335H9.5V8.16669C9.5 7.47613 9.744 6.8868 10.232 6.39869C10.7201 5.91069 11.3094 5.66669 12 5.66669C12.6906 5.66669 13.2799 5.91069 13.768 6.39869C14.256 6.8868 14.5 7.47613 14.5 8.16669V8.33335H15.7948C16.1316 8.33335 16.4167 8.45002 16.65 8.68335C16.8833 8.91669 17 9.20174 17 9.53852V17.1282C17 17.465 16.8833 17.75 16.65 17.9834C16.4167 18.2167 16.1316 18.3334 15.7948 18.3334H8.20517ZM8.20517 17.3334H15.7948C15.8462 17.3334 15.8932 17.312 15.9358 17.2692C15.9786 17.2265 16 17.1795 16 17.1282V9.53852C16 9.48719 15.9786 9.44019 15.9358 9.39752C15.8932 9.35474 15.8462 9.33335 15.7948 9.33335H14.5V10.8334C14.5 10.9752 14.4521 11.094 14.3563 11.1897C14.2607 11.2855 14.1419 11.3334 14 11.3334C13.8581 11.3334 13.7393 11.2855 13.6437 11.1897C13.5479 11.094 13.5 10.9752 13.5 10.8334V9.33335H10.5V10.8334C10.5 10.9752 10.4521 11.094 10.3563 11.1897C10.2607 11.2855 10.1419 11.3334 10 11.3334C9.85811 11.3334 9.73933 11.2855 9.64367 11.1897C9.54789 11.094 9.5 10.9752 9.5 10.8334V9.33335H8.20517C8.15383 9.33335 8.10683 9.35474 8.06417 9.39752C8.02139 9.44019 8 9.48719 8 9.53852V17.1282C8 17.1795 8.02139 17.2265 8.06417 17.2692C8.10683 17.312 8.15383 17.3334 8.20517 17.3334ZM10.5 8.33335H13.5V8.16669C13.5 7.7488 13.3545 7.3943 13.0635 7.10319C12.7725 6.81219 12.418 6.66669 12 6.66669C11.582 6.66669 11.2275 6.81219 10.9365 7.10319C10.6455 7.3943 10.5 7.7488 10.5 8.16669V8.33335Z" fill="#53443D"/>
</g>
</svg>
