<svg width="456" height="452" viewBox="0 0 456 452" fill="none" xmlns="http://www.w3.org/2000/svg">
<rect x="0.5" y="0.5" width="455" height="451" rx="15.5" fill="#BDD3E3" stroke="black"/>
<ellipse cx="228" cy="357.543" rx="203.39" ry="27.7147" transform="rotate(-1.38413 228 357.543)" fill="#AAC4D0"/>
<ellipse cx="127.486" cy="388.77" rx="76.7187" ry="10.454" transform="rotate(-1.38413 127.486 388.77)" fill="#94B1C1"/>
<path d="M219.934 329.916C222.454 328.726 226.886 323.916 227.524 322.186C231.772 310.673 241.124 289.633 236.41 277.547C235.605 275.483 225.564 276.573 223.62 275.067C217.05 274.208 214.717 274.317 208.872 270.434C191.617 258.97 210.202 220.954 174.371 221.291C148.125 221.538 130.653 236.254 121.246 198.446C111.839 160.637 60.6918 102.74 29.9754 141.169C12.3479 163.224 45.2861 187.31 41.2586 214.237C37.4313 239.823 52.6527 254.946 80.3596 260.598C108.067 266.25 98.8453 280.466 98.8165 303.614C98.7834 331.42 138.949 323.356 157.174 318.051C171.851 313.779 212.105 312.8 219.933 329.916H219.934Z" fill="url(#paint0_linear_209_1765)"/>
<mask id="mask0_209_1765" style="mask-type:luminance" maskUnits="userSpaceOnUse" x="24" y="128" width="219" height="207">
<path d="M241.336 272.438C241.314 291.588 242.083 311.076 242.165 330.361C232.07 334.554 220.093 339.24 213.675 327.241C204.752 310.558 171.776 313.681 157.135 318.028C139.014 323.406 98.7623 331.394 98.817 303.61C98.8617 280.479 108.066 266.244 80.3616 260.597C52.6575 254.949 37.439 239.823 41.262 214.235C45.2837 187.308 12.357 163.235 29.9802 141.169C60.6865 102.72 111.867 160.673 121.241 198.435C130.615 236.195 148.231 221.677 174.347 221.258C210 220.685 192.068 259.557 208.673 270.131C221.691 278.42 228.397 273.968 241.339 272.438H241.336Z" fill="white"/>
</mask>
<g mask="url(#mask0_209_1765)">
<g style="mix-blend-mode:soft-light" opacity="0.8">
<path d="M231.988 300.998C208.733 297.709 186.331 290.894 165.401 280.743C145.291 270.987 126.511 258.143 109.581 242.568C76.7181 212.332 51.3582 172.28 36.2419 126.744L36.7344 126.581C68.6373 222.692 141.657 287.703 232.061 300.487L231.988 301V300.998Z" fill="#FCFDFE"/>
<path d="M97.4558 315.139L97.1506 314.72C117.404 299.96 155.236 287.5 181.482 286.945L181.494 287.463C155.336 288.017 117.636 300.432 97.4558 315.139Z" fill="#FCFDFE"/>
<path d="M214.282 298.287C201.725 292.661 192.505 280.934 186.876 263.431C182.77 250.657 180.634 235.151 180.531 217.344L181.049 217.341C181.153 235.095 183.279 250.549 187.37 263.272C192.951 280.63 202.078 292.252 214.494 297.815L214.282 298.287Z" fill="#FCFDFE"/>
<path d="M105.074 238.088C82.3856 226.489 55.7817 230.026 37.4587 235.035L37.3219 234.536C55.7327 229.502 82.4749 225.952 105.311 237.627L105.074 238.088Z" fill="#FCFDFE"/>
<path d="M67.6956 192.824C56.7594 165.871 64.7596 136.447 70.502 121.307L70.9872 121.491C65.2722 136.561 57.3051 165.84 68.1751 192.63L67.6956 192.824Z" fill="#FCFDFE"/>
</g>
</g>
<mask id="mask1_209_1765" style="mask-type:luminance" maskUnits="userSpaceOnUse" x="86" y="75" width="143" height="268">
<path d="M183.909 342.878C198.501 341.104 213.08 339.05 227.632 336.721C227.868 336.898 232.651 310.655 217.584 296.894C187.789 270.233 207.859 246.306 213.583 232.127C222.745 212.134 218.049 187.834 191.431 192.385C165.499 196.305 161.565 152.138 166.042 118.113C169.862 101.553 150.976 81.4601 132.128 76.8673C112.887 71.7794 93.6861 82.1927 87.8026 115.203C78.8953 153.422 112.61 176.471 125.094 195.632C137.378 214.443 108.802 229.663 131.802 246.329C151.149 261.138 175.531 271.784 166.612 290.387C157.449 308.779 159.642 323.815 183.909 342.88V342.878Z" fill="white"/>
</mask>
<g mask="url(#mask1_209_1765)">
<path d="M183.909 342.878C198.501 341.104 213.08 339.05 227.632 336.721C227.868 336.898 232.651 310.655 217.584 296.894C187.789 270.233 207.859 246.306 213.583 232.127C222.653 212.148 217.882 190.514 193.304 190.195C166.044 189.399 161.102 152.071 166.042 118.113C169.862 101.553 150.976 81.4601 132.128 76.8673C112.887 71.7794 93.6861 82.1927 87.8026 115.203C78.8953 153.422 112.61 176.471 125.094 195.632C137.378 214.443 108.802 229.663 131.802 246.329C151.149 261.138 175.531 271.784 166.612 290.387C157.449 308.779 159.642 323.815 183.909 342.88V342.878Z" fill="url(#paint1_linear_209_1765)"/>
<g style="mix-blend-mode:soft-light" opacity="0.8">
<path d="M203.451 344.435C203.271 342.735 188.558 286.943 165.499 235.419C162.172 226.701 158.565 217.929 155.077 209.446C145.728 186.705 136.059 163.189 131.464 139.756C126.32 113.531 128.155 89.9061 137.072 67.5322L137.585 67.6718C117.786 117.356 136.148 162.018 155.588 209.303C159.077 217.789 162.686 226.563 166.01 235.275C190.064 289.023 203.995 344.197 203.991 344.43L203.451 344.423L203.72 344.427L203.451 344.437V344.435Z" fill="#FCFDFE"/>
<path d="M138.184 165.366C121.901 150.399 102.262 129.137 91.712 117.715C87.2022 112.833 83.6412 108.976 83.2193 108.742L83.336 108.599L83.2841 108.322C83.6455 108.279 83.9883 108.617 92.1411 117.444C102.687 128.862 122.316 150.114 138.586 165.068L138.184 165.366Z" fill="#FCFDFE"/>
<path d="M133.222 144.868L132.691 144.796C135.265 131.685 141.326 119.923 150.217 110.781C157.276 103.522 164 100.043 165.8 99.3972C166.185 99.259 166.352 99.2389 166.493 99.3166L166.193 99.6879C166.26 99.7239 166.314 99.7196 166.316 99.7196C165.643 99.7786 159.002 102.839 151.709 109.988C145.136 116.431 136.593 127.713 133.223 144.869L133.222 144.868Z" fill="#FCFDFE"/>
<path d="M179.775 270.402C177.466 254.362 181.978 237.119 193.183 219.154C199.019 209.797 206.459 200.633 215.299 191.914C215.763 191.458 216.127 191.096 216.177 191.026L216.644 191.249C216.573 191.35 216.323 191.599 215.712 192.2C203.43 204.315 175.393 236.182 180.31 270.349L179.775 270.402Z" fill="#FCFDFE"/>
<path d="M173.194 253.606C155.918 230.516 119.697 228.888 119.079 228.888H119.073L119.05 228.666L118.964 228.878L118.778 228.659L118.98 228.45C119.292 228.38 156.158 229.989 173.652 253.372L173.194 253.606Z" fill="#FCFDFE"/>
<path d="M201.015 335.43C200.702 328.411 203.72 316.461 219.868 299.396C220.246 298.996 220.575 298.649 220.619 298.582L220.818 298.669L221.135 298.632C221.149 298.717 220.869 299.064 220.294 299.673C204.247 316.63 201.247 328.469 201.556 335.415L201.016 335.432L201.015 335.43Z" fill="#FCFDFE"/>
<path d="M197.309 322.347C193.064 310.231 172.443 301.302 160.527 297.057C160.121 296.912 159.861 296.818 159.767 296.78L160.013 296.382C160.102 296.42 160.353 296.509 160.74 296.647C172.742 300.923 193.522 309.93 197.827 322.222L197.309 322.346V322.347Z" fill="#FCFDFE"/>
</g>
</g>
<path d="M426.897 348.207L66.8244 345.043V354.403C66.8244 356.944 68.3954 359.104 70.5221 359.488L172.34 377.92C173.548 378.139 174.774 378.196 175.993 378.093L422.984 357.077C425.189 356.89 426.897 354.723 426.897 352.113V348.206V348.207Z" fill="#8BA0AE"/>
<path d="M296.227 333.034L70.5466 350.158C66.5076 350.464 63.2246 347.209 63.2246 342.885V169.668C63.2246 165.345 66.5076 161.84 70.5466 161.84H296.227C299.554 161.84 302.244 165.008 302.244 168.917V325.502C302.244 329.41 299.554 332.784 296.227 333.036V333.034Z" fill="#8BA0AE"/>
<path d="M299.825 333.034L74.145 350.157C70.106 350.464 66.823 347.208 66.823 342.884V169.668C66.823 165.344 70.106 161.839 74.145 161.839H299.825C303.153 161.839 305.842 165.007 305.842 168.916V325.502C305.842 329.41 303.153 332.783 299.825 333.035V333.034Z" fill="white"/>
<path d="M292.795 321.994L82.5973 336.868C79.3114 337.101 76.6404 334.428 76.6404 330.899V179.248C76.6404 175.718 79.3114 172.844 82.5973 172.83L292.795 171.896C295.54 171.883 297.76 174.479 297.76 177.694V315.823C297.76 319.038 295.54 321.8 292.795 321.994Z" fill="#956ABD"/>
<path d="M194.956 166.576C194.956 168.185 193.794 169.494 192.36 169.499C190.924 169.504 189.758 168.2 189.758 166.588C189.758 164.976 190.922 163.666 192.36 163.665C193.794 163.665 194.956 164.967 194.956 166.576Z" fill="white"/>
<g style="mix-blend-mode:soft-light" opacity="0.48">
<path d="M245.451 285.527C228.052 275.477 214.373 288.212 201.17 275.647C193.166 268.028 197.095 262.347 187.248 250.964C176.339 238.356 169.237 242.595 158.275 231.246C144.414 216.897 151.346 205.734 139.406 195.432C124.922 182.934 109.301 194.502 95.5119 182.515C89.565 177.345 86.3022 169.831 84.5973 161.838H71.1053C68.7409 161.838 66.8215 163.895 66.8215 166.434V345.989C66.8215 348.527 68.7409 350.438 71.1053 350.258L301.111 332.729C302.24 332.643 303.241 331.936 303.883 330.91C287.046 330.251 276.701 324.191 270.089 317.926C257.154 305.67 259.398 293.585 245.449 285.527H245.451Z" fill="white"/>
</g>
<path d="M308.82 332.258L66.823 350.282L172.339 369.383C173.547 369.602 174.772 369.66 175.992 369.556L426.897 348.208L312.671 332.38C311.393 332.203 310.105 332.162 308.822 332.258H308.82Z" fill="url(#paint2_linear_209_1765)"/>
<path d="M102.134 350.734L303.605 335.505L365.958 344.076L166.224 360.354L102.134 350.734Z" fill="#AFC2CC"/>
<path d="M237.496 104.413C237.496 106.373 234.118 109.062 232.157 109.027L81.6453 106.433C79.7244 106.4 78.2514 104.729 78.2514 102.789V55.2865C78.2514 53.3463 80.9714 50.0157 82.8923 50.0417L232.199 53.8673C234.159 53.8947 235.728 55.5225 235.728 57.4828L237.496 104.413Z" fill="#B0C1D1"/>
<path d="M120.746 105.031L98.8682 104.657L118.931 127.499C119.424 128.06 120.155 128.011 120.892 128.016C123.105 128.031 123.793 125.7 123.751 124.957L120.748 105.031H120.746Z" fill="#B0C1D1"/>
<path d="M237.409 103.479C237.409 105.439 235.943 107.002 233.983 106.968L83.6021 104.396C81.6813 104.363 80.2356 102.764 80.2356 100.823V53.4662C80.2356 51.526 81.7432 49.9744 83.664 50.0003L234.006 52.0269C235.967 52.0528 237.409 53.6648 237.409 55.6251V103.48V103.479Z" fill="white"/>
<path d="M122.587 102.985L100.703 102.613L120.769 125.567C121.265 126.129 122.051 126.414 122.732 126.14C123.413 125.865 123.841 125.045 123.798 124.301L122.587 102.985Z" fill="white"/>
<path d="M101.047 65.6783L104.183 72.0314C104.3 72.2674 104.521 72.4315 104.779 72.4703L111.714 73.5441C112.362 73.6448 112.624 74.4479 112.159 74.9028L107.177 79.7863C106.992 79.9677 106.909 80.2296 106.955 80.4872L108.183 87.4549C108.298 88.1054 107.626 88.5934 107.045 88.281L100.831 84.939C100.6 84.8152 100.327 84.8123 100.098 84.9318L93.9321 88.1558C93.3576 88.4566 92.6794 87.9558 92.7859 87.3081L93.922 80.3692C93.9638 80.1116 93.8774 79.8482 93.6917 79.664L88.6591 74.6984C88.1897 74.2349 88.4417 73.4376 89.0868 73.3483L95.9941 72.3926C96.2504 72.3566 96.4707 72.1969 96.5845 71.9637L99.6385 65.6639C99.9236 65.0767 100.757 65.0824 101.051 65.6754L101.047 65.6783Z" fill="url(#paint3_linear_209_1765)"/>
<path d="M101.353 65.6812L104.49 72.0343C104.606 72.2704 104.828 72.4344 105.086 72.4733L112.02 73.547C112.668 73.6478 112.93 74.4509 112.465 74.9072L107.483 79.7907C107.299 79.972 107.215 80.234 107.261 80.4916L108.49 87.4593C108.605 88.1098 107.931 88.5978 107.352 88.2854L101.137 84.9434C100.907 84.8196 100.633 84.8167 100.405 84.9362L94.2374 88.1602C93.6628 88.461 92.9846 87.9602 93.0912 87.3125L94.2273 80.3736C94.269 80.116 94.1827 79.8526 93.9969 79.6684L88.9629 74.7028C88.4935 74.2393 88.7455 73.4419 89.3906 73.3527L96.2979 72.397C96.5542 72.361 96.7745 72.2013 96.8883 71.9681L99.9423 65.6683C100.227 65.0811 101.061 65.0868 101.355 65.6798L101.353 65.6812Z" fill="url(#paint4_linear_209_1765)"/>
<g style="mix-blend-mode:multiply" opacity="0.3">
<path d="M105.639 83.4548C103.247 81.1533 100.572 81.2569 99.4744 78.6144C98.2447 75.6538 100.809 73.61 100.344 69.9872C100.232 69.1093 99.9366 68.1061 99.2915 67.0122L96.8883 71.972C96.7745 72.2052 96.5542 72.3664 96.2979 72.4009L89.3906 73.3566C88.747 73.4459 88.4935 74.2432 88.963 74.7067L93.9969 79.6723C94.1841 79.8565 94.2691 80.1199 94.2273 80.3775L93.0912 87.3164C92.9847 87.9641 93.6629 88.465 94.2374 88.1641L100.405 84.9401C100.634 84.8207 100.907 84.8235 101.137 84.9473L107.352 88.2894C107.689 88.4707 108.058 88.3815 108.285 88.1469C107.656 85.8713 106.644 84.4248 105.64 83.4576L105.639 83.4548Z" fill="url(#paint5_linear_209_1765)"/>
</g>
<path d="M129.838 66.0959L132.987 72.4605C133.104 72.6965 133.327 72.8606 133.585 72.9009L140.545 73.9775C141.195 74.0782 141.46 74.8828 140.993 75.3391L135.991 80.2312C135.805 80.4126 135.721 80.6745 135.768 80.9336L137 87.9142C137.115 88.5662 136.44 89.0556 135.858 88.7432L129.621 85.3954C129.39 85.2717 129.115 85.2688 128.885 85.3882L122.695 88.618C122.117 88.9188 121.437 88.418 121.544 87.7688L122.684 80.8156C122.726 80.558 122.64 80.2946 122.453 80.1089L117.4 75.1347C116.929 74.6712 117.183 73.871 117.829 73.7817L124.762 72.8246C125.019 72.7886 125.24 72.6289 125.354 72.3942L128.42 66.0815C128.706 65.4928 129.543 65.4986 129.837 66.093L129.838 66.0959Z" fill="url(#paint6_linear_209_1765)"/>
<path d="M130.148 66.0988L133.297 72.4634C133.413 72.6994 133.636 72.8635 133.894 72.9038L140.856 73.9804C141.506 74.0811 141.771 74.8857 141.304 75.342L136.302 80.2341C136.116 80.4155 136.033 80.6774 136.079 80.9365L137.311 87.9171C137.426 88.5691 136.751 89.0585 136.169 88.7461L129.932 85.3983C129.701 85.2746 129.426 85.2717 129.196 85.3911L123.006 88.6209C122.428 88.9217 121.749 88.4209 121.855 87.7717L122.997 80.8185C123.039 80.5609 122.952 80.2975 122.765 80.1118L117.712 75.1361C117.242 74.6727 117.495 73.8724 118.142 73.7832L125.075 72.8261C125.331 72.7901 125.553 72.6303 125.667 72.3957L128.732 66.083C129.019 65.4943 129.855 65.5 130.149 66.0945L130.148 66.0988Z" fill="url(#paint7_linear_209_1765)"/>
<g style="mix-blend-mode:multiply" opacity="0.3">
<path d="M134.449 83.9058C132.048 81.6001 129.363 81.7037 128.261 79.0554C127.027 76.089 129.602 74.0423 129.135 70.411C129.023 69.5316 128.726 68.5255 128.078 67.4302L125.665 72.3986C125.551 72.6318 125.33 72.793 125.073 72.829L118.14 73.7861C117.494 73.8754 117.24 74.6742 117.711 75.1391L122.764 80.1147C122.951 80.2989 123.037 80.5638 122.995 80.8214L121.854 87.7747C121.747 88.4238 122.427 88.9247 123.004 88.6238L129.194 85.3941C129.423 85.2746 129.698 85.2775 129.93 85.4013L136.168 88.7505C136.506 88.9319 136.876 88.8426 137.104 88.608C136.472 86.3267 135.457 84.8788 134.447 83.9101L134.449 83.9058Z" fill="url(#paint8_linear_209_1765)"/>
</g>
<path d="M158.742 66.5145L161.902 72.892C162.019 73.1281 162.243 73.2936 162.503 73.3339L169.491 74.4119C170.143 74.5127 170.408 75.3187 169.94 75.7764L164.919 80.6786C164.733 80.86 164.649 81.1234 164.696 81.3824L165.932 88.3774C166.048 89.0294 165.371 89.5202 164.786 89.2079L158.524 85.8529C158.292 85.7291 158.016 85.7263 157.785 85.8457L151.572 89.0813C150.993 89.3835 150.309 88.8798 150.417 88.2306L151.564 81.2644C151.605 81.0068 151.519 80.742 151.332 80.5577L146.26 75.5734C145.787 75.1085 146.041 74.3083 146.691 74.2191L153.651 73.2605C153.909 73.2245 154.131 73.0633 154.246 72.8301L157.323 66.5059C157.61 65.9157 158.451 65.9229 158.746 66.5174L158.742 66.5145Z" fill="url(#paint9_linear_209_1765)"/>
<path d="M159.051 66.5174L162.212 72.895C162.328 73.131 162.553 73.2965 162.812 73.3368L169.8 74.4149C170.452 74.5156 170.717 75.3216 170.249 75.7793L165.228 80.6816C165.043 80.8629 164.959 81.1263 165.005 81.3854L166.242 88.3804C166.357 89.0324 165.68 89.5232 165.096 89.2108L158.834 85.8558C158.602 85.7321 158.325 85.7292 158.095 85.8486L151.88 89.0842C151.301 89.3864 150.617 88.8827 150.725 88.2336L151.872 81.2674C151.913 81.0097 151.827 80.7449 151.64 80.5607L146.568 75.5764C146.095 75.1115 146.35 74.3112 146.999 74.222L153.959 73.2634C154.217 73.2274 154.44 73.0662 154.554 72.8331L157.631 66.5088C157.918 65.9187 158.759 65.9259 159.054 66.5203L159.051 66.5174Z" fill="url(#paint10_linear_209_1765)"/>
<g style="mix-blend-mode:multiply" opacity="0.3">
<path d="M163.368 84.3589C160.959 82.0488 158.262 82.1525 157.156 79.4998C155.918 76.5277 158.501 74.4767 158.033 70.8396C157.919 69.9587 157.623 68.9512 156.972 67.853L154.55 72.8316C154.436 73.0662 154.214 73.2274 153.955 73.2619L146.995 74.2205C146.345 74.3097 146.092 75.11 146.564 75.5749L151.635 80.5592C151.824 80.7434 151.91 81.0082 151.867 81.2673L150.721 88.2335C150.615 88.8841 151.297 89.3864 151.876 89.0841L158.091 85.8471C158.321 85.7277 158.597 85.7291 158.829 85.8543L165.092 89.2093C165.431 89.3921 165.803 89.3015 166.032 89.0654C165.397 86.7798 164.377 85.3276 163.365 84.3589H163.368Z" fill="url(#paint11_linear_209_1765)"/>
</g>
<path d="M187.754 66.935L190.927 73.324C191.045 73.5615 191.269 73.7256 191.53 73.7659L198.545 74.8468C199.2 74.9476 199.467 75.755 198.996 76.2141L193.956 81.125C193.769 81.3064 193.685 81.5712 193.732 81.8303L194.974 88.8382C195.089 89.4917 194.41 89.9839 193.824 89.6701L187.538 86.3079C187.305 86.1827 187.029 86.1813 186.797 86.3007L180.559 89.5435C179.977 89.8457 179.292 89.342 179.4 88.6914L180.55 81.7123C180.594 81.4532 180.506 81.1884 180.317 81.0041L175.226 76.0098C174.751 75.5434 175.005 74.7417 175.658 74.6525L182.644 73.6925C182.903 73.6565 183.127 73.4953 183.24 73.2607L186.329 66.9249C186.617 66.3334 187.461 66.3405 187.757 66.9364L187.754 66.935Z" fill="url(#paint12_linear_209_1765)"/>
<path d="M188.065 66.9374L191.238 73.3279C191.356 73.5654 191.58 73.7295 191.841 73.7698L198.856 74.8507C199.511 74.9515 199.778 75.7589 199.307 76.218L194.266 81.1289C194.079 81.3103 193.995 81.5751 194.041 81.8342L195.284 88.8421C195.399 89.4956 194.719 89.9878 194.133 89.674L187.847 86.3118C187.613 86.1866 187.337 86.1852 187.105 86.3046L180.867 89.5474C180.286 89.8496 179.6 89.3459 179.708 88.6953L180.859 81.7162C180.902 81.4571 180.814 81.1923 180.625 81.008L175.534 76.0137C175.059 75.5473 175.314 74.7456 175.966 74.6564L182.954 73.6964C183.213 73.6604 183.436 73.4992 183.55 73.2646L186.638 66.9288C186.926 66.3373 187.77 66.3445 188.067 66.9403L188.065 66.9374Z" fill="url(#paint13_linear_209_1765)"/>
<g style="mix-blend-mode:multiply" opacity="0.3">
<path d="M192.4 84.8139C189.981 82.4995 187.275 82.6031 186.165 79.9447C184.922 76.9668 187.515 74.9115 187.045 71.2672C186.931 70.3849 186.633 69.3745 185.979 68.2749L183.547 73.2621C183.433 73.4967 183.21 73.6579 182.951 73.6939L175.963 74.6539C175.311 74.7431 175.056 75.5462 175.531 76.0111L180.622 81.0055C180.811 81.1912 180.899 81.456 180.856 81.7136L179.705 88.6928C179.599 89.3434 180.283 89.8471 180.864 89.5449L187.102 86.3021C187.334 86.1827 187.61 86.1841 187.844 86.3093L194.13 89.6715C194.472 89.8543 194.845 89.7636 195.074 89.5276C194.437 87.2377 193.413 85.7825 192.397 84.811L192.4 84.8139Z" fill="url(#paint14_linear_209_1765)"/>
</g>
<path d="M216.88 67.3579L220.065 73.7599C220.183 73.9974 220.409 74.1629 220.67 74.2032L227.711 75.2856C228.369 75.3863 228.635 76.1966 228.163 76.6558L223.103 81.5767C222.916 81.7595 222.831 82.0229 222.877 82.2834L224.124 89.3043C224.241 89.9592 223.558 90.4515 222.968 90.1377L216.658 86.7697C216.425 86.6445 216.145 86.6431 215.914 86.7625L209.651 90.011C209.067 90.3133 208.38 89.8095 208.486 89.1561L209.641 82.164C209.684 81.9049 209.597 81.6386 209.407 81.4544L204.295 76.45C203.818 75.9836 204.075 75.1791 204.728 75.0898L211.742 74.1284C212.003 74.0924 212.226 73.9312 212.341 73.6951L215.443 67.3464C215.732 66.7534 216.579 66.7606 216.877 67.3579H216.88Z" fill="#B0C1D1"/>
<path d="M217.192 67.3594L220.377 73.7614C220.495 73.9989 220.721 74.1644 220.982 74.2047L228.025 75.287C228.683 75.3878 228.949 76.1981 228.477 76.6572L223.417 81.5782C223.23 81.761 223.145 82.0244 223.191 82.2849L224.438 89.3072C224.554 89.9621 223.87 90.4544 223.282 90.1406L216.97 86.7726C216.737 86.6474 216.458 86.646 216.226 86.7654L209.964 90.0139C209.379 90.3162 208.692 89.8124 208.799 89.159L209.954 82.1654C209.997 81.9064 209.909 81.6401 209.719 81.4559L204.607 76.4514C204.131 75.9851 204.387 75.1805 205.041 75.0913L212.055 74.1298C212.315 74.0939 212.538 73.9327 212.654 73.6966L215.755 67.3479C216.045 66.7549 216.891 66.7621 217.189 67.3594H217.192Z" fill="#B0C1D1"/>
<g style="mix-blend-mode:multiply" opacity="0.3">
<path d="M221.544 85.2718C219.116 82.9531 216.399 83.0567 215.284 80.3926C214.036 77.4089 216.639 75.3507 216.168 71.6978C216.055 70.8126 215.755 69.8022 215.098 68.6997L212.658 73.697C212.543 73.9316 212.319 74.0942 212.059 74.1302L205.045 75.0916C204.391 75.1809 204.135 75.9854 204.612 76.4518L209.723 81.4562C209.913 81.6419 210 81.9067 209.958 82.1658L208.803 89.1579C208.695 89.8099 209.383 90.3151 209.968 90.0128L216.23 86.7643C216.462 86.6434 216.74 86.6463 216.975 86.7715L223.286 90.1395C223.629 90.3223 224.003 90.2316 224.233 89.9956C223.594 87.7013 222.566 86.2433 221.546 85.2704L221.544 85.2718Z" fill="#B0C1D1"/>
</g>
<mask id="mask2_209_1765" style="mask-type:luminance" maskUnits="userSpaceOnUse" x="69" y="106" width="265" height="230">
<path d="M277.288 322.745L99.8098 335.132L69.2155 216.066L140.242 106.161L333.38 148.043L277.288 322.745Z" fill="white"/>
</mask>
<g mask="url(#mask2_209_1765)">
<path d="M230.612 186.363C230.612 186.363 264.992 216.953 285.167 205.749C305.342 194.546 290.398 169.593 290.398 169.593C290.398 169.593 283.979 161.51 295.724 163.439C308.581 165.552 321.035 159.299 321.035 159.299L314.316 166.378C312.067 168.747 309.019 170.195 305.762 170.442L300.61 170.832C300.61 170.832 327.013 224.421 288.904 235.626C250.794 246.83 218.621 220.688 218.621 220.688L230.611 186.363H230.612Z" fill="url(#paint15_linear_209_1765)"/>
<path d="M185.471 132.182C182.841 130.553 182.925 127.045 182.958 125.659C183.037 122.382 184.69 117.112 188.312 116.466C191.222 115.946 193.607 118.731 193.9 119.083C196.887 122.672 194.893 127.563 194.676 128.073C194.19 129.214 193.184 131.57 190.637 132.539C190.457 132.608 187.746 133.592 185.47 132.183L185.471 132.182Z" fill="url(#paint16_linear_209_1765)"/>
<g style="mix-blend-mode:multiply" opacity="0.3">
<path d="M191.222 125.543C189.81 123.176 186.916 123.31 186.226 121.31C185.881 120.31 186.107 118.833 187.906 116.561C184.566 117.514 183.033 122.505 182.958 125.658C182.924 127.043 182.839 130.552 185.471 132.18C187.747 133.59 190.459 132.605 190.638 132.537C190.75 132.494 190.858 132.448 190.964 132.4C191.914 130.023 192.377 127.475 191.223 125.542L191.222 125.543Z" fill="url(#paint17_linear_209_1765)"/>
</g>
<path d="M166.264 197.424C166.264 197.424 163.965 158.666 167.469 145.208C170.975 131.75 184.075 129.539 189.613 129.637C195.149 129.734 205.86 133.949 205.362 149.985C204.865 166.017 193.659 199.368 193.659 199.368L166.262 197.426L166.264 197.424Z" fill="url(#paint18_linear_209_1765)"/>
<g style="mix-blend-mode:soft-light" opacity="0.3">
<path d="M183.963 164.25C192.529 163.202 194.428 155.118 202.302 154.183C203.064 154.092 203.922 154.066 204.87 154.159C204.752 152.625 204.605 151.151 204.424 149.756C203.352 149.625 202.391 149.645 201.546 149.747C193.671 150.68 191.772 158.764 183.206 159.809C176.219 160.662 173.102 155.821 167.19 157.927C165.667 158.47 164.379 159.324 163.295 160.312C163.541 161.717 163.825 163.18 164.139 164.677C165.205 163.722 166.464 162.899 167.947 162.37C173.858 160.263 176.976 165.102 183.962 164.248L183.963 164.25Z" fill="white"/>
</g>
<path style="mix-blend-mode:multiply" opacity="0.3" d="M202.055 158.532C194.861 157.502 191.278 164.869 183.445 163.777C177.058 162.887 175.436 157.43 169.705 158.019C168.268 158.167 166.96 158.655 165.79 159.319C165.58 163.641 165.512 168.306 165.526 172.839C166.455 172.414 167.46 172.111 168.538 171.999C174.269 171.406 175.891 176.862 182.279 177.747C190.111 178.834 193.694 171.466 200.888 172.492C201.074 172.518 202.753 158.631 202.056 158.531L202.055 158.532Z" fill="url(#paint19_linear_209_1765)"/>
<path d="M138.869 195.062C96.6848 206.034 77.065 245.561 87.0667 271.71C93.9045 289.591 114.861 301.91 138.74 303.561C139.494 301.525 140.25 299.491 141.005 297.455C137.057 296.614 129.628 294.456 122.643 288.403C114.743 281.555 108.671 270.814 108.854 260.809C109.166 243.849 127.504 226.147 154.027 223.795C148.974 214.217 143.922 204.64 138.87 195.063L138.869 195.062Z" fill="url(#paint20_linear_209_1765)"/>
<path d="M130.407 195.026C133.732 204.515 137.755 211.34 140.744 215.748C150.935 230.781 164.78 243.327 164.78 243.327C170.12 248.166 172.01 249.208 172.75 252.29C174.836 260.971 163.863 269.436 155.813 277.686C155.813 277.686 131.301 302.809 125.176 338.186C123.462 348.085 122.35 366.304 133.147 390.47C138.027 385.956 146.087 379.751 157.235 376.802C190.146 368.097 212.339 397.737 253.205 399.683C265.71 400.278 283.906 398.467 306.508 386.487C304.223 378.832 299.648 367.156 289.819 356.611C267.204 332.347 241.189 340.264 226.135 317.746C216.559 303.421 217.586 286.005 218.289 274.053C219.365 255.814 225.252 248.919 229.292 226.148C232.233 209.573 232.231 195.657 231.783 186.562C220.44 184.578 206.574 183.152 190.801 183.66C165.722 184.469 145.061 189.867 130.407 195.026Z" fill="url(#paint21_linear_209_1765)"/>
<path d="M180.345 165.992C180.345 165.992 181.259 179.416 172.892 183.018C164.526 186.621 147.342 189.88 147.342 189.88L181.141 196.519C189.235 198.108 197.629 196.786 204.841 192.787L218.621 185.146L198.538 181.355C193.652 180.432 189.834 176.608 188.921 171.722L187.66 164.972L180.344 165.992H180.345Z" fill="url(#paint22_linear_209_1765)"/>
<path style="mix-blend-mode:multiply" opacity="0.3" d="M231.658 383.251C203.852 380.559 169.149 362.988 162.538 334.702C157.111 311.485 173.139 285.801 180.846 273.454C196.931 247.681 213.486 240.203 210.362 231.626C205.796 219.093 169.244 231.782 144.605 210.339C139.152 205.593 135.239 200.009 132.404 194.34C131.732 194.569 131.057 194.798 130.408 195.027C133.733 204.516 137.757 211.34 140.745 215.748C150.937 230.781 164.781 243.328 164.781 243.328C170.121 248.166 172.012 249.208 172.752 252.29C174.836 260.971 163.864 269.436 155.815 277.686C155.815 277.686 131.303 302.809 125.178 338.187C123.464 348.085 122.352 366.304 133.148 390.471C138.029 385.956 146.089 379.75 157.236 376.802C190.148 368.097 212.34 397.737 253.206 399.683C265.711 400.278 283.906 398.468 306.509 386.488C303.052 381.55 298.286 374.182 293.57 364.682C278.685 375.586 257.441 385.747 231.659 383.251H231.658Z" fill="url(#paint23_linear_209_1765)"/>
<path d="M137.919 302.844C137.919 302.844 141.488 288.774 147.342 290.078C153.197 291.381 159.175 295.336 159.175 295.336C159.175 295.336 144.418 297.824 137.918 302.845L137.919 302.844Z" fill="url(#paint24_linear_209_1765)"/>
<path d="M190.23 221.298C187.352 220.596 194.585 196.618 195.161 158.835C195.281 150.998 195.083 144.532 194.888 140.172C198.039 140.566 201.19 140.961 204.339 141.355C207.018 152.9 210.034 173.874 202.213 198.035C198.536 209.395 192.348 221.815 190.231 221.298H190.23Z" fill="url(#paint25_linear_209_1765)"/>
<path d="M174.583 150.125C174.384 152.503 171.826 169.871 185.441 170.394C197.876 170.871 197.853 158.12 198.023 151.727C198.023 151.727 197.935 145.973 193.883 144.179C193.883 144.179 197.485 147.607 196.833 154.686C196.833 154.686 196.183 150.871 187.073 150.386C177.956 149.901 175.712 153.86 175.712 153.86C175.712 153.86 174.669 146.975 179.609 143.615C179.609 143.615 176.232 144.486 174.583 150.125Z" fill="url(#paint26_linear_209_1765)"/>
</g>
<path d="M335.192 159.78H335.368C335.375 159.78 335.385 159.772 335.385 159.815C335.385 163.013 322.134 165.558 305.791 165.558C304.078 165.558 302.399 165.506 300.767 165.452C286.816 164.986 276.197 162.689 276.197 159.827C276.197 159.784 276.207 159.78 276.214 159.78H276.082V112.423C276.082 98.3556 284.304 86.4265 295.557 82.445C298.164 81.5208 300.996 81.0034 303.876 81.0034H307.705C322.993 81.0034 335.19 95.0915 335.19 112.423V159.78H335.192Z" fill="url(#paint27_linear_209_1765)"/>
<path d="M292.651 60.4131V84.136H292.742C293.646 85.0316 299.074 85.3201 305.639 85.3201C312.204 85.3201 317.632 85.0316 318.535 84.136H318.624V60.4131H292.653H292.651Z" fill="url(#paint28_linear_209_1765)"/>
<path d="M305.639 61.7035C312.835 61.7035 318.669 61.0848 318.669 60.3217C318.669 59.5586 312.835 58.9399 305.639 58.9399C298.442 58.9399 292.608 59.5586 292.608 60.3217C292.608 61.0848 298.442 61.7035 305.639 61.7035Z" fill="url(#paint29_linear_209_1765)"/>
<path d="M327.564 131.558C327.519 134.172 325.606 136.361 323.289 136.428C311.393 136.771 299.493 136.771 287.599 136.428C285.283 136.361 283.369 134.172 283.323 131.558C283.265 128.008 283.206 124.457 283.148 120.907C283.104 118.292 284.975 116.243 287.331 116.311C299.405 116.659 311.483 116.659 323.556 116.311C325.913 116.243 327.784 118.293 327.74 120.907C327.681 124.457 327.623 128.008 327.564 131.558Z" fill="url(#paint30_linear_209_1765)"/>
<path style="mix-blend-mode:multiply" opacity="0.3" d="M300.767 165.428C286.816 164.962 276.197 162.677 276.197 159.815C276.197 159.772 276.207 159.78 276.214 159.78H276.082V112.422C276.082 98.3549 284.304 86.4467 295.557 82.4639C293.178 85.3327 281.929 100.119 287.658 116.171C289.893 122.439 289.337 129.481 288.66 136.301C287.414 148.868 285.82 160.67 300.766 165.426L300.767 165.428Z" fill="url(#paint31_linear_209_1765)"/>
<path d="M290.047 309.535C290.011 311.403 288.905 312.972 287.571 313.04L121.593 321.507C119.799 321.599 118.346 319.911 118.353 317.738V317.028C118.362 314.853 119.826 313.026 121.622 312.946L287.712 305.646C289.046 305.587 290.096 307.055 290.06 308.925L290.048 309.534L290.047 309.535Z" fill="#B0C1D1"/>
<path d="M228.896 312.455C228.87 314.433 227.74 316.091 226.247 316.167L121.593 321.506C119.799 321.598 118.346 319.91 118.353 317.736V317.027C118.362 314.852 119.826 313.024 121.622 312.945L226.35 308.342C227.845 308.276 228.932 309.832 228.906 311.809L228.897 312.454L228.896 312.455Z" fill="url(#paint32_linear_209_1765)"/>
<path d="M111.904 311.045C111.908 308.962 109.946 307.35 107.509 307.445L91.735 308.059C89.2267 308.157 87.1992 309.959 87.1992 312.084V326.15C87.1992 328.267 89.2223 329.869 91.7264 329.728L107.476 328.839C109.907 328.702 111.871 326.909 111.875 324.832L111.904 311.043V311.045Z" fill="url(#paint33_linear_209_1765)"/>
<g style="mix-blend-mode:soft-light" opacity="0.9">
<path d="M106.89 315.584L96.4033 311.098C95.198 310.681 93.7624 311.55 93.7495 312.713L93.6185 324.685C93.6026 326.087 95.4169 326.696 96.6668 325.708L107.26 318.228C108.288 317.412 108.085 315.997 106.89 315.584Z" fill="white"/>
</g>
<ellipse cx="327.787" cy="384.839" rx="64.2808" ry="8.75914" transform="rotate(-1.38413 327.787 384.839)" fill="#94B1C1"/>
<path d="M330.528 279.41C330.528 279.41 330.528 277.345 329.355 276.12C328.181 274.896 327.263 272.601 327.289 273.85C327.314 275.099 327.672 276.681 327.672 276.681C327.672 276.681 326.242 277.114 327.289 278.644C328.335 280.174 330.97 281.543 330.528 279.41Z" fill="url(#paint34_linear_209_1765)"/>
<path d="M375.952 377.987C376.75 379.26 376.626 379.856 376.488 380.125C376.086 380.918 374.856 380.338 371.878 381.008C371.529 381.088 370.863 381.249 370.001 381.139C369.261 381.044 368.371 380.749 368.387 380.552C368.392 380.48 368.518 380.438 368.565 380.424C369.383 380.158 374.455 378.003 374.455 378.003L375.952 377.986V377.987Z" fill="url(#paint35_linear_209_1765)"/>
<path d="M376.046 374.998L375.892 378.044C375.892 378.044 374.699 379.089 374.244 378.019C373.917 377.251 373.7 375.107 373.7 375.107L376.044 374.998H376.046Z" fill="url(#paint36_linear_209_1765)"/>
<path d="M360.994 378.071L362.618 381.39L364.425 380.905L363.665 377.754L360.994 378.071Z" fill="url(#paint37_linear_209_1765)"/>
<path d="M363.39 383.231C364.169 382.084 364.973 382.095 365.058 381.354C365.124 380.771 364.702 380.109 364.148 379.899C363.369 379.604 362.533 380.279 362.345 380.432C361.063 381.469 361.583 382.828 360.351 383.569C360.103 383.719 359.703 383.892 359.309 384.345C359.142 384.538 358.729 385.016 358.867 385.299C359.027 385.629 359.844 385.531 360.62 385.439C361.551 385.328 362.017 385.273 362.437 384.947C363.019 384.493 362.791 384.116 363.392 383.231H363.39Z" fill="url(#paint38_linear_209_1765)"/>
<path d="M378.381 302.282C378.77 309.289 378.394 315.344 377.765 320.314C377.088 325.661 376.517 326.622 376.47 330.284C376.371 338.253 379.015 339.173 380.223 348.071C381.558 357.895 379.584 365.955 378.8 369.033C378.115 371.723 377.346 373.913 376.757 375.439C375.917 376.302 374.508 376.114 373.025 375.938C371.745 367.033 370.377 358.665 369.097 349.76C366.247 336.44 363.396 323.12 360.546 309.8C366.49 307.294 372.436 304.788 378.38 302.282H378.381Z" fill="url(#paint39_linear_209_1765)"/>
<path style="mix-blend-mode:multiply" opacity="0.3" d="M373.025 375.939C371.745 367.034 370.377 358.666 369.097 349.761C366.247 336.441 363.396 323.121 360.546 309.801C366.49 307.295 372.436 304.789 378.38 302.283C378.406 302.747 378.419 303.196 378.439 303.652C370.483 311.804 369.294 317.838 369.711 321.852C370.217 326.721 373.085 328.917 373.151 336.03C373.197 341.117 371.752 342.135 372.13 346.696C372.619 352.571 375.415 355.664 376.925 358.957C378.386 362.139 379.193 366.752 377.447 373.552C377.202 374.26 376.969 374.893 376.757 375.438C375.917 376.302 374.508 376.113 373.025 375.938V375.939Z" fill="url(#paint40_linear_209_1765)"/>
<path d="M368.12 309.913C364.257 317.868 362.257 324.043 361.207 327.839C360.568 330.157 360.012 332.56 360.093 335.645C360.191 339.424 361.196 342.454 362.009 344.38C363.164 346.838 364.263 349.724 365.075 353.021C367.71 363.713 365.923 372.992 364.369 378.37C363.317 378.863 362.264 379.355 361.212 379.846C358.182 373.172 354.359 363.664 351.198 351.811C349.472 345.337 348.141 340.258 347.59 333.712C347.008 326.807 347.085 315.804 351.655 302.285C357.142 304.826 362.631 307.37 368.119 309.913H368.12Z" fill="url(#paint41_linear_209_1765)"/>
<path d="M360.654 250.348C353.846 252.105 348.691 253.775 346.644 257.584C344.481 261.609 348.661 264.156 350.428 272.447C353.132 285.138 346.151 290.542 349.347 303.281C350.422 307.573 352.182 310.817 353.367 312.733C355.75 314.368 359.502 316.555 364.454 317.841C371.66 319.709 374.996 317.999 384.462 317.757C399.945 317.36 402.624 321.638 409.358 318.313C416.165 314.953 420.636 307.029 418.877 303.946C417.825 302.101 415.105 303.533 410.866 301.51C405.403 298.904 405.934 294.685 401.411 291.479C394.914 286.873 389.5 292.516 383.938 288.504C378.311 284.445 376.777 273.568 378.472 266.878C379.578 262.508 379.222 257.884 379.943 253.435C380.004 253.065 380.027 252.482 379.746 251.845C378.678 249.411 374.05 249.309 370.555 249.265C365.225 249.199 361.217 250.204 360.657 250.348H360.654Z" fill="url(#paint42_linear_209_1765)"/>
<path style="mix-blend-mode:multiply" opacity="0.3" d="M408.146 313.513C405.894 312.268 406.716 308.144 403.378 306.267C400.281 304.526 398.209 307.311 393.775 306.345C388.091 305.106 387.938 299.746 382.484 298.483C378.561 297.575 377.611 300.108 372.109 300.671C366.617 301.232 359.216 299.56 354.166 294.109C352.021 291.794 350.717 289.24 349.924 286.847C348.847 291.719 347.63 296.444 349.345 303.281C350.421 307.573 352.18 310.817 353.365 312.732C355.749 314.367 359.501 316.555 364.453 317.839C371.658 319.707 374.995 317.997 384.461 317.756C399.944 317.358 402.622 321.636 409.357 318.311C413.707 316.164 417.093 312.155 418.519 308.736C412.795 313.668 409.78 314.418 408.146 313.514V313.513Z" fill="url(#paint43_linear_209_1765)"/>
<path d="M360.091 239.85C360.091 239.85 357.416 242.905 356.726 245.326C356.037 247.747 358.843 248.215 358.843 248.215L358.378 249.735C357.98 251.033 356.857 251.976 355.511 252.141L354.326 252.288C354.326 252.288 361.089 255.475 365.619 253.637L364.525 253.265C362.974 252.74 362.009 251.194 362.218 249.572L362.304 248.896C362.304 248.896 365.323 241.552 360.091 239.851V239.85Z" fill="url(#paint44_linear_209_1765)"/>
<path d="M347.743 256.246C346.475 257.211 344.586 258.869 343.028 261.391C338.592 268.565 341.332 275.429 337.349 278.373C336.21 279.215 334.141 280.018 330.152 279.061L328.76 280C328.76 280 327.916 289.342 339.073 288.522C350.229 287.703 354.326 273.304 354.326 273.304L347.743 256.246Z" fill="url(#paint45_linear_209_1765)"/>
<path d="M361.399 243.501C361.777 243.516 362.145 243.077 362.385 243.248C362.637 243.428 362.523 244.117 362.231 244.576C361.991 244.952 361.651 245.141 361.464 245.224C361.705 245.659 361.999 246.326 362.055 247.16C362.179 249.004 361.046 250.339 360.546 251.141C358.29 254.752 360.363 261.137 363.068 264.558C365.265 267.34 366.549 266.481 367.796 268.687C370.223 272.982 365.703 276.843 366.565 282.335C367.878 290.686 380.352 294.616 380.871 294.772C381.075 294.834 381.212 294.873 381.425 294.933C387.041 296.526 395.554 298.943 402.228 294.976C407.22 292.008 410.049 286.143 410.347 280.714C410.427 279.286 410.64 273.856 406.781 268.941C406.169 268.161 402.539 263.551 396.976 262.835C394.03 262.455 393.31 263.424 391.132 262.511C388.148 261.262 386.582 258.228 385.61 256.347C383.823 252.885 384.786 252.307 383.412 250.545C380.721 247.094 376.84 249.087 373.899 245.972C370.997 242.902 373.377 239.493 370.545 236.798C367.624 234.018 361.386 234.121 359.736 236.818C358.317 239.136 360.235 243.457 361.397 243.498L361.399 243.501Z" fill="url(#paint46_linear_209_1765)"/>
<path d="M346.094 252.292C346.844 252.575 358.284 257.122 360.636 269.057C360.826 270.021 362.663 280.275 355.707 287.519C347.905 295.641 332.885 295.441 326.923 288.65C325.532 287.067 324.799 285.311 324.388 283.837L325.959 279.665C327.876 277.352 330.487 276.803 331.88 276.459C335.316 275.613 337.911 277.143 339.879 275.486C340.968 274.569 341.184 273.251 341.378 272.072C342.036 268.059 339.77 265.588 339.606 263.114C339.482 261.265 338.834 257.21 341.25 254.566C342.779 252.892 344.899 252.436 346.095 252.289L346.094 252.292Z" fill="url(#paint47_linear_209_1765)"/>
<path d="M350.552 385.299C350.686 384.565 353.059 383.898 354.234 384.883C354.817 385.371 355.219 386.363 354.882 386.809C354.759 386.971 355.262 387.258 354.779 387.264C353.18 387.282 350.418 386.029 350.55 385.297L350.552 385.299Z" fill="url(#paint48_linear_209_1765)"/>
<path d="M353.039 385.567L355.479 385.222C354.349 383.86 354.558 379.526 354.558 379.526L351.961 380.105C351.961 380.105 352.257 381.295 352.761 383.05C352.933 383.65 353.01 384.591 353.039 385.567Z" fill="url(#paint49_linear_209_1765)"/>
<path d="M352.823 385.266C352.823 385.266 355.762 384.59 356.08 385.173C356.398 385.756 356.644 387.316 354.779 387.266C352.915 387.215 352.657 385.762 352.823 385.266Z" fill="url(#paint50_linear_209_1765)"/>
<path d="M317.055 388.054C317.29 387.346 319.733 387.019 320.76 388.157C321.27 388.723 321.529 389.759 321.131 390.155C320.987 390.299 321.445 390.653 320.967 390.591C319.382 390.385 316.822 388.758 317.055 388.054Z" fill="url(#paint51_linear_209_1765)"/>
<path d="M319.481 388.667H321.946C321.018 387.162 321.831 382.898 321.831 382.898L319.179 383.109C319.179 383.109 319.306 384.328 319.558 386.137C319.644 386.756 319.589 387.697 319.48 388.667H319.481Z" fill="url(#paint52_linear_209_1765)"/>
<path d="M313.091 295.471C311.949 299.241 310.318 305.326 309.268 312.96C306.273 334.735 312.639 335.429 311.449 359.559C311.071 367.261 318.125 385.022 318.747 385.414C319.048 385.443 319.375 385.463 319.723 385.453C320.337 385.435 321.202 385.341 322.208 385.039C323.326 384.846 327.355 373.938 326.422 367.452C325.761 362.861 325.952 357.935 326.335 348.082C326.397 346.486 330.484 317.02 330.484 317.02C331.726 327.927 333.156 337.194 334.396 344.379C338.377 367.462 351.325 381.433 352 381.658C352.134 381.711 353.348 382.153 354.342 381.498C354.784 381.207 354.935 380.832 354.935 380.832C355.281 380.561 354.833 357.786 350.884 340.645C345.152 315.767 347.649 309.945 345.832 298.832C344.261 289.216 313.092 295.473 313.092 295.473L313.091 295.471Z" fill="url(#paint53_linear_209_1765)"/>
<path d="M311.556 299.231C314.997 300.997 323.863 304.16 334.429 302.589C339.113 301.892 342.886 300.361 345.588 298.959C345.671 298.917 345.754 298.877 345.832 298.835C343.087 290.539 345.237 286.1 346.252 282.007C347.701 276.173 347.721 276.615 348.915 271.978C350.879 264.329 351.201 256.515 349.852 254.919C346.212 250.608 339.65 250.451 336.245 250.348C332.439 250.237 323.69 248.896 318.874 253.228C318.792 253.303 319.778 253.829 319.29 254.399C318.84 254.928 317.293 256.78 315.889 259.28C314.874 261.091 313.953 263.204 313.029 266.347C311.399 271.896 310.928 276.624 310.771 278.682C310.722 279.363 310.676 280.023 310.634 280.658C309.995 290.881 310.807 295.815 311.554 299.231H311.556Z" fill="url(#paint54_linear_209_1765)"/>
<path d="M319.308 388.339C319.308 388.339 322.314 388.08 322.547 388.702C322.78 389.324 322.806 390.903 320.967 390.592C319.128 390.281 319.077 388.806 319.31 388.339H319.308Z" fill="url(#paint55_linear_209_1765)"/>
<path d="M336.521 250.981C336.439 249.751 336.328 248.876 336.118 247.556C336.085 247.344 336.049 247.134 336.013 246.925C336.373 241.473 335.414 237.6 334.469 237.386C334.173 237.318 332.708 237.344 332.276 237.491C332.236 237.505 332.196 237.519 332.196 237.519L331.52 237.924C331.035 238.241 330.773 238.491 329.738 240.339C329.492 240.781 328.37 242.829 328.966 245.066C329.405 246.714 331.613 247.756 331.993 247.96C331.878 248.818 331.762 249.676 331.647 250.534C326.475 249.787 325.13 250.08 324.985 250.555C324.694 251.496 328.79 252.855 333.862 253.716C335.372 253.972 336.894 253.985 338.408 253.746C341.257 253.297 342.851 253.038 343.01 252.29C343.102 251.855 341.93 251.148 336.52 250.98L336.521 250.981Z" fill="url(#paint56_linear_209_1765)"/>
<path d="M330.252 235.945C330.235 237.634 331.008 239.451 331.411 239.746C331.463 239.785 331.755 240.021 332.014 240.422C332.05 240.477 332.081 240.54 332.108 240.624C332.465 241.693 330.753 242.925 331.074 243.406C331.307 243.756 332.465 243.308 332.597 243.607C332.723 243.89 331.758 244.46 331.901 244.799C332.007 245.055 332.6 244.829 332.966 245.224C333.149 245.42 333.093 245.574 333.28 246.169C333.387 246.506 333.536 246.875 333.654 247.08C334.226 248.081 335.876 248.465 336.2 248.072C336.291 247.963 336.216 247.869 336.311 247.498C336.311 247.498 336.399 247.155 336.645 246.76C336.995 246.195 337.827 245.8 338.668 245.211C340.228 244.12 340.66 243.177 340.789 242.859C340.835 242.745 340.864 242.66 340.886 242.599C341.303 241.358 341.329 239.528 340.783 238.396C339.869 236.499 337.741 237.365 336.032 235.474C334.06 233.292 335.29 230.362 334.209 230.023C333.018 229.649 330.282 232.818 330.252 235.945Z" fill="#26264F"/>
<path d="M331.687 243.017C332.109 242.453 332.831 242.999 332.825 243.734C332.819 244.471 332.095 245.227 331.405 245.073C330.714 244.919 331.12 243.776 331.687 243.017Z" fill="url(#paint57_linear_209_1765)"/>
<path d="M344.618 293.695C344.625 293.695 344.634 293.695 344.642 293.695C344.765 293.682 344.851 293.571 344.838 293.45C344.392 289.424 345.227 286.497 345.963 283.913C346.144 283.28 346.318 282.667 346.468 282.06C347.288 278.756 347.648 277.478 348.028 276.127C348.278 275.24 348.533 274.331 348.932 272.802C348.962 272.684 348.892 272.563 348.774 272.533C348.654 272.5 348.533 272.573 348.503 272.691C348.105 274.215 347.851 275.124 347.601 276.009C347.22 277.365 346.86 278.644 346.039 281.956C345.889 282.558 345.715 283.166 345.537 283.794C344.789 286.416 343.94 289.389 344.398 293.501C344.409 293.613 344.506 293.698 344.618 293.698V293.695Z" fill="url(#paint58_linear_209_1765)"/>
<path style="mix-blend-mode:multiply" opacity="0.4" d="M311.556 299.231C314.997 300.997 323.863 304.16 334.429 302.589C339.113 301.892 342.886 300.36 345.588 298.959C344.363 298.006 342.853 296.41 340.356 293.695C337.331 290.411 333.785 291.637 331.702 292.875C330.2 293.761 328.338 293.786 326.815 292.945C325.288 292.099 324.322 290.511 324.276 288.77C324.252 287.97 324.289 287.059 324.387 286.027C325.101 278.555 314.745 277.92 314.745 277.92C313.284 277.162 311.897 278.387 310.634 280.659C309.995 290.883 310.807 295.817 311.554 299.232L311.556 299.231Z" fill="url(#paint59_linear_209_1765)"/>
<path d="M275.356 265.949C275.772 265.989 276.276 266.411 276.632 266.611C277.136 266.896 277.643 267.176 278.157 267.444C279.149 267.961 280.199 268.344 281.332 268.322C281.3 268.161 281.244 267.998 281.181 267.844C280.989 267.395 280.736 267.006 280.887 266.873C281.103 266.677 282.056 267.081 282.935 267.922C283.29 268.257 283.629 268.669 283.907 269.139C284.354 269.904 284.28 270.321 284.654 270.903C285.211 271.402 285.63 271.511 285.63 271.511V271.671L285.567 271.867C286.065 272.247 286.628 272.471 287.07 272.618C286.294 272.827 285.535 273.039 284.763 273.252L284.226 274.145C284.226 274.145 281.3 273.532 279.535 272.463C278.71 271.96 278.425 271.34 278.356 270.825C278.307 270.482 278.356 270.187 278.402 270C278.438 269.865 278.472 269.784 278.472 269.784C278.472 269.784 276.062 268.784 275.11 266.619C274.966 266.293 274.952 265.91 275.358 265.949H275.356Z" fill="url(#paint60_linear_209_1765)"/>
<path d="M285.567 270.613C284.19 271.576 283.453 272.883 283.07 273.718C284.082 276.091 286.376 280.5 291.126 283.748C298.913 289.075 310.333 289.254 318.286 283.18C327.788 275.923 329.376 262.008 325.385 256.048C324.926 255.361 323.415 253.106 321.069 252.848C319.589 252.684 317.573 253.296 314.388 257.022C307.752 264.788 310.096 269.637 306.175 271.91C300.296 275.317 291.56 266.421 285.565 270.615L285.567 270.613Z" fill="url(#paint61_linear_209_1765)"/>
<path d="M379.965 174.038L332.149 171.465C328.211 171.253 325.001 174.15 325.001 177.939V204.128C325.001 207.916 328.211 211.066 332.149 211.163L347.782 211.548L355.078 220.166C355.517 220.686 356.287 220.77 356.829 220.359L363.845 211.944L379.965 212.342C383.61 212.432 386.551 209.572 386.551 205.954V180.946C386.551 177.328 383.61 174.237 379.965 174.041V174.038Z" fill="url(#paint62_linear_209_1765)"/>
<path d="M380.916 173.277L333.1 170.704C329.162 170.492 325.952 173.39 325.952 177.178V203.367C325.952 207.155 329.162 210.305 333.1 210.402L348.732 210.787L355.849 219.194C356.356 219.792 357.276 219.799 357.791 219.209L364.795 211.184L380.916 211.581C384.561 211.671 387.502 208.811 387.502 205.194V180.185C387.502 176.568 384.561 173.477 380.916 173.28V173.277Z" fill="url(#paint63_linear_209_1765)"/>
<path d="M373.157 188.848C372.893 183.891 369.523 179.726 365.326 179.199C361.987 178.78 359.017 180.665 357.436 183.717C355.852 180.515 352.854 178.333 349.453 178.425C345.127 178.543 341.614 182.469 341.336 187.52C341.153 190.858 342.365 193.925 344.354 195.994L356.564 205.934C357.092 206.363 357.779 206.384 358.305 205.983L370.265 196.914C372.173 195.028 373.33 192.12 373.155 188.846L373.157 188.848Z" fill="white"/>
<path d="M131.776 333.085C131.373 333.085 131.029 332.779 130.99 332.37C130.297 325.106 127.927 318.204 124.317 312.935C121.119 308.267 117.312 305.482 114.131 305.482H114.121C102.536 305.505 100.112 332.093 100.089 332.363C100.052 332.797 99.6701 333.12 99.2338 333.082C98.799 333.045 98.4764 332.662 98.5139 332.227C98.6132 331.072 101.094 303.926 114.12 303.902H114.134C117.892 303.902 122.08 306.868 125.625 312.043C129.383 317.528 131.848 324.694 132.567 332.22C132.608 332.655 132.289 333.04 131.854 333.082C131.828 333.085 131.803 333.085 131.777 333.085H131.776Z" fill="url(#paint64_linear_209_1765)"/>
<path d="M83.5099 387.808L98.7615 395.525L108.003 367.18L92.7772 329.179L88.4604 330.237L81.9087 384.812C81.7604 386.047 82.4012 387.243 83.5114 387.806L83.5099 387.808Z" fill="url(#paint65_linear_209_1765)"/>
<path style="mix-blend-mode:multiply" opacity="0.52" d="M108.002 367.181L92.7758 329.18L90.2286 329.805C89.8758 334.878 90.0313 339.054 90.2703 342.095C91.2912 355.033 94.6808 358.634 93.0393 367.66C91.6743 375.164 88.6922 376.183 88.9528 381.232C89.2365 386.732 93.0739 391.336 97.6355 394.958L98.7615 395.528L108.003 367.182L108.002 367.181Z" fill="url(#paint66_linear_209_1765)"/>
<path d="M92.7758 329.18H149.643L168.462 389.911L98.7601 395.525L92.7758 329.18Z" fill="url(#paint67_linear_209_1765)"/>
<path d="M110.392 334.385C110.033 334.385 109.708 334.139 109.623 333.775C109.462 333.087 105.725 316.812 110.994 308.826C112.504 306.537 114.614 305.14 117.263 304.672C130.882 302.274 139.266 331.511 139.616 332.757C139.734 333.177 139.49 333.613 139.069 333.731C138.649 333.849 138.212 333.605 138.094 333.184C138.012 332.894 129.759 304.073 117.538 306.229C115.302 306.624 113.593 307.758 112.314 309.697C107.417 317.12 111.125 333.251 111.164 333.413C111.263 333.838 110.999 334.264 110.575 334.363C110.514 334.378 110.454 334.385 110.393 334.385H110.392Z" fill="url(#paint68_linear_209_1765)"/>
<g style="mix-blend-mode:multiply" opacity="0.3">
<path d="M149.643 329.18H121.432C120.041 330.595 119.053 332.226 118.958 334.054C118.514 342.646 138.277 345.469 140.182 357.247C141.557 365.741 133.098 375.544 125.55 379.911C117.597 384.513 112.209 382.182 106.829 387.29C104.466 389.534 103.027 392.341 102.171 395.251L168.462 389.911L149.643 329.18Z" fill="url(#paint69_linear_209_1765)"/>
</g>
<path d="M110.398 336.714C111.618 336.714 112.608 335.724 112.608 334.504C112.608 333.284 111.618 332.295 110.398 332.295C109.177 332.295 108.187 333.284 108.187 334.504C108.187 335.724 109.177 336.714 110.398 336.714Z" fill="url(#paint70_linear_209_1765)"/>
<path d="M139.226 336.509C140.447 336.509 141.436 335.52 141.436 334.3C141.436 333.079 140.447 332.09 139.226 332.09C138.005 332.09 137.016 333.079 137.016 334.3C137.016 335.52 138.005 336.509 139.226 336.509Z" fill="url(#paint71_linear_209_1765)"/>
<defs>
<linearGradient id="paint0_linear_209_1765" x1="13.9458" y1="188.397" x2="453.777" y2="410.374" gradientUnits="userSpaceOnUse">
<stop stop-color="#FF9085"/>
<stop offset="1" stop-color="#FB6FBB"/>
</linearGradient>
<linearGradient id="paint1_linear_209_1765" x1="135.39" y1="81.2677" x2="183.356" y2="341.312" gradientUnits="userSpaceOnUse">
<stop stop-color="#AA80F9"/>
<stop offset="1" stop-color="#6165D7"/>
</linearGradient>
<linearGradient id="paint2_linear_209_1765" x1="66.823" y1="350.907" x2="426.897" y2="350.907" gradientUnits="userSpaceOnUse">
<stop offset="0.49" stop-color="#CCDBE6"/>
<stop offset="1" stop-color="white"/>
</linearGradient>
<linearGradient id="paint3_linear_209_1765" x1="88.4372" y1="76.9063" x2="112.414" y2="76.7514" gradientUnits="userSpaceOnUse">
<stop stop-color="#311944"/>
<stop offset="1" stop-color="#893976"/>
</linearGradient>
<linearGradient id="paint4_linear_209_1765" x1="107.817" y1="64.3167" x2="84.3475" y2="106.574" gradientUnits="userSpaceOnUse">
<stop stop-color="#FFC444"/>
<stop offset="1" stop-color="#F36F56"/>
</linearGradient>
<linearGradient id="paint5_linear_209_1765" x1="107.815" y1="64.2918" x2="84.3288" y2="106.581" gradientUnits="userSpaceOnUse">
<stop stop-color="#FFC444"/>
<stop offset="1" stop-color="#F36F56"/>
</linearGradient>
<linearGradient id="paint6_linear_209_1765" x1="117.18" y1="77.3441" x2="141.248" y2="77.1886" gradientUnits="userSpaceOnUse">
<stop stop-color="#311944"/>
<stop offset="1" stop-color="#893976"/>
</linearGradient>
<linearGradient id="paint7_linear_209_1765" x1="136.618" y1="64.7268" x2="113.098" y2="107.077" gradientUnits="userSpaceOnUse">
<stop stop-color="#FFC444"/>
<stop offset="1" stop-color="#F36F56"/>
</linearGradient>
<linearGradient id="paint8_linear_209_1765" x1="136.615" y1="64.7038" x2="113.078" y2="107.084" gradientUnits="userSpaceOnUse">
<stop stop-color="#FFC444"/>
<stop offset="1" stop-color="#F36F56"/>
</linearGradient>
<linearGradient id="paint9_linear_209_1765" x1="146.034" y1="77.7838" x2="170.194" y2="77.6277" gradientUnits="userSpaceOnUse">
<stop stop-color="#311944"/>
<stop offset="1" stop-color="#893976"/>
</linearGradient>
<linearGradient id="paint10_linear_209_1765" x1="165.53" y1="65.1387" x2="141.958" y2="107.583" gradientUnits="userSpaceOnUse">
<stop stop-color="#FFC444"/>
<stop offset="1" stop-color="#F36F56"/>
</linearGradient>
<linearGradient id="paint11_linear_209_1765" x1="165.527" y1="65.1156" x2="141.938" y2="107.587" gradientUnits="userSpaceOnUse">
<stop stop-color="#FFC444"/>
<stop offset="1" stop-color="#F36F56"/>
</linearGradient>
<linearGradient id="paint12_linear_209_1765" x1="174.998" y1="78.2246" x2="199.252" y2="78.0679" gradientUnits="userSpaceOnUse">
<stop stop-color="#311944"/>
<stop offset="1" stop-color="#893976"/>
</linearGradient>
<linearGradient id="paint13_linear_209_1765" x1="194.553" y1="65.5513" x2="170.929" y2="108.089" gradientUnits="userSpaceOnUse">
<stop stop-color="#FFC444"/>
<stop offset="1" stop-color="#F36F56"/>
</linearGradient>
<linearGradient id="paint14_linear_209_1765" x1="194.548" y1="65.5301" x2="170.91" y2="108.094" gradientUnits="userSpaceOnUse">
<stop stop-color="#FFC444"/>
<stop offset="1" stop-color="#F36F56"/>
</linearGradient>
<linearGradient id="paint15_linear_209_1765" x1="255.361" y1="175.826" x2="356.991" y2="275.44" gradientUnits="userSpaceOnUse">
<stop stop-color="#FFC444"/>
<stop offset="1" stop-color="#F36F56"/>
</linearGradient>
<linearGradient id="paint16_linear_209_1765" x1="198.123" y1="115.182" x2="191.506" y2="122.169" gradientUnits="userSpaceOnUse">
<stop stop-color="#444B8C"/>
<stop offset="1" stop-color="#3E4177"/>
</linearGradient>
<linearGradient id="paint17_linear_209_1765" x1="197.737" y1="115.265" x2="191.222" y2="122.145" gradientUnits="userSpaceOnUse">
<stop stop-color="#444B8C"/>
<stop offset="1" stop-color="#3E4177"/>
</linearGradient>
<linearGradient id="paint18_linear_209_1765" x1="201.364" y1="128.299" x2="181.097" y2="170.717" gradientUnits="userSpaceOnUse">
<stop stop-color="#444B8C"/>
<stop offset="1" stop-color="#3E4177"/>
</linearGradient>
<linearGradient id="paint19_linear_209_1765" x1="201.974" y1="126.92" x2="180.966" y2="170.889" gradientUnits="userSpaceOnUse">
<stop stop-color="#444B8C"/>
<stop offset="1" stop-color="#3E4177"/>
</linearGradient>
<linearGradient id="paint20_linear_209_1765" x1="105.67" y1="228.733" x2="216.215" y2="337.084" gradientUnits="userSpaceOnUse">
<stop stop-color="#FFC444"/>
<stop offset="1" stop-color="#F36F56"/>
</linearGradient>
<linearGradient id="paint21_linear_209_1765" x1="271.989" y1="168.777" x2="192.133" y2="350.899" gradientUnits="userSpaceOnUse">
<stop stop-color="#E38DDD"/>
<stop offset="0.71" stop-color="#AC79EF"/>
<stop offset="1" stop-color="#9571F6"/>
</linearGradient>
<linearGradient id="paint22_linear_209_1765" x1="147.342" y1="181.073" x2="218.621" y2="181.073" gradientUnits="userSpaceOnUse">
<stop stop-color="#FFC444"/>
<stop offset="1" stop-color="#F36F56"/>
</linearGradient>
<linearGradient id="paint23_linear_209_1765" x1="124.081" y1="297.061" x2="306.508" y2="297.061" gradientUnits="userSpaceOnUse">
<stop stop-color="#E38DDD"/>
<stop offset="0.71" stop-color="#AC79EF"/>
<stop offset="1" stop-color="#9571F6"/>
</linearGradient>
<linearGradient id="paint24_linear_209_1765" x1="143.415" y1="294.062" x2="161.083" y2="311.38" gradientUnits="userSpaceOnUse">
<stop stop-color="#FFC444"/>
<stop offset="1" stop-color="#F36F56"/>
</linearGradient>
<linearGradient id="paint25_linear_209_1765" x1="215.603" y1="134.615" x2="195.591" y2="176.498" gradientUnits="userSpaceOnUse">
<stop stop-color="#444B8C"/>
<stop offset="1" stop-color="#3E4177"/>
</linearGradient>
<linearGradient id="paint26_linear_209_1765" x1="183.655" y1="173.409" x2="195.963" y2="76.4066" gradientUnits="userSpaceOnUse">
<stop stop-color="#FFC444"/>
<stop offset="1" stop-color="#F36F56"/>
</linearGradient>
<linearGradient id="paint27_linear_209_1765" x1="375.566" y1="68.2997" x2="309.046" y2="125.875" gradientUnits="userSpaceOnUse">
<stop stop-color="#FFC444"/>
<stop offset="1" stop-color="#F36F56"/>
</linearGradient>
<linearGradient id="paint28_linear_209_1765" x1="325.172" y1="55.3825" x2="297.467" y2="79.3616" gradientUnits="userSpaceOnUse">
<stop stop-color="#311944"/>
<stop offset="1" stop-color="#893976"/>
</linearGradient>
<linearGradient id="paint29_linear_209_1765" x1="316.632" y1="50.8144" x2="301.04" y2="64.3099" gradientUnits="userSpaceOnUse">
<stop stop-color="#311944"/>
<stop offset="1" stop-color="#893976"/>
</linearGradient>
<linearGradient id="paint30_linear_209_1765" x1="329.392" y1="105.459" x2="295.462" y2="134.826" gradientUnits="userSpaceOnUse">
<stop offset="0.49" stop-color="#C1D2DF"/>
<stop offset="1" stop-color="white"/>
</linearGradient>
<linearGradient id="paint31_linear_209_1765" x1="328.248" y1="96.7405" x2="276.577" y2="141.463" gradientUnits="userSpaceOnUse">
<stop stop-color="#FF9085"/>
<stop offset="1" stop-color="#FB6FBB"/>
</linearGradient>
<linearGradient id="paint32_linear_209_1765" x1="118.353" y1="314.925" x2="228.905" y2="314.925" gradientUnits="userSpaceOnUse">
<stop stop-color="#FF9085"/>
<stop offset="1" stop-color="#FB6FBB"/>
</linearGradient>
<linearGradient id="paint33_linear_209_1765" x1="87.1978" y1="318.589" x2="111.904" y2="318.589" gradientUnits="userSpaceOnUse">
<stop stop-color="#FF9085"/>
<stop offset="1" stop-color="#FB6FBB"/>
</linearGradient>
<linearGradient id="paint34_linear_209_1765" x1="325.255" y1="271.557" x2="332.831" y2="285.695" gradientUnits="userSpaceOnUse">
<stop stop-color="#FFC444"/>
<stop offset="0.46" stop-color="#FEC244"/>
<stop offset="0.63" stop-color="#FDBB45"/>
<stop offset="0.75" stop-color="#FCAF48"/>
<stop offset="0.84" stop-color="#F99E4B"/>
<stop offset="0.93" stop-color="#F68850"/>
<stop offset="1" stop-color="#F36F56"/>
</linearGradient>
<linearGradient id="paint35_linear_209_1765" x1="370.909" y1="388.995" x2="374.814" y2="367.091" gradientUnits="userSpaceOnUse">
<stop stop-color="#444B8C"/>
<stop offset="1" stop-color="#26264F"/>
</linearGradient>
<linearGradient id="paint36_linear_209_1765" x1="375.952" y1="384.224" x2="371.927" y2="350.252" gradientUnits="userSpaceOnUse">
<stop stop-color="#FFC444"/>
<stop offset="1" stop-color="#F36F56"/>
</linearGradient>
<linearGradient id="paint37_linear_209_1765" x1="363.439" y1="385.707" x2="359.414" y2="351.735" gradientUnits="userSpaceOnUse">
<stop stop-color="#FFC444"/>
<stop offset="1" stop-color="#F36F56"/>
</linearGradient>
<linearGradient id="paint38_linear_209_1765" x1="361.227" y1="387.27" x2="365.132" y2="365.364" gradientUnits="userSpaceOnUse">
<stop stop-color="#444B8C"/>
<stop offset="1" stop-color="#26264F"/>
</linearGradient>
<linearGradient id="paint39_linear_209_1765" x1="370.198" y1="310.575" x2="381.634" y2="380.401" gradientUnits="userSpaceOnUse">
<stop stop-color="#311944"/>
<stop offset="1" stop-color="#A03976"/>
</linearGradient>
<linearGradient id="paint40_linear_209_1765" x1="370.198" y1="310.574" x2="381.634" y2="380.4" gradientUnits="userSpaceOnUse">
<stop stop-color="#FF9085"/>
<stop offset="1" stop-color="#FB6FBB"/>
</linearGradient>
<linearGradient id="paint41_linear_209_1765" x1="326.16" y1="346.073" x2="383.07" y2="336.685" gradientUnits="userSpaceOnUse">
<stop stop-color="#311944"/>
<stop offset="1" stop-color="#A03976"/>
</linearGradient>
<linearGradient id="paint42_linear_209_1765" x1="391.942" y1="265.787" x2="356.977" y2="331.029" gradientUnits="userSpaceOnUse">
<stop stop-color="#FF9085"/>
<stop offset="1" stop-color="#FB6FBB"/>
</linearGradient>
<linearGradient id="paint43_linear_209_1765" x1="340.146" y1="261.151" x2="389.614" y2="314.775" gradientUnits="userSpaceOnUse">
<stop stop-color="#FF9085"/>
<stop offset="1" stop-color="#FB6FBB"/>
</linearGradient>
<linearGradient id="paint44_linear_209_1765" x1="357.475" y1="244.442" x2="362.402" y2="257.56" gradientUnits="userSpaceOnUse">
<stop stop-color="#FFC444"/>
<stop offset="0.46" stop-color="#FEC244"/>
<stop offset="0.63" stop-color="#FDBB45"/>
<stop offset="0.75" stop-color="#FCAF48"/>
<stop offset="0.84" stop-color="#F99E4B"/>
<stop offset="0.93" stop-color="#F68850"/>
<stop offset="1" stop-color="#F36F56"/>
</linearGradient>
<linearGradient id="paint45_linear_209_1765" x1="357.551" y1="247.357" x2="322.588" y2="312.6" gradientUnits="userSpaceOnUse">
<stop stop-color="#FF9085"/>
<stop offset="1" stop-color="#FB6FBB"/>
</linearGradient>
<linearGradient id="paint46_linear_209_1765" x1="379.675" y1="236.674" x2="389.919" y2="295.262" gradientUnits="userSpaceOnUse">
<stop stop-color="#444B8C"/>
<stop offset="1" stop-color="#26264F"/>
</linearGradient>
<linearGradient id="paint47_linear_209_1765" x1="339.796" y1="291.631" x2="349.671" y2="252.109" gradientUnits="userSpaceOnUse">
<stop stop-color="#AA80F9"/>
<stop offset="1" stop-color="#6165D7"/>
</linearGradient>
<linearGradient id="paint48_linear_209_1765" x1="349.275" y1="383.185" x2="354.5" y2="386.66" gradientUnits="userSpaceOnUse">
<stop stop-color="#444B8C"/>
<stop offset="1" stop-color="#26264F"/>
</linearGradient>
<linearGradient id="paint49_linear_209_1765" x1="354.34" y1="386.695" x2="353.198" y2="378.611" gradientUnits="userSpaceOnUse">
<stop stop-color="#FFC444"/>
<stop offset="1" stop-color="#F36F56"/>
</linearGradient>
<linearGradient id="paint50_linear_209_1765" x1="349.668" y1="382.597" x2="354.893" y2="386.07" gradientUnits="userSpaceOnUse">
<stop stop-color="#444B8C"/>
<stop offset="1" stop-color="#26264F"/>
</linearGradient>
<linearGradient id="paint51_linear_209_1765" x1="316.046" y1="385.77" x2="320.734" y2="389.941" gradientUnits="userSpaceOnUse">
<stop stop-color="#444B8C"/>
<stop offset="1" stop-color="#26264F"/>
</linearGradient>
<linearGradient id="paint52_linear_209_1765" x1="320.563" y1="389.948" x2="320.563" y2="381.783" gradientUnits="userSpaceOnUse">
<stop stop-color="#FFC444"/>
<stop offset="1" stop-color="#F36F56"/>
</linearGradient>
<linearGradient id="paint53_linear_209_1765" x1="320.178" y1="393.692" x2="350.729" y2="270.292" gradientUnits="userSpaceOnUse">
<stop stop-color="#444B8C"/>
<stop offset="1" stop-color="#26264F"/>
</linearGradient>
<linearGradient id="paint54_linear_209_1765" x1="295.361" y1="301.702" x2="372.652" y2="247.926" gradientUnits="userSpaceOnUse">
<stop stop-color="#AA80F9"/>
<stop offset="1" stop-color="#6165D7"/>
</linearGradient>
<linearGradient id="paint55_linear_209_1765" x1="316.518" y1="385.242" x2="321.204" y2="389.412" gradientUnits="userSpaceOnUse">
<stop stop-color="#444B8C"/>
<stop offset="1" stop-color="#26264F"/>
</linearGradient>
<linearGradient id="paint56_linear_209_1765" x1="325.044" y1="238.114" x2="347.782" y2="266.734" gradientUnits="userSpaceOnUse">
<stop stop-color="#FFC444"/>
<stop offset="1" stop-color="#F36F56"/>
</linearGradient>
<linearGradient id="paint57_linear_209_1765" x1="327.961" y1="234.638" x2="343.763" y2="272.247" gradientUnits="userSpaceOnUse">
<stop stop-color="#FFC444"/>
<stop offset="1" stop-color="#F36F56"/>
</linearGradient>
<linearGradient id="paint58_linear_209_1765" x1="348.939" y1="283.109" x2="344.269" y2="283.109" gradientUnits="userSpaceOnUse">
<stop stop-color="#6165D7"/>
<stop offset="1" stop-color="#AA80F9"/>
</linearGradient>
<linearGradient id="paint59_linear_209_1765" x1="345.59" y1="290.353" x2="310.405" y2="290.353" gradientUnits="userSpaceOnUse">
<stop stop-color="#AA80F9"/>
<stop offset="1" stop-color="#6165D7"/>
</linearGradient>
<linearGradient id="paint60_linear_209_1765" x1="283.236" y1="266.609" x2="276.224" y2="275.434" gradientUnits="userSpaceOnUse">
<stop stop-color="#FFC444"/>
<stop offset="1" stop-color="#F36F56"/>
</linearGradient>
<linearGradient id="paint61_linear_209_1765" x1="360.764" y1="305.98" x2="286.898" y2="254.586" gradientUnits="userSpaceOnUse">
<stop stop-color="#AA80F9"/>
<stop offset="1" stop-color="#6165D7"/>
</linearGradient>
<linearGradient id="paint62_linear_209_1765" x1="339.793" y1="166.848" x2="365.324" y2="207.912" gradientUnits="userSpaceOnUse">
<stop stop-color="#311944"/>
<stop offset="1" stop-color="#893976"/>
</linearGradient>
<linearGradient id="paint63_linear_209_1765" x1="340.744" y1="166.087" x2="366.276" y2="207.151" gradientUnits="userSpaceOnUse">
<stop stop-color="#FF9085"/>
<stop offset="1" stop-color="#FB6FBB"/>
</linearGradient>
<linearGradient id="paint64_linear_209_1765" x1="114.104" y1="313.642" x2="116.095" y2="339.539" gradientUnits="userSpaceOnUse">
<stop stop-color="#311944"/>
<stop offset="1" stop-color="#893976"/>
</linearGradient>
<linearGradient id="paint65_linear_209_1765" x1="75.4161" y1="337.609" x2="94.6829" y2="369.933" gradientUnits="userSpaceOnUse">
<stop stop-color="#FF9085"/>
<stop offset="1" stop-color="#FB6FBB"/>
</linearGradient>
<linearGradient id="paint66_linear_209_1765" x1="78.3968" y1="335.833" x2="97.6636" y2="368.155" gradientUnits="userSpaceOnUse">
<stop stop-color="#FF9085"/>
<stop offset="1" stop-color="#FB6FBB"/>
</linearGradient>
<linearGradient id="paint67_linear_209_1765" x1="108.978" y1="350.627" x2="163.238" y2="392.453" gradientUnits="userSpaceOnUse">
<stop stop-color="#FF9085"/>
<stop offset="1" stop-color="#FB6FBB"/>
</linearGradient>
<linearGradient id="paint68_linear_209_1765" x1="119.643" y1="301.91" x2="125.175" y2="337.194" gradientUnits="userSpaceOnUse">
<stop stop-color="#311944"/>
<stop offset="1" stop-color="#893976"/>
</linearGradient>
<linearGradient id="paint69_linear_209_1765" x1="109.679" y1="349.718" x2="163.939" y2="391.543" gradientUnits="userSpaceOnUse">
<stop stop-color="#FF9085"/>
<stop offset="1" stop-color="#FB6FBB"/>
</linearGradient>
<linearGradient id="paint70_linear_209_1765" x1="107.415" y1="333.397" x2="108.305" y2="333.729" gradientUnits="userSpaceOnUse">
<stop stop-color="#311944"/>
<stop offset="1" stop-color="#893976"/>
</linearGradient>
<linearGradient id="paint71_linear_209_1765" x1="136.243" y1="333.191" x2="137.134" y2="333.523" gradientUnits="userSpaceOnUse">
<stop stop-color="#311944"/>
<stop offset="1" stop-color="#893976"/>
</linearGradient>
</defs>
</svg>
