<svg width="21" height="22" viewBox="0 0 21 22" fill="none" xmlns="http://www.w3.org/2000/svg">
<g clip-path="url(#clip0_472_188)">
<path d="M15.7463 21.5006C14.7294 21.4071 13.8527 21.1735 12.9951 20.8581C10.9554 20.1047 9.14514 18.9613 7.47075 17.5932C5.12719 15.6774 3.17081 13.4303 1.68636 10.7859C0.957285 9.48346 0.394772 8.11383 0.112785 6.64053C0.068953 6.41274 0.0455758 6.17912 0.0105101 5.94987C-0.0304 5.68704 0.0733362 5.46364 0.194605 5.24608C0.789262 4.17578 1.53441 3.21354 2.36284 2.31992C2.8523 1.7928 3.38851 1.30803 3.93495 0.839319C4.6801 0.198309 5.43255 0.57503 5.8212 1.10507C6.81327 2.45717 7.72936 3.85893 8.43652 5.38625C8.51249 5.55125 8.56509 5.72647 8.62938 5.89585C8.83685 6.44195 8.7112 6.92088 8.29772 7.3122C7.89154 7.69914 7.46344 8.06272 7.03681 8.4263C6.92285 8.52267 6.90093 8.60298 6.95353 8.7417C8.00988 11.5437 9.93996 13.4697 12.735 14.5385C12.9016 14.6013 12.9921 14.5648 13.1017 14.4334C13.4378 14.0319 13.7855 13.6361 14.1391 13.2492C14.5701 12.779 15.1005 12.6301 15.6834 12.9046C16.4724 13.2769 17.2585 13.6595 18.0124 14.0976C18.7795 14.5444 19.5056 15.0613 20.2464 15.5504C20.5795 15.7694 20.8133 16.0659 20.9389 16.4499C21.031 16.7302 21.0207 16.9974 20.8659 17.2471C20.7314 17.4632 20.5985 17.6852 20.4319 17.875C19.2222 19.2475 17.8225 20.3923 16.2386 21.3064C16.0619 21.4086 15.8529 21.4582 15.7463 21.4991V21.5006ZM19.5582 16.7872C19.4749 16.7215 19.4077 16.666 19.3376 16.6149C18.119 15.7329 16.8333 14.9649 15.473 14.3195C15.1648 14.1735 15.1677 14.1749 14.9427 14.4276C14.5102 14.9109 14.0792 15.3927 13.6394 15.8687C13.4495 16.0746 13.2025 16.1155 12.9352 16.0469C12.8227 16.0177 12.7087 15.9914 12.5977 15.9563C10.428 15.2628 8.6586 13.9968 7.27204 12.2008C6.43193 11.1145 5.78905 9.9215 5.45301 8.5767C5.38434 8.29927 5.42671 8.05542 5.63564 7.85392C5.91325 7.58671 6.19231 7.3195 6.47722 7.05959C6.71391 6.84349 6.95791 6.63469 7.20483 6.43027C7.30273 6.34996 7.30419 6.28133 7.25159 6.17036C6.57803 4.75254 5.78467 3.40628 4.85835 2.1374C4.81306 2.07607 4.759 2.01913 4.7137 1.9651C4.6801 1.98116 4.66549 1.98554 4.65526 1.9943C3.42796 3.10694 2.36576 4.3583 1.47158 5.75275C1.42775 5.82138 1.42045 5.93235 1.43213 6.0185C1.60454 7.26548 2.03117 8.4336 2.6156 9.53894C4.65818 13.4113 7.61247 16.409 11.4025 18.5861C12.6722 19.3147 14.0222 19.855 15.4862 20.0623C15.5885 20.0769 15.717 20.0448 15.8062 19.9893C16.0911 19.8126 16.3672 19.6213 16.6375 19.4242C17.6953 18.6533 18.6655 17.7874 19.5611 16.7886L19.5582 16.7872Z" fill="#0E283A"/>
<path d="M20.3074 10.0726C20.3074 10.1383 20.3074 10.204 20.3074 10.2698C20.3031 10.6786 20.0065 10.9896 19.6178 10.9955C19.2292 11.0013 18.915 10.6976 18.9092 10.2902C18.8975 9.41702 18.7777 8.55991 18.465 7.74368C17.4174 5.00734 15.4596 3.32086 12.5798 2.73388C12.1474 2.64627 11.6988 2.63021 11.2561 2.60392C10.8119 2.57764 10.5007 2.29583 10.5051 1.89137C10.5095 1.48544 10.828 1.19925 11.2722 1.20217C15.6642 1.22261 19.479 4.47293 20.1745 8.79353C20.2432 9.21698 20.2753 9.64481 20.325 10.0712C20.3177 10.0712 20.3118 10.0726 20.3045 10.0741L20.3074 10.0726Z" fill="#0E283A"/>
<path d="M11.3847 4.69951C13.9927 4.75062 16.3085 6.7671 16.7191 9.35012C16.7658 9.64361 16.7921 9.94294 16.8009 10.2394C16.8155 10.6672 16.5189 10.984 16.123 10.9943C15.7182 11.0045 15.4158 10.692 15.4056 10.2525C15.3574 8.35283 14.1637 6.78316 12.349 6.26334C12.0305 6.17135 11.6901 6.10126 11.3613 6.11003C10.7915 6.12609 10.4949 5.73184 10.5037 5.38433C10.5154 4.94628 10.8412 4.68929 11.3847 4.69951Z" fill="#0E283A"/>
</g>
<defs>
<clipPath id="clip0_472_188">
<rect width="21" height="21" fill="white" transform="translate(0 0.5)"/>
</clipPath>
</defs>
</svg>
