<svg width="24" height="24" viewBox="0 0 24 24" fill="none" xmlns="http://www.w3.org/2000/svg">
<rect width="24" height="24" rx="12" fill="#737A86"/>
<mask id="mask0_175_183" style="mask-type:alpha" maskUnits="userSpaceOnUse" x="4" y="4" width="16" height="16">
<rect x="4" y="4" width="16" height="16" fill="#D9D9D9"/>
</mask>
<g mask="url(#mask0_175_183)">
<path d="M8.20517 18.3333C7.86839 18.3333 7.58333 18.2167 7.35 17.9833C7.11667 17.75 7 17.4649 7 17.1282V9.5385C7 9.20172 7.11667 8.91667 7.35 8.68333C7.58333 8.45 7.86839 8.33333 8.20517 8.33333H9.5V8.16667C9.5 7.47611 9.744 6.88678 10.232 6.39867C10.7201 5.91067 11.3094 5.66667 12 5.66667C12.6906 5.66667 13.2799 5.91067 13.768 6.39867C14.256 6.88678 14.5 7.47611 14.5 8.16667V8.33333H15.7948C16.1316 8.33333 16.4167 8.45 16.65 8.68333C16.8833 8.91667 17 9.20172 17 9.5385V17.1282C17 17.4649 16.8833 17.75 16.65 17.9833C16.4167 18.2167 16.1316 18.3333 15.7948 18.3333H8.20517ZM8.20517 17.3333H15.7948C15.8462 17.3333 15.8932 17.3119 15.9358 17.2692C15.9786 17.2265 16 17.1795 16 17.1282V9.5385C16 9.48717 15.9786 9.44017 15.9358 9.3975C15.8932 9.35472 15.8462 9.33333 15.7948 9.33333H14.5V10.8333C14.5 10.9752 14.4521 11.094 14.3563 11.1897C14.2607 11.2854 14.1419 11.3333 14 11.3333C13.8581 11.3333 13.7393 11.2854 13.6437 11.1897C13.5479 11.094 13.5 10.9752 13.5 10.8333V9.33333H10.5V10.8333C10.5 10.9752 10.4521 11.094 10.3563 11.1897C10.2607 11.2854 10.1419 11.3333 10 11.3333C9.85811 11.3333 9.73933 11.2854 9.64367 11.1897C9.54789 11.094 9.5 10.9752 9.5 10.8333V9.33333H8.20517C8.15383 9.33333 8.10683 9.35472 8.06417 9.3975C8.02139 9.44017 8 9.48717 8 9.5385V17.1282C8 17.1795 8.02139 17.2265 8.06417 17.2692C8.10683 17.3119 8.15383 17.3333 8.20517 17.3333ZM10.5 8.33333H13.5V8.16667C13.5 7.74878 13.3545 7.39428 13.0635 7.10317C12.7725 6.81217 12.418 6.66667 12 6.66667C11.582 6.66667 11.2275 6.81217 10.9365 7.10317C10.6455 7.39428 10.5 7.74878 10.5 8.16667V8.33333Z" fill="#F9F6F4"/>
</g>
</svg>
