<?xml version="1.0" encoding="UTF-8"?>
<svg id="Layer_2" data-name="Layer 2" xmlns="http://www.w3.org/2000/svg" viewBox="0 0 47.92 47.9">
  <defs>
    <style>
      .cls-1 {
        fill: #1f567d;
      }
    </style>
  </defs>
  <g id="Layer_1-2" data-name="Layer 1">
    <path class="cls-1" d="M47.9,22.36l-.31-2.36C45.94,9.99,37.91,1.95,27.89.31l-2.35-.31h-3.19C2.13,1.18-7.48,26.2,6.82,40.75c14.47,14.72,39.84,5.25,41.08-15.21.06-1.04-.05-2.13,0-3.18ZM21.02,37.02c-2.05,1.65-4.99-.13-4.81-2.67.1-1.32,1.22-2.61,2.55-2.78,3.09-.38,4.69,3.5,2.26,5.45ZM30.88,37.39c-2.45,1.03-4.91-1.24-4.12-3.76.31-1,1.34-1.92,2.4-2.06,3.69-.47,4.9,4.49,1.72,5.82ZM33.9,28.49c-.45,1.05-1.47,1.8-2.6,1.95h-13.06c-1.81-.37-2.55-1.5-2.84-3.21-.65-3.8-.98-7.67-1.66-11.46-.06-.34-.01-.71-.42-.75-.79-.09-1.89.13-2.64-.02-.42-.09-.76-.51-.87-.9v-.52c.2-.5.53-.86,1.1-.92.72-.07,2.63-.06,3.29.14,1.81.57,1.88,2.45,2.07,4.03l.07.08h18.64c.6.09,1.03.55,1.05,1.16-.67,3.47-1.29,6.98-2.13,10.42Z"/>
  </g>
</svg>