<svg width="110" height="111" viewBox="0 0 110 111" fill="none" xmlns="http://www.w3.org/2000/svg">
<rect y="0.5" width="110" height="110" rx="55" fill="#B39384"/>
<g clip-path="url(#clip0_490_1360)">
<path d="M46.3753 37.1848C47.1253 37.1848 48.0003 36.9846 48.2753 37.8853L48.3503 45.0413C53.6753 48.294 56.5753 54.1239 56.0003 60.3791H60.8253V55.2498C60.8253 54.8495 61.5003 54.5993 61.8503 54.5742C65.5253 54.249 69.7003 54.8495 73.4503 54.5742C73.7503 54.4992 74.3503 54.9996 74.3503 55.2498V60.3791H82.6253C83.6503 60.3791 85.1003 62.0305 84.9753 63.0813V82.8978C84.8253 84.3491 83.6003 85.475 82.1503 85.5H29.6753C27.3253 85.3499 25.4503 83.5234 25.1503 81.1964C25.4753 73.4149 24.7003 65.2581 25.1503 57.5267C25.4503 52.3224 28.4503 47.7435 32.8253 45.0413L32.9003 37.8853C33.1753 37.0096 34.0503 37.2098 34.8003 37.1848V26.2506C34.8003 25.8503 35.4753 25.6001 35.8253 25.5751C38.9003 25.2998 42.3753 25.8003 45.4753 25.5751C45.7753 25.5 46.3753 26.0004 46.3753 26.2506V37.1848ZM44.4503 27.5267H36.7253V37.1848H44.4503V35.2581C39.3003 35.9087 39.3003 28.8028 44.4503 29.4533V27.5267ZM44.4503 31.3799C41.8753 30.9796 41.9003 33.7319 44.4503 33.3065V31.3799ZM46.3753 39.1114H34.8003V44.0655C38.5503 42.6143 42.6253 42.5893 46.3753 44.0655V39.1114ZM29.5503 83.5484H50.3753L50.2503 81.6218H31.3503C30.3753 81.6218 28.9503 80.0455 29.0003 79.0196V59.3282C28.9253 59.028 29.4253 58.4275 29.6503 58.4275H48.3003V60.3541H30.9253V67.7102C32.2003 66.9345 33.6753 66.9095 34.9003 67.7853C35.5003 68.2106 35.8753 69.0613 36.7753 69.0363C37.6003 69.0113 37.9753 68.1856 38.5503 67.7853C39.7253 66.9345 41.2753 66.9095 42.4753 67.6852C43.1253 68.1105 43.6003 69.0613 44.5003 69.0363C45.3253 69.0113 45.7003 68.1856 46.2753 67.7853C47.5003 66.9095 48.9753 66.9345 50.2503 67.7102V62.706C50.2503 62.5309 50.5753 61.8803 50.6753 61.6802C51.4503 60.4541 52.7253 60.229 54.1003 60.329C54.4753 55.2748 52.6253 50.3958 48.4753 47.4183C39.7003 41.1881 27.7253 47.068 27.0753 57.7269C26.6003 65.2331 27.4253 73.2398 27.0753 80.7961C27.1503 82.0722 28.2753 83.3232 29.5503 83.5234V83.5484ZM72.4503 56.5008H62.8003V60.3541H72.4503V56.5008ZM82.7753 62.5809C82.6003 62.4058 82.1503 62.3057 81.9003 62.3057H53.3003C52.4753 62.3807 52.2253 62.656 52.1503 63.4566C52.5753 69.5617 51.6003 76.3924 52.1503 82.4225C52.2003 82.9479 52.3253 83.3732 52.8753 83.4983L81.9003 83.5734C82.7253 83.4983 82.9753 83.2231 83.0503 82.4225C82.6253 76.3174 83.6003 69.4616 83.0503 63.4566C83.0503 63.2064 82.9503 62.7811 82.7753 62.5809ZM50.2503 79.6952V70.4625C50.2503 70.4625 49.2753 69.4617 49.1503 69.3866C47.6503 68.4108 47.0503 70.1873 45.9003 70.7127C44.9253 71.1631 43.8003 71.1381 42.8503 70.6376C41.8003 70.0872 41.2503 68.5109 39.8253 69.3365C39.4503 69.5617 39.1503 70.0621 38.7753 70.3374C37.6003 71.1881 36.0503 71.2131 34.8503 70.4375C33.9503 69.862 33.5253 68.6109 32.2003 69.3115C31.8503 69.4867 31.0003 70.3374 30.9503 70.7127C31.1753 73.2398 30.6753 76.2173 30.9503 78.6943C31.0003 79.0947 31.3003 79.7202 31.7253 79.7202H50.2503V79.6952Z" fill="#F9F6F4"/>
<path d="M82.3749 32.5058C82.1249 32.756 81.6999 33.3065 81.4999 33.6317C81.0499 34.3824 80.9749 35.5583 79.7749 35.183C79.1999 35.0079 79.0999 34.1822 78.8499 33.7068C78.3999 32.9312 77.6999 32.2056 76.9249 31.7552C76.1499 31.3048 74.9999 31.2297 75.3749 30.0287C75.5499 29.4533 76.3749 29.3532 76.8499 29.103C77.6249 28.6526 78.3499 27.952 78.7999 27.1764C79.1249 26.6259 79.1999 25.6751 79.9749 25.575C81.0499 25.4499 81.0499 26.4007 81.4499 27.1013C81.7749 27.6768 82.4749 28.4274 82.9999 28.8027C83.5749 29.2281 84.7999 29.4533 84.9499 30.1288C85.1999 31.2798 84.0999 31.3298 83.3749 31.7552C83.0749 31.9303 82.5999 32.2556 82.3749 32.5058ZM80.2749 28.7277L80.0249 28.8027C79.6249 29.3532 79.0749 30.0037 78.4749 30.304L78.5499 30.5542C79.0999 30.9545 79.7499 31.505 80.0499 32.1055L80.2999 32.0304C80.6999 31.4799 81.2499 30.8294 81.8499 30.5292L81.7749 30.2789C81.2249 29.8786 80.5749 29.3282 80.2749 28.7277Z" fill="#F9F6F4"/>
<path d="M63.0751 46.0421C62.8251 46.2923 62.4001 46.8427 62.2001 47.168C61.7501 47.9186 61.6751 49.0946 60.4751 48.7193C59.9001 48.5441 59.8001 47.7185 59.5501 47.2431C59.1001 46.4674 58.4001 45.7418 57.6251 45.2914C56.8501 44.8411 55.7001 44.766 56.0751 43.565C56.2501 42.9895 57.0751 42.8894 57.5501 42.6392C58.3251 42.1888 59.0501 41.4883 59.5001 40.7126C59.8251 40.1622 59.9001 39.2114 60.6751 39.1113C61.7501 38.9862 61.7501 39.937 62.1501 40.6376C62.4751 41.213 63.1751 41.9637 63.7001 42.339C64.2751 42.7643 65.5001 42.9895 65.6501 43.6651C65.9001 44.816 64.8001 44.8661 64.0751 45.2914C63.7751 45.4666 63.3001 45.7919 63.0751 46.0421ZM60.9751 42.2639L60.7251 42.339C60.3251 42.8894 59.7751 43.54 59.1751 43.8402L59.2501 44.0904C59.8001 44.4908 60.4501 45.0412 60.7501 45.6417L61.0001 45.5667C61.4001 45.0162 61.9501 44.3657 62.5501 44.0654L62.4751 43.8152C61.9251 43.4149 61.2751 42.8644 60.9751 42.2639Z" fill="#F9F6F4"/>
<path d="M50.9004 34.5325L53.7254 37.3848C53.8254 37.7602 52.7004 38.5358 52.4754 38.8611L49.5254 35.9086L50.9004 34.5325Z" fill="#F9F6F4"/>
<path d="M52.3754 25.9754C52.6504 25.9004 53.8004 27.0513 53.7254 27.3266L50.9004 30.1789L49.5254 28.8028L52.3754 25.9754Z" fill="#F9F6F4"/>
<path d="M55.0502 31.3799H51.2002V33.3065H55.0502V31.3799Z" fill="#F9F6F4"/>
<path d="M54.7997 66.1839H80.1247C80.7247 66.1339 81.1747 66.5592 81.1497 67.1848C80.8497 71.5134 81.5247 76.3424 81.1497 80.5959C81.0997 81.0213 81.0497 81.3215 80.6247 81.5217L55.1247 81.6218C54.5747 81.6468 54.1247 81.2715 54.0997 80.721C54.3997 76.3674 53.6997 71.4883 54.0997 67.1848C54.1497 66.6843 54.2747 66.3591 54.7997 66.1839ZM79.1997 68.0855H56.0247V79.6702H79.1997V68.0855Z" fill="#F9F6F4"/>
<path d="M66.6496 72.9396C66.6496 73.5901 66.6496 74.2407 66.6496 74.8662C65.9996 74.8662 65.3496 74.8662 64.7246 74.8662V72.9396C65.3746 72.9396 66.0246 72.9396 66.6496 72.9396Z" fill="#F9F6F4"/>
<path d="M66.6504 72.9395C66.6504 72.289 66.6504 71.6385 66.6504 71.0129H68.5754C68.5754 71.6635 68.5754 72.314 68.5754 72.9395C67.9254 72.9395 67.2754 72.9395 66.6504 72.9395Z" fill="#F9F6F4"/>
<path d="M68.5752 72.9396C69.2252 72.9396 69.8752 72.9396 70.5002 72.9396V74.8662C69.8502 74.8662 69.2002 74.8662 68.5752 74.8662C68.5752 74.2156 68.5752 73.5651 68.5752 72.9396Z" fill="#F9F6F4"/>
<path d="M68.5754 74.8661C68.5754 75.5166 68.5754 76.1672 68.5754 76.7927H66.6504C66.6504 76.1422 66.6504 75.4916 66.6504 74.8661C67.3004 74.8661 67.9504 74.8661 68.5754 74.8661Z" fill="#F9F6F4"/>
</g>
<defs>
<clipPath id="clip0_490_1360">
<rect width="60" height="60" fill="white" transform="translate(25 25.5)"/>
</clipPath>
</defs>
</svg>
