<svg width="110" height="111" viewBox="0 0 110 111" fill="none" xmlns="http://www.w3.org/2000/svg">
<rect y="0.5" width="110" height="110" rx="55" fill="#B39384"/>
<g clip-path="url(#clip0_490_1379)">
<path d="M39.2298 28.7365C39.4278 28.7365 39.6258 28.6369 39.8238 28.4875C39.7248 28.612 39.6753 28.7863 39.6506 28.9855C39.6258 29.3838 39.799 29.7324 40.096 29.8568C40.294 29.9564 40.8385 29.9564 41.0612 29.9564C41.185 29.9564 42.1996 29.9564 42.4471 29.7821C42.6946 29.6328 42.8183 29.3091 42.8183 28.9855C42.8183 28.6618 42.6204 28.388 42.3729 28.2635C42.1006 28.139 41.1355 28.139 41.0117 28.139C40.8137 28.139 40.3683 28.139 40.1703 28.1888C40.0465 28.2137 39.9475 28.3133 39.8485 28.4129C40.1455 28.139 40.2445 27.0933 40.1208 26.3963C40.0465 25.8983 39.8485 25.5747 39.5516 25.4502H38.7844C38.2152 25.8485 38.0914 26.9689 38.3389 27.7904C38.5121 28.3631 38.8339 28.6867 39.2051 28.6867L39.2298 28.7365Z" fill="#F9F6F4"/>
<path d="M81.2529 60.7033C80.7085 60.5291 80.1888 60.4295 79.669 60.4295C78.6791 60.4295 77.7882 60.7531 77.0952 61.1266C76.328 60.4046 75.1154 59.5581 73.581 59.5581C73.3582 59.5581 73.1602 59.5581 72.9375 59.6079C72.69 59.6577 72.3188 59.832 71.9476 60.0062C71.7248 60.1058 71.4031 60.2552 71.3289 60.2552C71.2299 60.2552 70.9576 60.056 70.7844 59.9315C70.6112 59.8071 70.4132 59.6826 70.2894 59.6079C69.4975 59.2344 68.6808 59.0353 67.8393 59.0353C66.9979 59.0353 66.2307 59.2096 65.414 59.5581C64.9438 59.7573 64.2756 60.1556 63.6074 60.5788C62.667 61.1515 61.677 61.7739 61.1573 61.8735C60.7861 61.9481 60.1179 61.9979 59.2517 61.9979C57.3708 61.9979 55.1435 61.8237 54.2525 61.5996C53.6586 61.4502 53.0893 61.1515 52.5449 60.9025C52.1242 60.7033 51.7034 60.4793 51.258 60.3299C49.8968 59.832 48.4862 59.583 47.026 59.583C44.4274 59.583 41.8784 60.4046 39.8737 61.8983C39.4778 62.1971 39.0818 62.5457 38.7106 62.9191C37.8444 63.7407 36.9287 64.5871 35.8893 64.7863C35.7903 64.5622 35.6913 64.139 35.5675 63.666C35.2706 62.4959 35.0478 61.6494 34.7508 61.3755C34.6271 61.251 34.4786 61.1764 34.2806 61.1266H25.9404C25.5197 61.1266 25.1732 61.3506 25 61.8237L27.6728 84.4793C27.7718 84.9772 27.8956 85.4751 28.6133 85.5H40.9132C41.4576 85.5 41.8536 85.0768 41.8536 84.4793L40.2202 79.1266L45.2194 75.89C45.7391 75.6909 46.1351 75.5913 46.729 75.5913H46.8033C48.7831 75.7407 50.7878 76.2137 52.7676 76.6618C55.1682 77.2095 57.643 77.7822 60.0436 77.7822C62.4442 77.7822 64.5726 77.2096 66.4782 75.9896C69.448 74.1224 72.3683 72.0062 75.2143 69.9647C77.9367 67.9979 80.758 65.9564 83.6288 64.139C83.9505 63.8403 84.0742 63.4917 83.9753 63.1183C83.7525 62.0477 82.0696 60.9523 81.2529 60.6784V60.7033ZM75.4371 62.0726L68.5818 65.7822C68.5818 65.7822 68.4581 65.5083 68.4086 65.4087C68.3838 65.2842 68.3343 65.1847 68.2848 65.11C68.2106 64.9606 68.1116 64.8361 68.0126 64.6867C67.9136 64.5622 67.8393 64.4378 67.7156 64.4378L73.086 61.5C73.2345 61.4751 73.383 61.4502 73.5562 61.4502C74.2492 61.4502 74.8926 61.6992 75.3133 61.973C75.3381 61.9979 75.3876 62.0477 75.4371 62.0726ZM69.5717 61.1515L66.4782 62.9689L65.1913 62.471L64.5231 62.1473C65.711 61.4751 66.7752 60.9025 67.9383 60.9025C68.4086 60.9025 68.854 60.9772 69.2995 61.0519C69.3985 61.0768 69.4727 61.1017 69.5717 61.1515ZM39.7747 83.6079L29.5042 83.7075L26.9551 62.9689L33.4144 62.8942L38.3641 79.0021L39.75 83.6328L39.7747 83.6079ZM39.6758 77.3838L36.3347 66.6784C37.7206 66.2303 38.7601 65.3091 39.7747 64.4129C40.5667 63.7158 41.3834 62.9938 42.3486 62.5208C43.7592 61.8237 45.3679 61.4502 46.9765 61.4502C48.0159 61.4502 49.0554 61.5996 50.0453 61.8983C50.6393 62.0726 51.1837 62.3465 51.7034 62.5954C52.1737 62.8195 52.6439 63.0436 53.1388 63.2178C54.203 63.5913 55.4652 63.7407 57.2223 63.7407C57.9153 63.7407 58.633 63.7407 59.3259 63.6909C60.0189 63.6909 60.6871 63.6411 61.3553 63.6411C61.776 63.6411 62.172 63.6411 62.568 63.666C64.6221 63.7905 65.9585 64.6369 66.7504 66.0809C66.8742 66.3548 67.0227 66.6037 67.0969 66.9274C66.3792 66.8527 65.6615 66.8278 64.9438 66.8278C64.5726 66.8278 64.2013 66.8278 63.8549 66.8278L62.6175 66.778C61.7513 66.7282 60.7861 66.6784 59.8704 66.6784C58.5835 66.6784 57.5688 66.778 56.7521 66.9772C56.4056 67.0519 56.1581 67.3257 56.0591 67.6494C55.9602 67.973 56.0591 68.3216 56.3066 68.5705C56.4799 68.7448 56.7521 68.8195 57.1481 68.8195C57.5193 68.8195 57.94 68.7448 58.336 68.695C58.6082 68.6452 58.8557 68.6203 59.0537 68.5954C59.6724 68.5954 60.3159 68.5705 60.9593 68.5705C61.776 68.5705 62.5927 68.5705 63.3599 68.5954C63.8301 68.5954 64.3993 68.6701 65.018 68.7199C65.7852 68.7946 66.6019 68.8693 67.2701 68.8693C67.5919 68.8693 67.8641 68.8693 68.1116 68.8195C68.8788 68.695 68.8788 68.1722 68.8045 67.6743L78.4316 62.4959C78.7781 62.3714 79.1246 62.2967 79.4958 62.2967C80.263 62.2967 81.0055 62.5954 81.5747 62.944C81.6242 62.9938 81.6737 63.0187 81.7232 63.0685L65.315 74.4959C63.7559 75.4419 61.9492 75.89 59.7714 75.89C57.2966 75.89 54.6732 75.2925 52.1489 74.7448C50.1195 74.2967 48.2139 73.8486 46.3826 73.7241C44.6007 73.9481 43.0663 74.9689 41.6061 75.9896C40.9627 76.4378 40.3192 76.8859 39.7747 77.3091C39.7005 77.334 39.651 77.3838 39.5768 77.4087L39.6758 77.3838Z" fill="#F9F6F4"/>
<path d="M42.7938 50.0726C45.4419 54.056 49.6986 56.3216 54.4503 56.3216C60.8353 56.3216 66.3047 52.2386 68.0371 46.1639C69.2992 41.807 68.4578 37.2012 65.7355 33.5913C63.0627 30.0062 59.0039 27.9647 54.5987 27.9647C54.3018 27.9647 54.0048 27.9647 53.7078 27.9896C48.5849 28.3133 44.1797 31.251 41.8781 35.9066C39.6013 40.5124 39.9477 45.8153 42.7938 50.0726ZM54.574 29.8319C59.2514 29.8319 63.4339 32.4958 65.488 36.778C67.5669 41.0851 67.0224 46.1141 64.0774 49.8734C61.8005 52.7863 58.311 54.4543 54.5492 54.4543C49.9213 54.4543 45.7636 51.9647 43.6847 47.9813C41.7296 44.222 41.8039 39.7904 43.858 36.1307C45.8873 32.4958 49.5748 30.1556 53.7326 29.8817C54.0295 29.8817 54.3018 29.8568 54.5987 29.8568L54.574 29.8319Z" fill="#F9F6F4"/>
<path d="M39.3045 29.4585H39.057C38.4135 29.6079 38.166 30.5041 38.2403 31.3257C38.3145 32.1473 38.7105 32.6701 39.2302 32.6701C39.4034 32.6701 39.6014 32.5954 39.7994 32.4709C40.3686 32.1224 40.1706 30.3299 40.1706 30.3299C40.0964 29.7821 39.7994 29.4585 39.3292 29.4585H39.3045Z" fill="#F9F6F4"/>
<path d="M73.9765 38.446C73.5806 38.446 73.1351 38.6701 73.0114 39.0933C72.8629 39.6162 72.8381 41.3589 73.6053 41.583C73.7043 41.6079 73.8281 41.6328 73.927 41.6328C74.323 41.6328 74.5952 41.3838 74.7685 40.9108C75.016 40.1639 74.8922 38.9191 74.5458 38.6203C74.3973 38.4958 74.1993 38.4211 73.9765 38.4211V38.446Z" fill="#F9F6F4"/>
<path d="M73.4576 37.5C73.6556 37.5996 73.8289 37.6743 73.9774 37.6743C74.2001 37.6743 74.3733 37.5747 74.5218 37.4004C74.9673 36.8527 74.9425 35.6328 74.8188 35.1348C74.7198 34.6867 74.2496 34.4626 73.8784 34.4626C73.6556 34.4626 73.4329 34.5373 73.2844 34.6618C72.9874 34.8859 72.8884 35.6577 72.9379 36.2801C72.9379 36.5788 73.0617 37.2759 73.4576 37.5249V37.5Z" fill="#F9F6F4"/>
<path d="M72.0715 39.0187C72.3933 39.0187 72.7397 38.9689 72.9377 38.9191C73.21 38.8444 73.4327 38.5954 73.5069 38.2718C73.5812 37.9232 73.5069 37.5747 73.2842 37.3755C73.0367 37.1266 72.4675 37.0519 72.022 37.0519C71.3538 37.0519 70.7846 37.2262 70.5371 37.5498C70.3887 37.7241 70.3144 37.9481 70.3639 38.1971C70.4381 38.7199 71.0816 39.0436 72.0963 39.0436L72.0715 39.0187Z" fill="#F9F6F4"/>
<path d="M74.3237 37.7739C74.2494 37.973 74.1999 38.2967 74.5712 38.6701C74.8434 38.944 75.8086 38.9689 76.1056 38.9689C76.452 38.9689 76.749 38.944 76.8975 38.8942C77.1697 38.8195 77.3925 38.5705 77.4667 38.2469C77.541 37.8983 77.4667 37.5498 77.244 37.3506C76.9965 37.1266 76.6005 37.0021 76.1056 37.0021C75.3879 37.0021 74.5712 37.2759 74.3484 37.7739H74.3237Z" fill="#F9F6F4"/>
<path d="M36.3593 29.9565C36.3593 29.9565 36.7552 29.9814 37.0522 29.9814C37.176 29.9814 38.1659 29.9814 38.4134 29.8569C38.6114 29.7822 38.7599 29.583 38.8094 29.2843C38.8836 28.9357 38.7846 28.5374 38.5866 28.3382C38.3886 28.139 37.473 28.139 37.077 28.139C36.9285 28.139 36.4335 28.139 36.2603 28.1888C35.8643 28.3133 35.7158 28.7117 35.7158 29.0851C35.7158 29.5332 35.9881 29.8569 36.3593 29.9316V29.9565Z" fill="#F9F6F4"/>
<path d="M31.6079 80.1473C31.4347 80.9938 31.7069 81.8901 32.3256 82.5125C32.7711 82.9606 33.3898 83.2096 34.0828 83.2096C35.0479 83.2096 35.9389 82.7116 36.3348 81.9398C36.7803 81.0685 36.7556 80.0975 36.2854 79.3008C35.8151 78.5291 35.0232 78.056 34.1322 78.056C33.7858 78.056 33.4145 78.1307 33.0681 78.2801C32.2761 78.6286 31.7317 79.3008 31.5832 80.1473H31.6079ZM34.0085 79.9233L34.1322 79.7988V79.8984C34.553 79.8984 34.8005 80.2967 34.8005 80.6452C34.8005 80.9689 34.652 81.3174 34.0828 81.3672C33.662 81.3672 33.4393 81.0187 33.4145 80.695C33.3898 80.3714 33.5383 79.9979 33.9838 79.9233H34.0085Z" fill="#F9F6F4"/>
<path d="M52.8417 41.9564C52.6685 41.9564 52.4705 41.9564 52.2478 41.9564C51.9755 41.9564 51.6785 41.9315 51.3568 41.9315C50.3669 41.9315 49.7977 42.0809 49.5502 42.4294C49.4017 42.6286 49.377 42.8776 49.5007 43.2261C51.6538 45.5664 54.0049 47.7572 55.861 49.4253L56.1332 49.4751C56.5045 49.4751 56.8509 49.251 56.9994 48.9025C57.1479 48.5788 57.0984 48.2552 56.8757 47.9564L54.2771 45.5664L52.5695 43.8734C54.8463 43.8236 56.7025 42.3298 56.9994 40.3381C57.0737 40.3381 57.1727 40.3381 57.2717 40.3381H58.1379C58.5586 40.3381 59.103 40.3381 59.3505 39.9896C59.499 39.7904 59.5485 39.5415 59.4743 39.2178C59.3258 38.446 58.3111 38.446 57.8409 38.446C57.8409 38.446 57.2469 38.446 57.2222 38.446C57.1232 38.446 57.0489 38.446 57.0489 38.4958L56.3807 37.3008L56.158 36.8029H58.8308C59.1525 36.8029 59.4248 36.4543 59.4743 36.0311C59.5238 35.6327 59.3505 35.1099 58.7071 34.9605C57.9894 34.9605 57.2717 34.9357 56.5292 34.9357H52.8912H51.6538C51.5548 34.9357 51.4063 34.9357 51.2578 34.9108C51.0598 34.9108 50.8124 34.861 50.5896 34.861C49.9462 34.861 49.5749 35.1099 49.5007 35.583C49.4512 35.9066 49.5007 36.1805 49.6492 36.3796C49.9214 36.7033 50.4659 36.7531 50.9113 36.7531C51.1093 36.7531 52.0993 36.7282 52.0993 36.7282C53.4604 36.8278 54.3514 37.1265 54.9701 37.973C55.0691 38.1224 55.1681 38.2718 55.2423 38.4709H50.0204L49.8224 38.5705L49.7729 38.6203C49.5997 38.7946 49.377 39.2427 49.377 39.4917C49.4017 39.8402 49.8719 40.3879 50.2184 40.3879L53.9306 40.2635H55.1433C54.7968 41.2095 53.9554 41.9066 52.7675 42.0062L52.8417 41.9564Z" fill="#F9F6F4"/>
</g>
<defs>
<clipPath id="clip0_490_1379">
<rect width="59" height="60" fill="white" transform="translate(25 25.5)"/>
</clipPath>
</defs>
</svg>
