<svg width="110" height="111" viewBox="0 0 110 111" fill="none" xmlns="http://www.w3.org/2000/svg">
<rect y="0.5" width="110" height="110" rx="55" fill="#B39384"/>
<g clip-path="url(#clip0_490_1388)">
<path d="M52.3186 25.5L56.3286 29.425C56.7547 30.325 56.1031 31.05 55.1507 30.725L51.7422 27.325H50.1131L58.1332 35.375C59.4615 37.675 56.8048 40.075 54.6494 38.5L43.4464 27.375L41.7422 27.325L53.7723 39.325C55.7021 40.85 57.5567 39.475 59.6369 41.1C60.0129 41.4 61.3161 42.9 61.5417 42.95C61.8174 43.025 62.469 42.375 62.3938 42.1C62.3186 41.85 60.7146 40.5 60.4139 40.075C59.0103 38.25 60.1131 36.525 59.0605 34.75C58.6344 34.05 56.7296 32.8 58.0329 32.05C59.0354 31.475 60.6144 33.675 60.9652 34.5C61.5166 35.8 61.2159 36.6 61.3913 37.825C61.667 39.95 64.6244 40.35 64.1733 42.725C64.073 43.325 63.0705 44.375 62.5191 44.6C60.1883 45.5 59.3863 42.175 57.3061 41.9C55.4264 41.65 54.5241 42.175 52.7948 40.775L39.0354 27.1C38.7347 26.5 38.9352 25.875 39.5116 25.5H52.3186ZM45.8525 27.25L55.4765 36.925C56.2535 37.65 57.0555 36.925 56.4289 36.1L47.5567 27.25H45.8525Z" fill="#F9F6F4"/>
<path d="M78.3331 54.1999C77.7065 54.0249 77.4308 52.5749 78.5586 52.4499C80.2378 52.2499 82.318 52.5749 84.0473 52.4749C84.5987 52.6999 84.8744 53.0999 84.9496 53.6749C85.0248 54.2999 85.0499 56.6499 84.724 57.0749C84.5737 57.2749 84.2729 57.3499 84.1977 57.4749C84.0975 57.6249 84.0724 60.6999 84.1476 61.0499C84.2228 61.3999 84.6739 61.5749 84.8243 61.8999C85.0248 62.2749 85.0248 65.4249 84.9496 65.9749C84.8494 66.6749 84.3732 66.6999 84.1977 66.9749C83.9972 67.2999 84.1977 70.3999 84.1476 71.1249C84.0975 71.7749 83.8218 72.5749 83.6714 73.2249C82.9195 76.3499 81.9421 80.5999 80.8895 83.5749C80.313 85.1749 78.7842 85.9499 77.1802 85.1999C76.1025 84.6999 75.902 83.5749 75.6012 82.5749C74.6238 79.3499 72.694 73.2249 72.5185 70.0749C72.4684 69.2999 72.6689 67.6749 72.4935 67.0499C72.4684 66.9499 72.1927 66.6499 72.1175 66.5999C71.7917 66.4249 69.3857 66.4249 69.0599 66.5999C68.9596 66.6499 68.709 66.9249 68.6839 67.0499C68.4834 67.7249 68.709 69.5499 68.6839 70.4249C68.6839 70.7749 68.5837 71.3249 68.5336 71.6749C67.8569 75.6499 66.0524 79.9499 65.2253 83.9499C64.3481 85.8499 61.8168 86.0499 60.6639 84.2749C59.6113 80.3249 58.0072 75.9999 57.2554 71.9749C57.1802 71.5999 57.0799 71.2499 57.0549 70.8999C56.9797 70.0249 57.2554 67.6249 57.0549 67.0499C57.0549 67.0249 56.5536 66.5249 56.5286 66.4999C56.3281 66.4499 54.0223 66.4499 53.7215 66.4999C53.521 66.5249 53.2955 66.9249 53.095 67.0499L53.0448 71.2249L49.6864 83.8999C48.6589 86.0749 45.7767 86.0249 44.8744 83.7749C44.1977 79.6749 41.7917 74.6749 41.4659 70.6499C41.3907 69.7249 41.6664 67.7749 41.4408 67.0499C41.4158 66.9499 41.1401 66.6499 41.0649 66.5999C40.7391 66.4249 38.3331 66.4249 38.0072 66.5999C37.907 66.6499 37.6564 66.9249 37.6313 67.0499C37.4559 67.6499 37.6313 69.1999 37.6313 69.9499C37.3807 74.2999 35.0248 79.3249 34.2228 83.6499C33.4208 86.0499 30.2378 86.0999 29.3105 83.7249C27.8569 79.9749 27.2804 75.0999 26.0022 71.1999C25.927 70.4499 26.1275 67.2499 25.927 66.9499C25.6764 66.5499 25.2504 66.6999 25.1501 65.7249C25.0749 64.9749 25.0499 62.8999 25.1501 62.1999C25.2504 61.6249 25.7516 61.4999 25.902 61.1999C26.0022 60.9499 26.0022 57.6249 25.902 57.4499C25.8268 57.3249 25.526 57.2249 25.3757 57.0499C25.0499 56.5999 25.0248 53.5499 25.2754 53.0749C25.4509 52.7249 25.9772 52.3749 26.3782 52.3999C29.8118 52.6499 33.6714 52.0999 37.0799 52.3999C37.7316 52.4499 38.2328 52.8749 38.308 53.5249C38.3832 54.1249 38.3832 56.5749 38.1326 56.9749C38.0323 57.1499 37.7316 57.2999 37.6814 57.4499C37.5812 57.6499 37.5561 60.7999 37.6062 61.1499C37.6313 61.2749 38.0072 61.6749 38.1326 61.6749C38.5837 61.7249 40.4383 61.7499 40.8393 61.6749C40.9646 61.6749 41.4659 61.3249 41.491 61.2499C41.5411 61.0249 41.5411 57.9499 41.491 57.6499C41.4158 57.2749 40.8644 57.0749 40.714 56.2999C40.5386 55.2749 40.4133 52.6499 41.7917 52.4249C45.2504 52.6749 49.1852 52.0749 52.5937 52.4249C53.2704 52.4999 53.8218 52.8249 53.922 53.5499C54.0223 54.2249 54.0223 56.6249 53.6213 57.0999C53.4709 57.2749 53.2203 57.3499 53.1451 57.4499C53.0448 57.6249 53.0198 61.1249 53.12 61.2999C53.12 61.3249 53.6463 61.6499 53.7466 61.6749C54.0724 61.7499 56.1025 61.7499 56.4534 61.6749C56.5787 61.6749 57.0799 61.3249 57.105 61.2499V57.6499C57.0549 57.3499 56.4283 57.1749 56.303 56.5749C56.2027 56.0749 56.2027 53.8499 56.3281 53.3749C56.4534 52.8999 56.8544 52.5999 57.3055 52.4749C60.8143 52.6749 64.7491 52.1249 68.2077 52.4499C69.8368 52.5999 69.6864 55.0249 69.511 56.2249C69.3857 57.0999 68.9847 57.0749 68.7842 57.4999C68.4834 58.1749 68.8844 60.4249 68.7341 61.2749C68.7341 61.3249 69.2353 61.6749 69.2854 61.6749C69.6113 61.7749 71.6915 61.7499 72.0925 61.6999C72.1927 61.6999 72.5687 61.3249 72.5937 61.2749C72.6689 61.0499 72.6689 57.9749 72.5937 57.6749C72.5185 57.3249 72.0925 57.1749 71.9922 56.8749C71.8418 56.5249 71.8418 53.9249 71.917 53.4499C72.0925 52.2749 73.7717 52.3499 74.6739 52.4499C75.8519 52.5749 75.8017 54.0499 74.7742 54.1999C74.4233 54.2499 74.0223 54.1999 73.6714 54.1999C73.7466 54.6249 73.5712 55.3749 73.6714 55.7749C73.7466 55.9749 74.4734 56.2749 74.4734 56.7249V61.1249H82.4684V56.6249C82.4684 56.2249 83.2955 55.9249 83.2955 55.8749V54.2249H78.4333L78.3331 54.1999ZM36.4534 54.1999H26.8293V55.8499C26.8293 55.8499 27.6564 56.1999 27.6564 56.5999V61.0999H35.6514V56.6999C35.6514 56.2249 36.3782 55.9249 36.4534 55.7499C36.5787 55.3749 36.4032 54.6249 36.4534 54.1999ZM52.0674 54.1999H42.4433C42.5185 54.6249 42.3431 55.3749 42.4433 55.7499C42.4935 55.9249 43.12 56.2249 43.12 56.3499V61.0999H51.2153V56.4749C51.2153 56.0249 52.0423 55.8749 52.0423 55.8249V54.1749L52.0674 54.1999ZM67.5812 54.1999H57.9571V55.8499C57.9571 55.8499 58.7842 56.0249 58.7842 56.4999V61.1249H66.8794V56.3749C66.8794 56.2249 67.506 55.9499 67.5561 55.7749C67.6814 55.3999 67.506 54.6499 67.5561 54.2249L67.5812 54.1999ZM36.4534 62.8749H26.8293V65.3249H36.4534V62.8749ZM52.0674 62.8749H42.4433V65.3249H44.4985C44.8744 65.3249 45.2002 66.0249 45.125 66.3999C44.8995 67.4999 43.4458 66.8499 43.1952 67.1749C42.9697 69.1249 43.1952 70.8499 43.6463 72.7249C44.3732 75.8249 45.3506 79.9249 46.3782 82.8999C46.6539 83.6749 46.9797 83.9999 47.7817 83.4999L51.2403 70.8999V67.0999H48.0072C48.0072 67.0999 47.5561 66.6749 47.5311 66.6249C47.3306 66.1499 47.6564 65.3499 48.1075 65.3499H52.0423V62.8999L52.0674 62.8749ZM67.5812 62.8749H57.9571V65.3249H67.5812V62.8749ZM83.1952 62.8749H73.5712V65.3249H83.1952V62.8749ZM40.5636 63.5749H38.2078V64.7499H40.5636V63.5749ZM56.1777 63.5749H53.8218V64.7499H56.1777V63.5749ZM71.8168 63.5749H69.4609V64.7499H71.8168V63.5749ZM35.6263 67.0749H27.6564V71.1249L30.8895 83.1249C31.3656 84.0249 32.1175 83.8499 32.4684 82.9499C33.8468 79.4249 34.2729 74.8499 35.6263 71.2249V67.0749ZM58.7842 67.0749V70.8749L62.2428 83.4749C62.6438 83.8749 63.4458 83.7499 63.5712 83.1499C64.3982 78.3749 67.4559 72.2999 66.9045 67.4749C66.9045 67.2999 66.9045 67.1749 66.7291 67.0749H58.8093H58.7842ZM82.3681 67.0749H74.3732V71.2249C75.7266 74.8499 76.1526 79.4249 77.5311 82.9499C77.8819 83.8499 78.6589 83.9999 79.11 83.1249L82.3431 71.1249V67.0749H82.3681Z" fill="#F9F6F4"/>
<path d="M62.6189 45.425C63.6214 45.225 64.7492 47.225 65.0249 48.025C66.2029 51.65 60.664 52.5 60.4134 49.1C60.3382 48.1 61.5913 45.625 62.6189 45.425ZM62.8695 47.65C62.8695 47.65 61.5663 49.4 62.6941 49.525C63.8219 49.65 63.1452 48.15 62.8695 47.65Z" fill="#F9F6F4"/>
<path d="M75.7264 55.65C75.8518 55.525 76.2528 55.4 76.4533 55.375C77.2302 55.3 79.6863 55.275 80.4382 55.375C81.4909 55.55 81.5159 56.975 80.5635 57.125C79.8618 57.225 76.9545 57.225 76.2277 57.125C75.5009 57.025 75.2252 56.15 75.7264 55.65Z" fill="#F9F6F4"/>
<path d="M45.2258 68.275C45.8022 68.15 48.5842 68.15 49.1857 68.275C50.514 68.475 50.088 70.725 49.8874 71.675C49.5366 73.4 48.7596 76.5 48.1581 78.15C47.7822 79.15 46.9301 79.3 46.3536 78.375C45.8774 76.075 44.9501 73.725 44.499 71.425C44.3235 70.475 43.9225 68.55 45.2258 68.3V68.275ZM48.3085 70.025H46.0779L47.2057 74.6C47.4062 74.05 48.5341 70.25 48.3336 70.025H48.3085Z" fill="#F9F6F4"/>
<path d="M61.0901 71.2C61.5162 71.1 64.1477 71.1 64.5738 71.2C65.7768 71.475 65.0751 73.15 64.8746 73.925C64.6239 74.975 64.0976 77.5 63.6715 78.35C63.3457 79.025 62.4435 79.175 62.0425 78.525C61.7417 78.05 61.2405 75.775 61.04 75.075C60.8645 74.4 60.2881 72.725 60.2881 72.175C60.2881 71.775 60.6891 71.3 61.0901 71.2ZM63.2455 72.95H62.3182L62.7944 74.6L63.2705 72.95H63.2455Z" fill="#F9F6F4"/>
<path d="M45.0003 55.4C45.4765 55.3 48.9352 55.3 49.4113 55.4C50.3637 55.625 50.2635 56.975 49.4113 57.125C48.9101 57.225 45.4514 57.225 44.9502 57.125C44.1482 56.975 44.0479 55.6 44.9502 55.4H45.0003Z" fill="#F9F6F4"/>
<path d="M60.6138 55.4C61.09 55.3 64.5487 55.3 65.0249 55.4C65.9522 55.6 65.8269 56.975 65.0249 57.125C64.5236 57.225 61.065 57.225 60.5637 57.125C59.7366 56.975 59.6364 55.6 60.5637 55.4H60.6138Z" fill="#F9F6F4"/>
<path d="M34.3233 55.65C34.8245 56.15 34.5238 57.025 33.822 57.125C33.1203 57.225 30.213 57.225 29.4862 57.125C28.5087 56.975 28.5589 55.55 29.6115 55.375C30.3634 55.25 32.8195 55.275 33.5965 55.375C33.797 55.375 34.198 55.525 34.3233 55.65Z" fill="#F9F6F4"/>
<path d="M29.6118 68.275C30.0629 68.175 33.2208 68.175 33.672 68.275C34.9251 68.55 34.5742 70.3999 34.3988 71.2999C34.073 73.1249 33.3211 75.625 32.7697 77.425C32.6193 77.9 32.494 78.8 31.9176 78.925C31.3411 79.05 30.9652 78.8749 30.7396 78.3499C30.3136 75.9999 29.2359 73.55 28.8349 71.225C28.6845 70.35 28.4088 68.55 29.5867 68.3L29.6118 68.275ZM32.6945 70.0249H30.5893C30.5391 71.2749 31.1406 72.45 31.3411 73.65L31.692 74.4749C31.8173 73.8749 32.9702 70.2999 32.6945 70.0249Z" fill="#F9F6F4"/>
</g>
<defs>
<clipPath id="clip0_490_1388">
<rect width="60" height="60" fill="white" transform="translate(25 25.5)"/>
</clipPath>
</defs>
</svg>
