<svg width="110" height="111" viewBox="0 0 110 111" fill="none" xmlns="http://www.w3.org/2000/svg">
<rect y="0.5" width="110" height="110" rx="55" fill="#B39384"/>
<g clip-path="url(#clip0_490_1355)">
<path d="M71.7343 72.1805C71.2381 72.1805 70.8411 72.5788 70.7667 73.1763C70.5682 74.6701 70.6674 76.4129 70.7667 78.0809C70.8659 79.6743 70.9403 81.3174 70.7667 82.7365C70.717 83.1597 70.5682 83.2842 70.2208 83.4834H39.9272C39.5303 83.5083 39.2574 83.3091 39.1333 82.9606V48.5539C39.0837 48.1805 39.307 47.807 39.6047 47.6826L69.5757 47.5581C70.0968 47.5581 70.4441 47.7324 70.6178 48.056L70.717 69.2427C70.8907 69.7905 71.2629 70.1141 71.7343 70.1141C72.0072 70.1141 72.2553 69.9896 72.4538 69.7905C72.7019 69.5415 72.8259 69.168 72.8011 68.7448C72.6274 65.6328 72.7267 62.3714 72.8011 59.2095C72.9004 55.7739 72.9996 52.2386 72.8011 48.8776C72.6771 46.9855 71.8087 45.89 70.2704 45.5913L63.3979 45.6909V43.3008C63.3979 42.9523 62.5048 42.056 62.1574 42.056L59.205 42.1805V39.6411C59.7756 39.6411 60.5944 38.9689 60.5944 38.4958L60.4703 36.1058C60.6192 36.1058 60.768 36.1058 60.9169 36.1058C61.165 36.1058 61.4379 36.1058 61.7108 36.1058C62.0086 36.1058 62.3063 36.1307 62.604 36.1307C63.8197 36.1307 65.0851 35.9066 65.2339 34.2884C65.3828 32.6203 65.4324 28.5373 65.2339 27.0436C65.1099 26.1971 64.4896 25.7739 63.8445 25.4751L53.3001 25.5249C52.9279 25.9232 52.5061 26.3714 53.0024 27.0685C53.052 27.1431 53.4241 27.4668 53.573 27.4668L63.2491 27.3423L63.3731 34.1141L46.5516 34.2386H46.502L46.378 27.5166L49.9259 27.4917C50.2484 27.4917 50.4965 27.2427 50.5957 26.8444C50.7198 26.3714 50.5957 25.749 50.0995 25.5H45.8569C45.2615 25.7987 44.6412 26.222 44.5172 27.0685C44.3435 28.3631 44.4179 29.9315 44.5172 31.4253C44.5668 32.5456 44.6412 33.7158 44.5916 34.7614C45.0382 36.0062 46.0554 36.1556 47.023 36.1556C47.3208 36.1556 47.6185 36.1556 47.9162 36.1307C48.2139 36.1307 48.4868 36.1058 48.7598 36.1058H48.8342C48.9831 36.1058 49.1319 36.1058 49.2064 36.0062V38.5207C49.2064 38.7448 49.38 39.0187 49.7026 39.2676C49.9259 39.4419 50.1491 39.5664 50.3724 39.5664C50.4469 39.5664 50.5213 39.5664 50.5957 39.5166L50.7198 42.0809H47.6433C47.2959 42.0809 46.4028 42.9772 46.4028 43.3257L46.5268 45.5913L39.4062 45.6411C38.2897 45.8651 37.4214 46.7116 37.1236 47.8817C36.9748 55.027 36.9996 62.3465 36.9996 69.417C36.9996 73.749 37.0244 78.056 36.9996 82.388C37.074 84.1556 38.1657 85.3755 39.7287 85.5H70.2208C71.3125 85.4253 72.3545 84.529 72.6522 83.4336C73.074 81.89 72.9748 75.3423 72.8259 73.6245C72.7515 72.6286 72.2057 72.1805 71.7094 72.1805H71.7343ZM58.7832 37.6494L51.2656 37.7739H51.2408V36.1556L58.6591 36.0311L58.7832 37.6494ZM52.6302 42.2054V39.6411L57.2449 39.5166L57.369 42.0809L52.6054 42.2054H52.6302ZM61.4379 43.9481L61.562 45.5664L48.4372 45.6909V44.0726L61.4379 43.9481Z" fill="#F9F6F4"/>
<path d="M61.6371 57.0187H48.041C47.2719 57.1681 46.5524 57.9398 46.4531 58.7116V72.4046C46.6764 73.4502 47.2719 73.9979 48.2395 74.0726C49.2319 74.1722 50.2491 74.1971 51.2664 74.1971C52.5565 74.1971 53.8715 74.1473 55.1864 74.0975C56.5014 74.0477 57.8163 73.9979 59.1065 73.9979C59.95 73.9979 60.7936 73.9979 61.6123 74.0726C62.5551 74.0726 63.3242 73.2759 63.4235 72.2801C63.6468 70.0394 63.5475 67.5996 63.4235 65.2344C63.3242 63.0685 63.2498 60.8029 63.3987 58.7116C63.2994 57.8652 62.4807 57.0934 61.5875 57.0187H61.6371ZM61.5627 72.056L48.438 72.1805V59.0104L61.4387 58.8859L61.5627 72.056Z" fill="#F9F6F4"/>
</g>
<defs>
<clipPath id="clip0_490_1355">
<rect width="36" height="60" fill="white" transform="translate(37 25.5)"/>
</clipPath>
</defs>
</svg>
