<?xml version="1.0" encoding="UTF-8"?>
<svg id="Layer_2" data-name="Layer 2" xmlns="http://www.w3.org/2000/svg" viewBox="0 0 48 47.95">
  <defs>
    <style>
      .cls-1 {
        fill: #1f567d;
      }
    </style>
  </defs>
  <g id="Layer_1-2" data-name="Layer 1">
    <path class="cls-1" d="M22.24.06c19.22-1.26,32.22,19.39,22.4,36.1-8.8,14.99-30.3,15.87-40.29,1.63C-6.31,22.59,3.76,1.27,22.24.06ZM32.5,15.47c-.58-.54-1.62-.65-2.25-.13l-6.24,6.18-6.15-6.03c-1.72-1.18-3.56.72-2.39,2.39l6.03,6.07-6.18,6.42c-1.11,1.75.99,3.45,2.54,2.22l6.07-6.14,6.36,6.24c1.71,1.02,3.58-.77,2.39-2.5l-6.25-6.17,6.18-6.21c.51-.65.48-1.78-.13-2.35Z"/>
  </g>
</svg>