<svg width="353" height="310" viewBox="0 0 353 310" fill="none" xmlns="http://www.w3.org/2000/svg">
<g clip-path="url(#clip0_427_2222)">
<path d="M8.2392 43.5944H82.7214C86.972 43.5944 90.418 47.042 90.418 51.2947V96.1404C90.418 100.393 86.972 103.841 82.7214 103.841H67.5643L70.573 111.611C71.4476 113.86 68.8412 115.855 66.8996 114.429L52.5034 103.841H8.25669C4.00607 103.841 0.560089 100.393 0.560089 96.1404V51.2947C0.560089 47.042 4.00607 43.5944 8.25669 43.5944H8.2392Z" fill="#58616E"/>
<path d="M81.6279 56.1686H10.3906" stroke="#F9F6F4" stroke-linecap="round" stroke-linejoin="round"/>
<path d="M81.6279 62.6439H10.3906" stroke="#F9F6F4" stroke-linecap="round" stroke-linejoin="round"/>
<path d="M81.6279 69.1192H10.3906" stroke="#F9F6F4" stroke-linecap="round" stroke-linejoin="round"/>
<path d="M81.6279 75.5945H10.3906" stroke="#F9F6F4" stroke-linecap="round" stroke-linejoin="round"/>
<path d="M81.6279 82.0698H10.3906" stroke="#F9F6F4" stroke-linecap="round" stroke-linejoin="round"/>
<path d="M81.6279 88.5363H10.3906" stroke="#F9F6F4" stroke-linecap="round" stroke-linejoin="round"/>
<path d="M241.114 186.155C241.114 186.155 241.874 179.785 242.854 176.749C243.842 173.712 248.006 167.955 248.006 167.955C248.006 167.955 249.676 171.516 247.245 174.474C247.245 174.474 247.393 179.173 247.166 180.844C247.166 180.844 255.046 174.106 256.559 173.424C257.521 172.654 258.693 171.717 260.128 170.58C265.358 166.406 268.848 167.701 268.393 167.998C268.078 168.208 262.096 173.047 258.396 176.049L258.877 176.74C260.005 175.839 261.789 174.412 264.448 172.295C269.678 168.121 273.168 169.416 272.713 169.714C272.337 169.967 263.582 177.064 260.722 179.374L261.562 180.581C262.673 179.698 264.509 178.228 267.326 175.979C272.556 171.805 276.046 173.1 275.591 173.397C275.197 173.66 266.031 181.089 263.407 183.215L264.3 184.493C265.27 183.609 267.973 181.203 270.588 179.383C273.85 177.108 276.194 178.166 276.194 178.166L274.751 179.453C273.308 180.739 265.804 186.654 265.804 186.654C265.804 186.654 254.346 196.892 251.478 197.881L248.67 200.559L238.359 189.393L241.096 186.138L241.114 186.155Z" fill="#FF996A"/>
<path d="M158.647 256.867C164.795 265.74 173.401 271.218 184.833 268.89C215.462 262.66 251.627 203.184 251.627 203.184L249.808 201.215L236.312 186.602L189.337 229.312L174.67 208.066L160.343 187.319L153.259 177.064C153.259 177.064 149.113 183.627 146.498 204.479C144.872 217.552 148.309 241.983 158.647 256.867Z" fill="#C5A291"/>
<path d="M158.647 256.867C164.795 265.74 173.401 271.218 184.833 268.89C215.462 262.66 251.627 203.184 251.627 203.184L249.808 201.215L248.688 200.594C248.688 200.594 205.596 259.912 187.43 251.083C176.2 245.632 174.398 223.878 174.661 208.066L160.335 187.319L158.647 256.867Z" fill="#8C7367"/>
<path d="M43.599 251.083L46.3978 300.243H57.2168L52.9574 251.083H43.599Z" fill="#2A3443"/>
<path d="M109.843 251.083L112.633 300.243H123.452L119.202 251.083H109.843Z" fill="#2A3443"/>
<path d="M42.4887 180.73H128.236C136.757 180.73 143.664 187.641 143.664 196.166V244.153C143.664 252.678 136.757 259.589 128.236 259.589H42.4887C33.9679 259.589 27.0605 252.678 27.0605 244.153V196.166C27.0605 187.641 33.9679 180.73 42.4887 180.73Z" fill="#2A3443"/>
<path d="M49.7221 180.73H135.469C143.99 180.73 150.897 187.641 150.897 196.166V244.153C150.897 252.678 143.99 259.589 135.469 259.589H49.7221C41.2013 259.589 34.2939 252.678 34.2939 244.153V196.166C34.2939 187.641 41.2013 180.73 49.7221 180.73Z" fill="#58616E"/>
<path d="M114.356 158.592C114.356 158.592 97.4498 155.879 74.7011 179.418L69.4534 300.243H164.533C164.533 300.243 174.914 218.733 162.81 189.743C150.705 160.753 128.971 157.297 114.356 158.592Z" fill="#D8C1B5"/>
<path d="M147.521 93.069L143.35 87.355L107.761 99.273L108.068 112.644H105.715C100.939 112.644 97.0737 116.511 97.0737 121.289C97.0737 126.067 100.939 129.934 105.715 129.934H108.461L108.881 148.091V164.043L134.647 167.587L135.277 156.92L135.609 151.311L139.344 149.526C150.049 144.416 156.862 133.609 156.862 121.744C156.862 111.436 153.582 101.391 147.513 93.069H147.521Z" fill="#FF996A"/>
<path d="M135.617 151.311L135.285 156.92C134.34 156.807 133.343 156.658 132.32 156.474C116.402 153.569 110.175 139.183 110.822 131.763C110.822 131.763 116.192 149.596 135.626 151.311H135.617Z" fill="#D37A57"/>
<path d="M105.453 118.813C106.117 119.32 106.73 119.985 106.957 120.816C106.957 120.816 105.628 121.263 105.505 122.75C105.383 124.238 106.957 124.885 106.957 124.885C106.957 124.885 105.75 126.898 103.738 125.813C101.727 124.728 102.059 120.93 104.062 120.134C104.062 120.134 100.878 119.775 99.7152 120.939C99.7152 120.939 99.4441 119.766 100.774 118.734C102.147 117.666 104.071 117.763 105.461 118.813H105.453Z" fill="#D37A57"/>
<path d="M147.522 93.069C147.522 93.069 142.702 101.364 136.475 104.051C130.248 106.737 123.592 102.826 117.365 106.396C111.138 109.966 115.108 116.642 113.718 119.854C112.318 123.065 110.77 123.494 110.77 123.494C110.77 123.494 109.931 114.367 108.068 112.644C108.068 112.644 102.479 112.6 100.738 114.227C100.738 114.227 97.6161 107.918 97.0738 102.974C96.5403 98.0304 102.015 96.4204 102.015 96.4204C102.015 96.4204 103.301 84.6074 117.793 80.1972C132.286 75.787 143.35 82.7785 149.14 80.1972C154.938 77.6158 160.195 81.4835 160.518 87.3375C160.842 93.1915 156.871 95.3353 156.871 95.3353C156.871 95.3353 159.556 97.6017 158.48 101.084C157.405 104.567 154.037 105.372 154.037 105.372C154.037 105.372 150.067 96.5341 147.513 93.0427L147.522 93.069Z" fill="#191F29"/>
<path d="M144.635 135.535L129.88 134.808C129.88 134.808 133.3 140.129 138.163 140.076C142.641 140.032 144.644 135.535 144.644 135.535H144.635Z" fill="#F9F6F4"/>
<path d="M127.676 111.489C127.859 111.489 128.052 111.427 128.201 111.296C131.314 108.732 134.375 110.911 134.41 110.928C134.778 111.2 135.302 111.121 135.574 110.745C135.845 110.377 135.766 109.852 135.39 109.581C133.973 108.548 130.422 107.297 127.142 110.001C126.784 110.29 126.74 110.815 127.029 111.174C127.195 111.375 127.431 111.48 127.667 111.48L127.676 111.489Z" fill="#191F29"/>
<path d="M146.025 111.489C146.209 111.489 146.402 111.427 146.55 111.296C149.664 108.732 152.725 110.911 152.76 110.928C153.127 111.2 153.652 111.121 153.923 110.745C154.194 110.377 154.116 109.852 153.74 109.581C152.323 108.548 148.772 107.297 145.492 110.001C145.133 110.29 145.09 110.815 145.378 111.174C145.544 111.375 145.781 111.48 146.017 111.48L146.025 111.489Z" fill="#191F29"/>
<path d="M104.167 159.852L108.837 153.77L127.388 160.307L130.388 165.522L132.417 160.841L135.233 157.76L138.154 163.404C138.154 163.404 138.067 169.057 130.912 170.562C123.758 172.067 108.12 166.231 104.158 159.852H104.167Z" fill="#6C5950"/>
<path d="M100.739 114.227C100.739 114.227 103.625 113.125 106.362 115.645C109.1 118.165 108.173 120.641 108.173 120.641C108.173 120.641 106.905 117.658 104.202 117.981C101.491 118.305 99.5228 125.629 103.144 127.003C106.765 128.377 111.391 126.285 111.225 120.641C111.068 114.997 108.995 111.804 105.584 111.314C102.173 110.823 100.826 113.694 100.747 114.227H100.739Z" fill="#58616E"/>
<path d="M126.347 142.605C126.697 142.605 127.012 142.36 127.082 142.001C127.16 141.599 126.898 141.205 126.487 141.126C112.458 138.431 107.709 125.209 107.657 125.078C107.525 124.693 107.097 124.483 106.712 124.623C106.327 124.754 106.117 125.183 106.248 125.568C106.301 125.708 111.312 139.726 126.207 142.596C126.251 142.605 126.303 142.614 126.347 142.614V142.605Z" fill="#58616E"/>
<path d="M129.478 142.115C129.478 143.847 128.069 145.256 126.338 145.256C124.606 145.256 123.198 143.847 123.198 142.115C123.198 140.382 124.606 138.973 126.338 138.973C128.069 138.973 129.478 140.382 129.478 142.115Z" fill="#2A3443"/>
<path d="M104.552 119.329C104.552 119.329 104.945 122.803 104.184 124.658C103.423 126.513 102.234 125.55 101.998 123.302C101.762 121.044 104.018 117.885 104.552 119.338V119.329Z" fill="#2A3443"/>
<path d="M134.402 118.165C134.402 118.165 134.402 121.403 130.16 121.945C125.927 122.479 125.149 118.165 125.149 118.165C125.149 118.165 127.554 115.907 130.668 115.837C133.781 115.767 134.402 118.165 134.402 118.165Z" fill="#F9F6F4"/>
<path d="M153.757 118.165C153.757 118.165 153.757 121.403 149.602 121.945C145.457 122.479 144.906 118.174 144.906 118.174C144.906 118.174 147.057 115.916 150.101 115.846C153.145 115.776 153.757 118.174 153.757 118.174V118.165Z" fill="#F9F6F4"/>
<path d="M144.906 118.174C144.906 118.174 147.127 115.732 149.506 115.295C151.885 114.857 153.512 116.012 153.766 118.174C153.766 118.174 153.293 116.389 150.914 116.17C148.535 115.951 144.906 118.174 144.906 118.174Z" fill="#191F29"/>
<path d="M125.149 118.165C125.149 118.165 127.467 115.619 129.951 115.155C132.434 114.7 134.14 115.907 134.394 118.165C134.394 118.165 133.904 116.301 131.42 116.074C128.936 115.846 125.149 118.165 125.149 118.165Z" fill="#191F29"/>
<path d="M140.831 118.261L142.781 130.066C142.781 130.066 144.338 130.188 146.489 129.304C146.489 129.304 141.382 119.583 140.831 118.261Z" fill="#D37A57"/>
<path d="M198.983 300.243C198.983 300.243 199.298 290.819 188.689 287.87C178.08 284.921 165.162 293.549 163.089 300.243H198.983Z" fill="#2A3443"/>
<path d="M130.335 122.356C128.867 122.356 127.676 120.852 127.676 118.996C127.676 117.141 128.867 115.636 130.335 115.636C131.804 115.636 132.994 117.141 132.994 118.996C132.994 120.852 131.804 122.356 130.335 122.356Z" fill="#191F29"/>
<path d="M146.314 119.101C146.314 120.904 147.478 122.357 148.903 122.357C150.329 122.357 151.492 120.895 151.492 119.101C151.492 117.308 150.329 115.846 148.903 115.846C147.478 115.846 146.314 117.308 146.314 119.101Z" fill="#191F29"/>
<path d="M118.58 127.414C118.58 128.884 120.321 130.074 122.455 130.074C124.589 130.074 126.329 128.884 126.329 127.414C126.329 125.944 124.589 124.754 122.455 124.754C120.321 124.754 118.58 125.944 118.58 127.414Z" fill="#D37A57"/>
<path d="M150.25 126.137C150.25 127.607 151.99 128.797 154.124 128.797C156.259 128.797 157.999 127.607 157.999 126.137C157.999 124.667 156.259 123.477 154.124 123.477C151.99 123.477 150.25 124.667 150.25 126.137Z" fill="#D37A57"/>
<path d="M48.5671 270.247C51.2522 278.332 56.1675 284.44 61.9837 288.762C65.9457 291.694 70.3275 293.803 74.7006 295.124C92.9538 300.663 160.553 300.234 160.553 300.234L158.008 279.802L82.3097 262.783C82.3097 262.783 92.0966 231.71 91.6681 206.605C91.2745 183.242 84.3126 173.607 76.4673 178.158C75.8813 178.508 75.2866 178.919 74.7006 179.418C74.7006 179.418 62.7446 197.242 50.4125 233.836C45.366 248.808 45.4622 260.849 48.5671 270.247Z" fill="#C5A291"/>
<path d="M165.695 282.523L181.753 279.592C181.753 279.592 184.701 279.085 187.657 280.362C190.604 281.64 193.954 287.861 193.954 287.861C193.954 287.861 191.243 287.905 189.406 286.242C187.569 284.589 187.333 283.153 187.333 283.153L181.438 283.617L181.333 284.982C183.301 285.411 188.908 286.689 191.636 287.861C194.986 289.296 196.744 293.689 196.744 293.689C196.744 293.689 192.354 293.05 190.123 290.338L181.001 289.305L180.94 290.154C182.82 290.285 186.179 290.705 189.327 292.096C194.033 294.17 195.467 296.962 195.467 296.962C195.467 296.962 190.762 296.962 187.447 294.406L185.217 294.223C187.421 295.631 189.319 299.035 189.319 299.035C189.319 299.035 188.365 299.272 186.205 298.318C184.053 297.364 183.494 296.27 183.494 296.27L177.214 296.743C173.952 297.207 169.028 297.662 166.211 296.725L160.211 297.653L158.331 282.523H165.687H165.695Z" fill="#FF996A"/>
<path d="M32.0021 310.131H333.972C336.7 310.131 338.913 307.917 338.913 305.187C338.913 302.457 336.7 300.243 333.972 300.243H32.0109C29.2821 300.243 27.0693 302.457 27.0693 305.187C27.0693 307.917 29.2821 310.131 32.0109 310.131H32.0021Z" fill="#2A3443"/>
<path d="M147.757 310.131H335.948C337.584 310.131 338.913 307.917 338.913 305.187C338.913 302.457 337.584 300.243 335.948 300.243H147.757C146.122 300.243 144.792 302.457 144.792 305.187C144.792 307.917 146.122 310.131 147.757 310.131Z" fill="#58616E"/>
<path d="M204.669 281.193H308.66C312.167 281.193 315.202 278.752 315.955 275.322L329.397 214.244C330.053 211.252 327.779 208.408 324.709 208.408H219.546C216.441 208.408 213.747 210.569 213.082 213.605L199.596 274.876C198.879 278.113 201.345 281.185 204.669 281.185V281.193Z" fill="#58616E"/>
<path d="M291.605 270.85C292.471 275.226 297.579 277.903 303.01 276.827C308.442 275.751 312.141 271.323 311.267 266.948C310.401 262.572 305.293 259.895 299.862 260.971C294.43 262.047 290.731 266.475 291.605 270.85Z" fill="#9FA4AC"/>
<path d="M199.595 274.884L213.082 213.614C213.747 210.578 216.44 208.416 219.545 208.416H225.606C222.502 208.416 219.808 210.578 219.143 213.614L205.656 274.884C204.939 278.122 207.406 281.193 210.729 281.193H204.668C201.353 281.193 198.887 278.122 199.595 274.884Z" fill="#2A3443"/>
<path d="M217.595 297.793C217.595 299.149 218.688 300.243 220.044 300.243H306.368C307.75 300.243 309.01 299.674 309.919 298.764C310.838 297.854 311.397 296.603 311.397 295.211C311.397 294.223 311.1 293.251 310.549 292.429L289.182 260.402C288.57 259.501 287.555 258.959 286.471 258.959H249.116C247.778 258.959 246.938 260.411 247.612 261.575L265.646 292.753C266.32 293.908 265.48 295.343 264.16 295.343H220.044C219.371 295.343 218.758 295.614 218.312 296.069C217.875 296.506 217.595 297.119 217.595 297.793Z" fill="#2A3443"/>
<path d="M243.221 244.38H296.188C296.809 244.38 297.308 243.882 297.308 243.26C297.308 242.639 296.809 242.14 296.188 242.14H243.221C242.6 242.14 242.102 242.639 242.102 243.26C242.102 243.882 242.6 244.38 243.221 244.38Z" fill="#2A3443"/>
<path d="M240.668 251.083H293.634C294.255 251.083 294.754 250.585 294.754 249.963C294.754 249.342 294.255 248.843 293.634 248.843H240.668C240.047 248.843 239.548 249.342 239.548 249.963C239.548 250.585 240.047 251.083 240.668 251.083Z" fill="#2A3443"/>
<path d="M328.304 212.03H216.152C215.242 212.03 214.368 212.197 213.554 212.503C214.56 210.062 216.957 208.416 219.668 208.416H324.832C327.167 208.416 329.038 210.062 329.511 212.17C329.126 212.083 328.715 212.03 328.304 212.03Z" fill="#9FA4AC"/>
<path d="M213.083 270.85C213.949 275.226 219.056 277.903 224.488 276.827C229.919 275.751 233.619 271.323 232.744 266.948C231.878 262.572 226.77 259.895 221.339 260.971C215.908 262.047 212.217 266.475 213.083 270.85Z" fill="#9FA4AC"/>
<path d="M217.604 297.968C217.701 299.272 218.873 300.243 220.176 300.243H269.303C271.288 300.243 272.897 298.633 272.897 296.646C272.897 295.964 272.705 295.299 272.346 294.73L249.773 258.959H249.117C247.779 258.959 246.939 260.411 247.612 261.575L265.647 292.753C266.32 293.908 265.481 295.343 264.16 295.343H220.045C219.371 295.343 218.759 295.614 218.313 296.069C217.832 296.55 217.552 297.224 217.604 297.977V297.968Z" fill="#191F29"/>
<path d="M74.7006 295.124C92.9538 300.663 160.553 300.234 160.553 300.234L73.2137 276.984C64.0828 274.552 58.2666 265.609 59.7534 256.272C63.593 232.13 71.0184 188.816 76.476 178.149C75.89 178.499 75.2953 178.91 74.7093 179.409C74.7093 179.409 62.7533 197.233 50.4213 233.828C38.0892 270.43 56.4474 289.585 74.7093 295.115L74.7006 295.124Z" fill="#8C7367"/>
<path d="M79.8525 263.64C79.8525 263.64 67.363 263.465 57.2263 272.732" stroke="#D8C1B5" stroke-linecap="round" stroke-linejoin="round"/>
<path d="M105.977 162.039C105.977 162.039 89.5425 167.631 81.4524 177.213" stroke="#8C7367" stroke-linecap="round" stroke-linejoin="round"/>
<path d="M187.779 232.104C187.779 232.104 178.701 243.864 177.546 257.41" stroke="#D8C1B5" stroke-linecap="round" stroke-linejoin="round"/>
<path d="M140.839 163.492C140.839 163.492 144.294 173.179 129.88 174.369C115.467 175.559 99.6713 161.409 99.6713 161.409" stroke="#8C7367" stroke-linecap="round" stroke-linejoin="round"/>
<path d="M160.544 282.523L163.92 297.084L160.22 297.653L158.34 282.523H160.544Z" fill="#D37A57"/>
<path d="M130.912 170.571C130.912 170.571 135.181 182.752 138.154 214.253" stroke="#8C7367" stroke-linecap="round" stroke-linejoin="round"/>
<path d="M103.318 96.5604C103.318 96.5604 110.052 94.9678 116.14 97.3129" stroke="#58616E" stroke-linecap="round" stroke-linejoin="round"/>
<path d="M147.521 93.069C147.521 93.069 148.203 102.931 135.731 104.339" stroke="#58616E" stroke-linecap="round" stroke-linejoin="round"/>
<path d="M102.207 90.0588C102.207 90.0588 100.755 93.979 102.015 96.4204" stroke="#58616E" stroke-linecap="round" stroke-linejoin="round"/>
<path d="M158.681 86.0599C158.681 86.0599 159.241 92.1152 153.057 94.4953" stroke="#58616E" stroke-linecap="round" stroke-linejoin="round"/>
<path d="M156.434 97.3042C156.434 97.3042 157.58 101.837 153.303 103.788" stroke="#58616E" stroke-linecap="round" stroke-linejoin="round"/>
<path d="M136.475 81.8422C136.475 81.8422 128.498 78.3421 117.172 83.4348C106.956 88.0288 105.977 93.7515 105.977 93.7515" stroke="#58616E" stroke-linecap="round" stroke-linejoin="round"/>
<path d="M102.207 98.993C102.207 98.993 99.9593 100.052 99.9593 103.246C99.9593 106.44 101.499 109.686 101.499 109.686" stroke="#58616E" stroke-linecap="round" stroke-linejoin="round"/>
<path d="M139.658 97.8729C139.658 97.8729 138.066 102.091 128.787 102.563C119.507 103.036 116.507 103.036 113.98 106.028C111.452 109.03 112.292 112.311 112.292 112.311" stroke="#58616E" stroke-linecap="round" stroke-linejoin="round"/>
<path d="M143.139 0H227.575C232.464 0 236.426 3.96392 236.426 8.85538V23.3198C236.426 28.2112 232.464 32.1751 227.575 32.1751H216.388L218.986 41.1618C219.467 42.8331 217.63 44.2157 216.152 43.2881L198.642 32.1751H143.122C138.233 32.1751 134.271 28.2112 134.271 23.3198V8.85538C134.271 3.96392 138.233 0 143.122 0H143.139Z" fill="#B39384"/>
<path d="M224.942 8.65411H145.274" stroke="#F9F6F4" stroke-linecap="round" stroke-linejoin="round"/>
<path d="M224.942 15.4182H145.274" stroke="#F9F6F4" stroke-linecap="round" stroke-linejoin="round"/>
<path d="M224.942 22.1822H145.274" stroke="#F9F6F4" stroke-linecap="round" stroke-linejoin="round"/>
<path d="M280.698 159.633C240.993 159.633 208.805 127.43 208.805 87.705C208.805 47.9802 240.993 15.7769 280.698 15.7769C320.404 15.7769 352.592 47.9802 352.592 87.705C352.592 127.43 320.404 159.633 280.698 159.633Z" stroke="#B39384" stroke-miterlimit="10"/>
<path d="M213.371 87.705C213.371 112.845 227.137 134.765 247.533 146.341C249.816 147.636 252.186 148.809 254.626 149.833C262.647 153.21 271.454 155.074 280.699 155.074C281.311 155.074 281.923 155.074 282.527 155.048C282.903 155.048 283.279 155.022 283.646 154.995C283.908 154.995 284.171 154.995 284.433 154.96C284.836 154.943 285.229 154.917 285.623 154.882C285.789 154.882 285.955 154.864 286.121 154.838C286.593 154.812 287.057 154.759 287.529 154.724C288.072 154.663 288.605 154.61 289.13 154.54L272.486 130.451L316.715 82.481L345.577 105.81C345.875 104.724 346.155 103.648 346.4 102.546C346.487 102.126 346.583 101.706 346.662 101.294C346.776 100.743 346.889 100.192 346.977 99.6405C347.047 99.273 347.108 98.9055 347.161 98.5467C347.248 98.0217 347.327 97.4879 347.405 96.9541C347.449 96.6566 347.493 96.3679 347.519 96.0616C347.58 95.6066 347.633 95.1428 347.677 94.6703L347.703 94.399C347.755 93.9003 347.799 93.4015 347.834 92.894C347.878 92.334 347.921 91.7827 347.939 91.2139V91.1789C347.974 90.6014 348 90.0326 348.009 89.4463C348.026 88.8688 348.035 88.2913 348.035 87.705C348.035 76.522 345.306 65.9778 340.487 56.6937C330.473 37.3991 311.398 23.5735 288.894 20.8346C286.209 20.5109 283.471 20.3446 280.699 20.3446C269.399 20.3446 258.728 23.136 249.379 28.0712L278.704 51.7585L259.131 111.139L221.172 56.2211C216.196 65.6103 213.38 76.3295 213.38 87.6963L213.371 87.705Z" fill="#9FA4AC"/>
<path d="M340.662 56.6324L316.89 82.4198L345.752 105.748C346.05 104.663 346.33 103.587 346.574 102.484C346.662 102.064 346.758 101.644 346.837 101.233C346.951 100.682 347.064 100.131 347.152 99.5793C347.222 99.2117 347.283 98.8442 347.335 98.4855C347.423 97.9604 347.502 97.4267 347.58 96.8929C347.624 96.5954 347.668 96.3066 347.694 96.0004C347.755 95.5453 347.808 95.0816 347.851 94.6091L347.878 94.3378C347.93 93.839 347.974 93.3402 348.009 92.8327C348.053 92.2727 348.096 91.7214 348.114 91.1526V91.1176C348.149 90.5401 348.175 89.9713 348.184 89.3851C348.201 88.8075 348.21 88.23 348.21 87.6438C348.21 76.4608 345.481 65.9166 340.662 56.6324Z" fill="#58616E"/>
<path d="M254.801 149.771C262.821 153.149 271.629 155.013 280.873 155.013C281.486 155.013 282.098 155.013 282.701 154.987C283.077 154.987 283.454 154.96 283.821 154.934C284.083 154.934 284.346 154.934 284.608 154.899C285.01 154.882 285.404 154.855 285.797 154.82C285.964 154.82 286.13 154.803 286.296 154.777C286.768 154.75 287.232 154.698 287.704 154.663C288.246 154.602 288.78 154.549 289.305 154.479L272.661 130.389L254.801 149.763V149.771Z" fill="#58616E"/>
<path d="M249.553 28.0099L278.879 51.6972L289.068 20.7734C286.383 20.4496 283.646 20.2834 280.873 20.2834C269.573 20.2834 258.903 23.0747 249.553 28.0099Z" fill="#58616E"/>
<path d="M213.555 87.6437C213.555 112.784 227.321 134.703 247.717 146.28L259.314 111.086L221.356 56.1686C216.38 65.5578 213.563 76.277 213.563 87.6437H213.555Z" fill="#58616E"/>
<path d="M272.661 130.398L289.305 154.488C289.725 154.435 290.154 154.383 290.573 154.313C290.923 154.26 291.273 154.217 291.623 154.155C292.016 154.094 292.393 154.033 292.786 153.954C293.302 153.867 293.818 153.77 294.334 153.665C294.771 153.578 295.218 153.482 295.646 153.385C295.917 153.324 296.197 153.263 296.468 153.193C296.836 153.114 297.194 153.018 297.553 152.93C298.742 152.633 299.914 152.292 301.077 151.924C301.497 151.793 301.926 151.662 302.337 151.513C302.905 151.32 303.456 151.128 304.007 150.926C304.523 150.743 305.039 150.541 305.547 150.34C306.063 150.139 306.57 149.929 307.069 149.719C307.567 149.509 308.066 149.299 308.555 149.071C308.555 149.071 308.555 149.071 308.573 149.071C309.071 148.844 309.561 148.616 310.051 148.38C311.547 147.663 312.998 146.893 314.433 146.07C314.879 145.808 315.334 145.536 315.771 145.274C316.698 144.714 317.616 144.127 318.509 143.515C318.955 143.217 319.401 142.911 319.838 142.596C320.275 142.29 320.721 141.966 321.15 141.642C321.167 141.642 321.185 141.616 321.211 141.599C321.622 141.292 322.033 140.977 322.436 140.662C322.794 140.382 323.144 140.102 323.494 139.814C324.01 139.393 324.517 138.965 325.016 138.536C325.4 138.203 325.768 137.871 326.144 137.53C326.52 137.188 326.896 136.838 327.263 136.488C327.307 136.445 327.351 136.41 327.377 136.383C327.744 136.025 328.112 135.666 328.47 135.298C328.785 134.983 329.1 134.66 329.415 134.336C329.844 133.89 330.281 133.426 330.692 132.962C331.059 132.559 331.418 132.157 331.768 131.746C332.048 131.431 332.319 131.107 332.581 130.783C332.747 130.599 332.896 130.416 333.045 130.223C333.307 129.899 333.569 129.576 333.823 129.252C334.112 128.884 334.4 128.517 334.671 128.149C335.047 127.659 335.415 127.169 335.756 126.662C336.071 126.224 336.377 125.778 336.674 125.332C336.893 125.017 337.094 124.702 337.304 124.378C337.435 124.185 337.558 123.984 337.689 123.792C338.257 122.908 338.8 122.007 339.324 121.088C339.569 120.659 339.805 120.221 340.05 119.784C340.601 118.778 341.126 117.754 341.616 116.713C341.834 116.284 342.036 115.837 342.228 115.4C342.438 114.936 342.648 114.472 342.84 114C342.858 113.965 342.867 113.921 342.884 113.895C343.094 113.405 343.304 112.906 343.496 112.407C343.496 112.39 343.496 112.372 343.514 112.346C343.715 111.847 343.907 111.34 344.091 110.832C344.275 110.351 344.45 109.861 344.616 109.362C344.764 108.925 344.913 108.47 345.053 108.023C345.149 107.691 345.263 107.35 345.359 107.017C345.359 106.991 345.377 106.973 345.377 106.947C345.49 106.553 345.613 106.168 345.718 105.775L316.855 82.446L272.626 130.416L272.661 130.398Z" fill="#2A3443"/>
<path d="M221.347 56.1687L259.305 111.086L278.879 51.706L249.553 28.0187C237.545 34.3365 227.688 44.1719 221.347 56.1774V56.1687Z" fill="#2A3443"/>
<path d="M259.305 111.086L272.66 130.398L316.89 82.4198L278.879 51.706L259.305 111.086Z" fill="#58616E"/>
<path d="M268.41 78.2721L268.2 74.7282L265.839 73.5994C259.069 70.3705 254.758 63.5277 254.758 56.0199C254.758 49.4921 256.83 43.1393 260.679 37.8716L263.32 34.2577L285.841 41.8005L285.649 50.2622H287.136C290.153 50.2622 292.602 52.7123 292.602 55.7311C292.602 58.75 290.153 61.2001 287.136 61.2001H285.395L285.133 72.6894V76.7233C285.133 76.7233 289.2 80.6435 296.914 83.9686C296.914 83.9686 288.308 94.7753 274.087 95.4928C259.865 96.2016 259.323 87.6525 259.323 87.6525C259.323 87.6525 265.218 84.1174 268.603 81.1947L268.428 78.2809L268.41 78.2721Z" fill="#FF996A"/>
<path d="M268.2 74.7282L268.41 78.2721C269.005 78.2021 269.635 78.1058 270.291 77.9921C280.358 76.1545 284.302 67.0454 283.891 62.3552C283.891 62.3552 280.498 73.6344 268.2 74.7282Z" fill="#D37A57"/>
<path d="M287.285 54.1648C286.865 54.4798 286.471 54.9086 286.331 55.4336C286.331 55.4336 287.171 55.7136 287.25 56.6587C287.328 57.6037 286.331 58.0062 286.331 58.0062C286.331 58.0062 287.092 59.2838 288.369 58.5925C289.646 57.9012 289.436 55.5036 288.168 54.9961C288.168 54.9961 290.18 54.7686 290.923 55.5036C290.923 55.5036 291.089 54.7598 290.25 54.1036C289.384 53.4298 288.159 53.491 287.285 54.1561V54.1648Z" fill="#D37A57"/>
<path d="M268.681 47.497C268.795 47.497 268.917 47.5408 269.013 47.6283C270.938 49.3084 272.914 47.9871 272.932 47.9696C273.168 47.8033 273.5 47.8646 273.666 48.1096C273.833 48.3458 273.771 48.6783 273.526 48.8446C272.608 49.4746 270.343 50.1922 268.323 48.4246C268.104 48.2321 268.078 47.8996 268.27 47.6808C268.375 47.5583 268.532 47.497 268.681 47.497Z" fill="#191F29"/>
<path d="M256.856 48.7921C256.961 48.7396 257.084 48.7133 257.206 48.7396C259.716 49.2121 260.748 47.0683 260.757 47.042C260.88 46.7795 261.194 46.6657 261.457 46.7882C261.719 46.9107 261.833 47.2258 261.711 47.4883C261.238 48.4946 259.655 50.2709 257.014 49.7721C256.725 49.7196 256.542 49.4396 256.594 49.1596C256.62 49.0021 256.725 48.8708 256.856 48.7921Z" fill="#191F29"/>
<path d="M268.97 53.7536C268.97 53.7536 268.97 55.8011 271.655 56.1424C274.34 56.4837 274.821 53.7536 274.821 53.7536C274.821 53.7536 273.299 52.3272 271.332 52.2835C269.364 52.2397 268.97 53.7536 268.97 53.7536Z" fill="#F9F6F4"/>
<path d="M256.726 53.7536C256.726 53.7536 256.726 55.8011 259.35 56.1424C261.973 56.4837 262.323 53.7536 262.323 53.7536C262.323 53.7536 260.959 52.3272 259.035 52.2835C257.111 52.2397 256.726 53.7536 256.726 53.7536Z" fill="#F9F6F4"/>
<path d="M262.323 53.7535C262.323 53.7535 260.915 52.2135 259.411 51.9335C257.906 51.6535 256.874 52.3885 256.717 53.7535C256.717 53.7535 257.014 52.6247 258.519 52.4847C260.023 52.3447 262.314 53.7535 262.314 53.7535H262.323Z" fill="#191F29"/>
<path d="M274.83 53.7536C274.83 53.7536 273.361 52.1435 271.786 51.846C270.212 51.5572 269.136 52.3185 268.97 53.7536C268.97 53.7536 269.285 52.5723 270.851 52.4322C272.425 52.2835 274.821 53.7536 274.821 53.7536H274.83Z" fill="#191F29"/>
<path d="M264.903 53.8148L263.67 61.2789C263.67 61.2789 262.682 61.3576 261.326 60.7976C261.326 60.7976 264.554 54.6461 264.912 53.8061L264.903 53.8148Z" fill="#D37A57"/>
<path d="M273.229 54.2786C273.229 55.4511 272.477 56.4049 271.55 56.4049C270.623 56.4049 269.871 55.4511 269.871 54.2786C269.871 53.106 270.623 52.1522 271.55 52.1522C272.477 52.1522 273.229 53.106 273.229 54.2786Z" fill="#191F29"/>
<path d="M261.439 54.3486C261.439 55.4861 260.705 56.4137 259.795 56.4137C258.886 56.4137 258.151 55.4861 258.151 54.3486C258.151 53.211 258.886 52.2835 259.795 52.2835C260.705 52.2835 261.439 53.211 261.439 54.3486Z" fill="#191F29"/>
<path d="M276.527 61.2789C275.169 61.2789 274.069 60.5267 274.069 59.5988C274.069 58.6709 275.169 57.9187 276.527 57.9187C277.884 57.9187 278.984 58.6709 278.984 59.5988C278.984 60.5267 277.884 61.2789 276.527 61.2789Z" fill="#D37A57"/>
<path d="M256.49 60.4739C255.132 60.4739 254.032 59.7217 254.032 58.7938C254.032 57.8659 255.132 57.1137 256.49 57.1137C257.847 57.1137 258.947 57.8659 258.947 58.7938C258.947 59.7217 257.847 60.4739 256.49 60.4739Z" fill="#D37A57"/>
<path d="M264.011 64.1577C264.011 64.1577 267.973 64.289 269.573 65.7591C271.174 67.2291 265.253 67.6754 264.011 67.0979C262.76 66.5204 262.209 63.974 264.011 64.1577Z" fill="#F9F6F4"/>
<path d="M273.666 52.9485C273.666 52.9485 274.453 53.3248 275.319 52.7735C275.319 52.7735 275.241 53.5873 274.83 53.7535L273.675 52.9485H273.666Z" fill="#191F29"/>
<path d="M257.635 52.3972C257.635 52.3972 256.699 53.1673 255.99 52.931C255.728 52.8435 256.716 53.7536 256.716 53.7536C256.953 52.896 257.626 52.3972 257.626 52.3972H257.635Z" fill="#191F29"/>
<path d="M252.221 91.9664C252.221 91.9664 239.609 115.024 234.798 134.362L247.804 141.94C247.804 141.94 252.973 131.606 254.748 115.741C256.524 99.8768 252.221 91.9664 252.221 91.9664Z" fill="#847062"/>
<path d="M259.305 39.9017C259.305 39.9017 271.908 51.8285 283.418 50.5247C283.418 50.5247 284.669 58.8988 282.587 62.1102C282.587 62.1102 283.479 62.9939 284.721 59.6426C285.972 56.2912 284.984 51.6622 285.622 50.2621C285.622 50.2621 289.462 49.3521 291.989 53.2635C294.517 57.1749 288.989 61.9614 285.369 61.2001L285.202 68.4017C285.202 68.4017 289.348 69.9505 292.855 66.9841C296.354 64.0177 294.639 60.9814 294.639 60.9814C294.639 60.9814 299.922 55.7661 300.158 48.5208C300.394 41.2755 294.368 36.7253 294.368 36.7253C294.368 36.7253 292.383 26.0061 279.141 25.8836C265.9 25.7611 262.043 29.7425 262.043 29.7425C262.043 29.7425 253.498 31.1951 251.092 40.2867C248.687 49.3784 254.748 54.2348 254.748 54.2348C254.748 54.2348 256.498 42.5881 259.305 39.9105V39.9017Z" fill="#191F29"/>
<path d="M292.148 35.4652C292.148 35.4652 292.786 27.6774 300.168 28.0099C307.55 28.3424 308.975 36.8041 305.774 40.7242C302.564 44.6444 298.384 43.7519 295.27 40.7242C292.156 37.6966 292.156 35.4652 292.156 35.4652H292.148Z" fill="#191F29"/>
<path d="M282.509 66.1091L287.162 75.8045C287.328 76.1545 287.765 76.2508 288.08 76.0232L288.273 75.8745L303.526 64.079C303.762 63.8952 303.832 63.5715 303.692 63.3089L298.427 53.6748L298.304 53.4473C298.129 53.1148 297.692 53.0273 297.395 53.2723L282.666 65.3915C282.456 65.5666 282.395 65.8641 282.509 66.1178V66.1091Z" fill="#F9F6F4"/>
<path d="M250.411 147.811C259.515 152.414 269.801 154.995 280.699 154.995C289.663 154.995 298.226 153.237 306.045 150.051L311.021 92.999C311.021 92.999 309.998 89.0701 303.902 86.8212C296.966 84.2574 296.896 83.9686 296.896 83.9686C270.474 97.2779 259.306 87.6438 259.306 87.6438L253.489 90.6014C252.912 90.8901 252.466 91.3714 252.221 91.9664C250.848 95.2478 246.3 106.641 245.845 114.49C245.487 120.746 248.443 137.547 250.419 147.811H250.411Z" fill="#D1B5A7"/>
<path d="M308.118 89.1313C308.118 89.1313 314.564 91.6952 316.89 108.557C319.217 125.419 316.733 134.362 316.733 134.362L303.911 119.128C303.911 119.128 299.52 95.7728 308.118 89.1226V89.1313Z" fill="#D1B5A7"/>
<path d="M288.963 64.4553C290.197 65.164 293.398 67.4041 293.966 68.3492C294.237 68.8042 294.36 69.3205 294.403 69.7405L295.208 69.338C294.806 67.6054 294.054 65.8641 294.054 65.8641C294.054 65.8641 292.777 65.1815 292.068 64.1752C291.36 63.169 291.622 62.3552 291.622 62.3552C292.112 62.6352 292.89 63.1515 293.704 63.729C293.695 63.7115 293.678 63.7027 293.669 63.6852C292.96 62.6789 293.223 61.8651 293.223 61.8651C294.5 62.6002 297.823 64.9278 298.418 65.9078C298.742 66.4328 298.847 67.0454 298.882 67.5004L299.109 67.3866C298.724 65.5491 297.884 63.589 297.884 63.589C297.884 63.589 296.608 62.9064 295.899 61.9002C295.191 60.8939 295.453 60.0801 295.453 60.0801C296.73 60.8151 300.053 63.1427 300.648 64.1227C301.243 65.1028 301.121 66.3803 301.121 66.3803L300.648 74.7545L300.176 83.9598C300.176 83.9598 317.091 122.689 316.89 132.131C316.689 141.572 311.03 145.317 311.03 145.317C311.03 145.317 304.978 144.609 301.112 138.641C297.255 132.673 293.695 87.2237 293.695 87.2237C293.695 87.2237 291.675 84.1349 291.316 81.1772C290.958 78.2196 292.313 70.7643 292.313 70.7643C291.911 69.233 291.299 67.8242 291.299 67.8242C291.299 67.8242 290.065 67.1679 289.383 66.1966C288.701 65.2253 288.955 64.4465 288.955 64.4465L288.963 64.4553Z" fill="#FF996A"/>
<path d="M282.509 66.1091L287.162 75.8045C287.328 76.1545 287.765 76.2507 288.08 76.0232L288.272 75.8745L283.567 65.7503L298.427 53.666L298.304 53.4385C298.129 53.106 297.692 53.0185 297.395 53.2635L282.666 65.3828C282.456 65.5578 282.395 65.8553 282.509 66.1091Z" fill="#58616E"/>
<path d="M298.427 55.5999L299.074 56.8774L295.873 59.4588L295.138 58.2337L298.427 55.5999Z" fill="#58616E"/>
<path d="M205.71 93.8303L209.304 94.4953L209.4 94.1803C208.36 93.8215 205.919 92.8677 204.931 91.3802C203.663 89.4726 203.217 87.635 203.217 87.635C203.217 87.635 205.421 88.7901 206.269 90.9864L207.975 91.3014C207.293 90.8814 206.663 90.3651 206.26 89.7701C204.992 87.8625 204.546 86.0249 204.546 86.0249C204.546 86.0249 206.75 87.18 207.599 89.3763L209.741 89.7789C208.849 89.0788 207.922 88.1688 207.529 87.18C206.689 85.0449 206.637 83.1548 206.637 83.1548C206.637 83.1548 208.543 84.7474 208.911 87.075L211.272 88.0638L221.601 91.2927L221.523 89.8051C221.523 89.8051 221.129 89.5688 220.044 88.7113C218.96 87.8538 217.596 84.2924 217.596 84.2924C217.596 84.2924 223.009 86.8387 224.33 89.6476C225.651 92.4565 226.901 99.3868 226.901 99.3868C226.901 99.3868 239.312 129.269 241.516 137.503C241.516 137.503 245.776 139.157 247.805 141.949C247.805 141.949 243.467 149.911 240.029 150.743C240.029 150.743 230.059 148.844 225.31 137.197C220.56 125.559 218.645 102.038 218.645 102.038L208.674 96.5866C208.674 96.5866 205.666 95.7291 204.625 94.1715C203.584 92.614 203.226 91.1089 203.226 91.1089C203.226 91.1089 205.027 92.054 205.718 93.8478L205.71 93.8303Z" fill="#FF996A"/>
<path d="M250.113 127.747C250.113 127.747 255.956 126.618 265.953 126.618C275.949 126.618 285.946 128.49 285.946 128.49" stroke="#847062" stroke-linecap="round" stroke-linejoin="round"/>
<path d="M260.644 32.8664C260.644 32.8664 259.034 35.8328 259.174 37.8629" stroke="#58616E" stroke-linecap="round" stroke-linejoin="round"/>
<path d="M263.11 30.6176C263.11 30.6176 269.635 32.7439 273.229 37.8716" stroke="#58616E" stroke-linecap="round" stroke-linejoin="round"/>
<path d="M293.371 33.934C293.371 33.934 294.43 36.3053 294.5 37.1804C294.5 37.1804 297.989 40.4267 298.427 42.3081" stroke="#58616E" stroke-linecap="round" stroke-linejoin="round"/>
<path d="M306.491 42.7456C306.238 42.9293 302.792 45.5457 299.249 43.3406" stroke="#58616E" stroke-linecap="round" stroke-linejoin="round"/>
<path d="M289.068 32.8664C289.068 32.8664 280.969 25.3936 267.57 29.3313" stroke="#58616E" stroke-linecap="round" stroke-linejoin="round"/>
<path d="M287.441 48.2933C287.441 48.2933 283.96 49.6934 276.526 48.2933C269.092 46.8932 262.322 39.2717 262.322 39.2717" stroke="#58616E" stroke-linecap="round" stroke-linejoin="round"/>
<path d="M290.441 89.1313C290.441 89.1313 280.278 93.3752 269.862 92.7452C259.454 92.1239 258.151 90.2426 258.151 90.2426" stroke="#847062" stroke-linecap="round" stroke-linejoin="round"/>
</g>
<defs>
<clipPath id="clip0_427_2222">
<rect width="353" height="310" fill="white" transform="matrix(-1 0 0 1 353 0)"/>
</clipPath>
</defs>
</svg>
