<svg width="28" height="28" viewBox="0 0 28 28" fill="none" xmlns="http://www.w3.org/2000/svg">
<g clip-path="url(#clip0_92_423)">
<path d="M14.7731 0L16.2142 0.175C27.9767 2.09417 32.2359 17.01 22.9473 24.7683C14.6039 31.7333 1.86123 26.7808 0.180879 16.205L0.0116768 14.7642C0.035015 14.2567 -0.017496 13.7375 0.0116768 13.2358C0.414261 6.16 6.16713 0.4025 13.2444 0H14.7731ZM21.3836 9.72417C21.4536 8.93083 20.771 8.28917 20.0008 8.25417H7.96417C7.67244 8.30667 7.40405 8.37667 7.17067 8.5575C6.94896 8.72667 6.41801 9.44417 6.71557 9.67167L13.9854 13.2825L21.3836 9.71833V9.72417ZM21.3895 11.1008L13.9854 14.6533L6.62805 10.99V18.62C6.62805 19.0808 7.4799 19.7867 7.97 19.74H19.9483C20.4209 19.7225 20.8702 19.5242 21.1444 19.1333C21.1911 19.0692 21.3953 18.6608 21.3953 18.62V11.1008H21.3895Z" fill="#EAF1F6"/>
</g>
<defs>
<clipPath id="clip0_92_423">
<rect width="28" height="28" fill="white"/>
</clipPath>
</defs>
</svg>
