<svg width="216" height="31" viewBox="0 0 216 31" fill="none" xmlns="http://www.w3.org/2000/svg">
<path d="M5.572 24V4.848H0.168V1.796H14.476V4.848H9.1V24H5.572ZM25.3469 6.612C26.7656 6.612 27.8016 6.892 28.4549 7.452C29.1083 8.012 29.4349 9.00133 29.4349 10.42V24H26.0189V9.748C26.0189 9.48667 25.8976 9.356 25.6549 9.356H20.7549C20.5123 9.356 20.3909 9.48667 20.3909 9.748L20.4189 24H17.0309L17.0029 0.423998H20.3909V8.208C20.8389 7.144 21.8376 6.612 23.3869 6.612H25.3469ZM37.955 24.196C36.2563 24.196 35.0243 23.8693 34.259 23.216C33.5123 22.5627 33.139 21.4613 33.139 19.912V10.7C33.139 9.15067 33.4656 8.08667 34.119 7.508C34.7723 6.91067 35.8923 6.612 37.479 6.612H40.923C42.5283 6.612 43.667 6.91067 44.339 7.508C45.0296 8.08667 45.375 9.15067 45.375 10.7V17.392H36.555V20.976C36.555 21.2187 36.6763 21.34 36.919 21.34H44.927V24.196H37.955ZM36.919 9.356C36.6763 9.356 36.555 9.48667 36.555 9.748V14.928H41.987V9.748C41.987 9.48667 41.8656 9.356 41.623 9.356H36.919ZM69.2606 1.796H72.3126V24H69.8486L59.6006 8.208V24H56.5486V1.796H58.9846L69.2606 17.616V1.796ZM81.455 24.196C79.7563 24.196 78.5243 23.8693 77.759 23.216C77.0123 22.5627 76.639 21.4613 76.639 19.912V10.7C76.639 9.15067 76.9656 8.08667 77.619 7.508C78.2723 6.91067 79.3923 6.612 80.979 6.612H84.423C86.0283 6.612 87.167 6.91067 87.839 7.508C88.5296 8.08667 88.875 9.15067 88.875 10.7V17.392H80.055V20.976C80.055 21.2187 80.1763 21.34 80.419 21.34H88.427V24.196H81.455ZM80.419 9.356C80.1763 9.356 80.055 9.48667 80.055 9.748V14.928H85.487V9.748C85.487 9.48667 85.3656 9.356 85.123 9.356H80.419ZM96.6261 24.252C95.2074 24.252 94.1714 24 93.5181 23.496C92.8834 22.992 92.5661 22.0307 92.5661 20.612V6.864H95.9541V21.116C95.9541 21.3773 96.0754 21.508 96.3181 21.508H100.798C101.041 21.508 101.162 21.3773 101.162 21.116V6.864H104.494V21.116C104.494 21.3773 104.615 21.508 104.858 21.508H109.366C109.609 21.508 109.73 21.3773 109.73 21.116L109.702 6.864H113.09L113.118 20.472C113.118 21.8907 112.791 22.88 112.138 23.44C111.503 23.9813 110.477 24.252 109.058 24.252H106.482C104.485 24.252 103.262 23.5613 102.814 22.18C102.366 23.5613 101.153 24.252 99.1741 24.252H96.6261ZM116.873 24.084L116.845 21.34H124.405C124.667 21.34 124.797 21.2187 124.797 20.976V17.028C124.797 16.7667 124.667 16.636 124.405 16.636H121.017C119.412 16.636 118.264 16.3467 117.573 15.768C116.901 15.1707 116.565 14.1253 116.565 12.632V10.784C116.565 9.23467 116.92 8.152 117.629 7.536C118.357 6.90133 119.515 6.59333 121.101 6.612H127.261V9.468L120.373 9.44C120.131 9.44 120.009 9.57067 120.009 9.832V13.584C120.009 13.8453 120.131 13.976 120.373 13.976H123.733C125.339 13.976 126.477 14.2653 127.149 14.844C127.821 15.404 128.157 16.44 128.157 17.952V20.304C128.157 21.7227 127.831 22.712 127.177 23.272C126.543 23.8133 125.516 24.084 124.097 24.084H116.873ZM131.469 30.636V6.864H134.465L134.773 8.824C134.922 8.096 135.24 7.54533 135.725 7.172C136.229 6.79867 136.938 6.612 137.853 6.612H139.813C141.232 6.612 142.268 6.892 142.921 7.452C143.574 8.012 143.901 9.00133 143.901 10.42V20.08C143.901 21.592 143.556 22.6373 142.865 23.216C142.193 23.7947 141.054 24.084 139.449 24.084L134.857 24.028V30.636H131.469ZM134.857 9.748V21.256L140.149 21.312C140.392 21.312 140.513 21.1907 140.513 20.948V9.748C140.513 9.48667 140.392 9.356 140.149 9.356H135.249C134.988 9.356 134.857 9.48667 134.857 9.748ZM147.517 10.868C147.517 9.31867 147.891 8.22667 148.637 7.592C149.384 6.93867 150.607 6.612 152.305 6.612H155.357C157.075 6.612 158.307 6.93867 159.053 7.592C159.8 8.22667 160.173 9.31867 160.173 10.868V19.996C160.173 21.5453 159.8 22.6467 159.053 23.3C158.307 23.9347 157.075 24.252 155.357 24.252H152.305C150.607 24.252 149.384 23.9347 148.637 23.3C147.891 22.6467 147.517 21.5453 147.517 19.996V10.868ZM151.325 9.44C151.064 9.44 150.933 9.57067 150.933 9.832V21.032C150.933 21.2933 151.064 21.424 151.325 21.424H156.393C156.636 21.424 156.757 21.2933 156.757 21.032V9.832C156.757 9.57067 156.636 9.44 156.393 9.44H151.325ZM172.446 9.524H168.442V20.78C168.442 21.0227 168.563 21.144 168.806 21.144H172.446V24H169.842C168.162 24 166.939 23.6733 166.174 23.02C165.427 22.3667 165.054 21.2747 165.054 19.744V9.524H163.038V6.864H165.054V2.496H168.442V6.864H172.446V9.524ZM179.529 24.196C177.831 24.196 176.599 23.8693 175.833 23.216C175.087 22.5627 174.713 21.4613 174.713 19.912V10.7C174.713 9.15067 175.04 8.08667 175.693 7.508C176.347 6.91067 177.467 6.612 179.053 6.612H182.497C184.103 6.612 185.241 6.91067 185.913 7.508C186.604 8.08667 186.949 9.15067 186.949 10.7V17.392H178.129V20.976C178.129 21.2187 178.251 21.34 178.493 21.34H186.501V24.196H179.529ZM178.493 9.356C178.251 9.356 178.129 9.48667 178.129 9.748V14.928H183.561V9.748C183.561 9.48667 183.44 9.356 183.197 9.356H178.493ZM199.096 6.612C200.496 6.612 201.523 6.892 202.176 7.452C202.83 8.012 203.156 9.00133 203.156 10.42V24H199.768V9.748C199.768 9.48667 199.647 9.356 199.404 9.356H194.504C194.243 9.356 194.112 9.48667 194.112 9.748L194.14 24H190.78L190.724 6.864H193.748L194 8.6C194.374 7.27467 195.41 6.612 197.108 6.612H199.096ZM215.454 9.524H211.45V20.78C211.45 21.0227 211.571 21.144 211.814 21.144H215.454V24H212.85C211.17 24 209.947 23.6733 209.182 23.02C208.435 22.3667 208.062 21.2747 208.062 19.744V9.524H206.046V6.864H208.062V2.496H211.45V6.864H215.454V9.524Z" fill="#EAF1F6"/>
</svg>
