<svg width="140" height="53" viewBox="0 0 140 53" fill="none" xmlns="http://www.w3.org/2000/svg">
<g clip-path="url(#clip0_89_530)">
<path d="M7.04002 14.7573H0C0 14.7573 0.954743 20.4199 0.954743 24.7846V42.8299C0.954743 47.1946 0 52.8571 0 52.8571H7.04002C7.04002 52.8571 6.08528 47.1946 6.08528 42.8299V24.7846C6.08528 20.4199 7.04002 14.7573 7.04002 14.7573Z" fill="#2E394B"/>
<path d="M31.3811 29.1972C30.8796 27.4379 29.1727 26.1881 27.2535 26.1881C26.0481 26.1881 24.9487 26.5053 24.1 27.0341C25.0547 24.9094 29.1823 16.8914 36.2513 19.0738V14.7668C33.387 14.7668 26.5399 14.1611 20.9079 31.4565L19.7313 34.7156L18.1401 39.1283V24.794C18.1401 20.4389 19.0948 14.7668 19.0948 14.7668H12.0548C12.0548 14.7668 13.0096 20.4293 13.0096 24.794V42.8393C13.0096 47.204 12.0548 52.8666 12.0548 52.8666H19.0948C19.0948 52.8666 18.2172 47.6655 18.1401 43.3873L23.3285 29.0434C23.83 28.5723 24.37 28.2935 24.8715 28.2935C25.5755 28.2935 26.2313 28.8415 26.6363 30.149L30.5035 43.2335C31.7669 47.4444 32.413 52.857 32.413 52.857H39.3566C39.3566 52.857 36.7913 47.4444 35.5376 43.2335L31.3618 29.1972H31.3811Z" fill="#2E394B"/>
<path d="M112.139 14.7573H105.099C105.099 14.7573 106.054 20.4199 106.054 24.7846V42.8299C106.054 47.1946 105.099 52.8571 105.099 52.8571H112.139C112.139 52.8571 111.184 47.1946 111.184 42.8299V24.7846C111.184 20.4199 112.139 14.7573 112.139 14.7573Z" fill="#2E394B"/>
<path d="M130.028 32.418L130.549 31.4855L140 14.7573H135.979C135.979 18.7182 134.272 20.6987 131.253 26.0633L128.939 30.1203L125.824 23.7848C123.866 19.8719 122.352 14.7573 122.352 14.7573H116.17L125.38 33.6198L126.151 35.1964L125.611 36.1674L116.18 52.8571H120.201C120.201 48.8962 121.908 46.9158 124.927 41.5512L127.241 37.4942L130.356 43.8297C132.314 47.7426 133.828 52.8571 133.828 52.8571H140.019L130.809 33.9947L130.038 32.418H130.028Z" fill="#2E394B"/>
<path d="M98.7532 14.7573H93.8927C95.754 20.218 98.3192 31.8027 98.3192 39.4265V49.3L78.5011 14.7573H73.2741V52.8571H79.4558C77.5946 47.3965 75.0293 35.8117 75.0293 28.1879V18.6606L94.8474 52.8475H100.074V14.7573H98.7532Z" fill="#2E394B"/>
<path d="M64.1799 14.7573H46.0012C43.6481 14.7573 41.7483 16.6609 41.7483 18.997V48.6078C41.7483 50.9536 43.6578 52.8475 46.0012 52.8475H64.1799C66.533 52.8475 68.4329 50.944 68.4329 48.6078V18.997C68.4329 16.6513 66.5234 14.7573 64.1799 14.7573ZM47.4864 48.8001C47.0042 48.8001 46.6184 48.4155 46.6184 47.9348V19.67C46.6184 19.1893 47.0042 18.8048 47.4864 18.8048H62.6948C63.177 18.8048 63.5627 19.1893 63.5627 19.67V47.9348C63.5627 48.4155 63.177 48.8001 62.6948 48.8001H47.4864Z" fill="#C4A291"/>
<path d="M63.5627 7.62402H46.6185V11.8445H63.5627V7.62402Z" fill="#C4A291"/>
<path d="M60.2067 5.60489H54.2178L59.8402 0L60.2163 0.374941C61.6629 1.81702 61.6629 4.16281 60.2163 5.60489H60.2067Z" fill="#C4A291"/>
</g>
<defs>
<clipPath id="clip0_89_530">
<rect width="140" height="52.8571" fill="white"/>
</clipPath>
</defs>
</svg>
