<svg width="66" height="66" viewBox="0 0 66 66" fill="none" xmlns="http://www.w3.org/2000/svg">
<path d="M7.06515 52.0582L7.01038 52.1129C6.271 50.4972 5.80546 48.6625 5.61377 46.636C5.80546 48.6351 6.32577 50.4425 7.06515 52.0582Z" fill="white"/>
<path d="M24.646 28.4252C28.2455 28.4252 31.1635 25.5072 31.1635 21.9077C31.1635 18.3082 28.2455 15.3902 24.646 15.3902C21.0464 15.3902 18.1284 18.3082 18.1284 21.9077C18.1284 25.5072 21.0464 28.4252 24.646 28.4252Z" fill="white"/>
<path d="M44.3358 5.47693H21.3875C11.4195 5.47693 5.47705 11.4194 5.47705 21.3874V44.3357C5.47705 47.3206 5.99736 49.9222 7.01059 52.1129C9.36567 57.316 14.4044 60.2462 21.3875 60.2462H44.3358C54.3038 60.2462 60.2463 54.3037 60.2463 44.3357V38.0646V21.3874C60.2463 11.4194 54.3038 5.47693 44.3358 5.47693ZM55.7826 34.2308C53.6466 32.396 50.1961 32.396 48.0601 34.2308L36.6681 44.0071C34.5321 45.8419 31.0817 45.8419 28.9457 44.0071L28.0146 43.2403C26.0703 41.5425 22.9758 41.3782 20.7851 42.8569L10.5432 49.7305C9.94074 48.1969 9.58474 46.4169 9.58474 44.3357V21.3874C9.58474 13.6649 13.6651 9.58462 21.3875 9.58462H44.3358C52.0583 9.58462 56.1386 13.6649 56.1386 21.3874V34.532L55.7826 34.2308Z" fill="white"/>
</svg>
