<svg width="456" height="294" viewBox="0 0 456 294" fill="none" xmlns="http://www.w3.org/2000/svg">
<rect width="456" height="294" rx="8" fill="#8A87AD"/>
<path d="M181.008 182.634L180.907 182.736C179.545 179.737 178.688 176.331 178.335 172.569C178.688 176.28 179.646 179.635 181.008 182.634Z" fill="white"/>
<path d="M213.375 138.765C220.002 138.765 225.374 133.348 225.374 126.667C225.374 119.985 220.002 114.568 213.375 114.568C206.748 114.568 201.376 119.985 201.376 126.667C201.376 133.348 206.748 138.765 213.375 138.765Z" fill="white"/>
<path d="M249.625 96.1667H207.375C189.024 96.1667 178.083 107.198 178.083 125.701V168.299C178.083 173.84 179.041 178.669 180.907 182.736C185.242 192.394 194.519 197.833 207.375 197.833H249.625C267.976 197.833 278.917 186.803 278.917 168.299V156.658V125.701C278.917 107.198 267.976 96.1667 249.625 96.1667ZM270.699 149.542C266.766 146.136 260.414 146.136 256.481 149.542L235.508 167.689C231.575 171.095 225.223 171.095 221.29 167.689L219.576 166.266C215.997 163.114 210.3 162.809 206.266 165.554L187.41 178.313C186.301 175.467 185.646 172.163 185.646 168.299V125.701C185.646 111.366 193.158 103.792 207.375 103.792H249.625C263.842 103.792 271.354 111.366 271.354 125.701V150.101L270.699 149.542Z" fill="white"/>
</svg>
