<svg width="80" height="80" viewBox="0 0 80 80" fill="none" xmlns="http://www.w3.org/2000/svg">
<circle cx="40" cy="40" r="40" fill="#B39384"/>
<path d="M25.28 46V34.48H26.456V46H25.28ZM32.4384 46.24C31.569 46.24 30.833 46.0453 30.2304 45.656C29.6277 45.2667 29.169 44.7307 28.8544 44.048C28.545 43.36 28.385 42.5707 28.3744 41.68C28.385 40.7733 28.5504 39.9787 28.8704 39.296C29.1904 38.608 29.6517 38.0747 30.2544 37.696C30.857 37.312 31.5877 37.12 32.4464 37.12C33.321 37.12 34.081 37.3333 34.7264 37.76C35.377 38.1867 35.8224 38.7707 36.0624 39.512L34.9104 39.88C34.7077 39.3627 34.385 38.9627 33.9424 38.68C33.505 38.392 33.0037 38.248 32.4384 38.248C31.8037 38.248 31.2784 38.3947 30.8624 38.688C30.4464 38.976 30.137 39.3787 29.9344 39.896C29.7317 40.4133 29.6277 41.008 29.6224 41.68C29.633 42.7147 29.873 43.5467 30.3424 44.176C30.8117 44.8 31.5104 45.112 32.4384 45.112C33.025 45.112 33.5237 44.9787 33.9344 44.712C34.3504 44.44 34.665 44.0453 34.8784 43.528L36.0624 43.88C35.7424 44.648 35.273 45.2347 34.6544 45.64C34.0357 46.04 33.297 46.24 32.4384 46.24ZM41.0874 46.24C40.2287 46.24 39.4954 46.0453 38.8874 45.656C38.2794 45.2667 37.8127 44.728 37.4874 44.04C37.162 43.352 36.9994 42.5627 36.9994 41.672C36.9994 40.7653 37.1647 39.9707 37.4954 39.288C37.826 38.6053 38.2954 38.0747 38.9034 37.696C39.5167 37.312 40.2447 37.12 41.0874 37.12C41.9514 37.12 42.6874 37.3147 43.2954 37.704C43.9087 38.088 44.3754 38.624 44.6954 39.312C45.0207 39.9947 45.1834 40.7813 45.1834 41.672C45.1834 42.5787 45.0207 43.376 44.6954 44.064C44.37 44.7467 43.9007 45.28 43.2874 45.664C42.674 46.048 41.9407 46.24 41.0874 46.24ZM41.0874 45.112C42.0474 45.112 42.762 44.7947 43.2314 44.16C43.7007 43.52 43.9354 42.6907 43.9354 41.672C43.9354 40.6267 43.698 39.7947 43.2234 39.176C42.754 38.5573 42.042 38.248 41.0874 38.248C40.442 38.248 39.9087 38.3947 39.4874 38.688C39.0714 38.976 38.7594 39.3787 38.5514 39.896C38.3487 40.408 38.2474 41 38.2474 41.672C38.2474 42.712 38.4874 43.5467 38.9674 44.176C39.4474 44.8 40.154 45.112 41.0874 45.112ZM53.1881 46V41.592C53.1881 41.112 53.1428 40.672 53.0521 40.272C52.9615 39.8667 52.8148 39.5147 52.6121 39.216C52.4148 38.912 52.1561 38.6773 51.8361 38.512C51.5215 38.3467 51.1375 38.264 50.6841 38.264C50.2681 38.264 49.9001 38.336 49.5801 38.48C49.2655 38.624 48.9988 38.832 48.7801 39.104C48.5668 39.3707 48.4041 39.696 48.2921 40.08C48.1801 40.464 48.1241 40.9013 48.1241 41.392L47.2921 41.208C47.2921 40.3227 47.4468 39.5787 47.7561 38.976C48.0655 38.3733 48.4921 37.9173 49.0361 37.608C49.5801 37.2987 50.2041 37.144 50.9081 37.144C51.4255 37.144 51.8761 37.224 52.2601 37.384C52.6495 37.544 52.9775 37.76 53.2441 38.032C53.5161 38.304 53.7348 38.616 53.9001 38.968C54.0655 39.3147 54.1855 39.6853 54.2601 40.08C54.3348 40.4693 54.3721 40.8587 54.3721 41.248V46H53.1881ZM46.9401 46V37.36H48.0041V39.488H48.1241V46H46.9401Z" fill="#F9F6F4"/>
</svg>
