<svg width="156" height="22" viewBox="0 0 156 22" fill="none" xmlns="http://www.w3.org/2000/svg">
<path d="M3.98 17V3.32H0.12V1.14H10.34V3.32H6.5V17H3.98ZM18.2478 4.58C19.2611 4.58 20.0011 4.78 20.4678 5.18C20.9345 5.58 21.1678 6.28667 21.1678 7.3V17H18.7278V6.82C18.7278 6.63333 18.6411 6.54 18.4678 6.54H14.9678C14.7945 6.54 14.7078 6.63333 14.7078 6.82L14.7278 17H12.3078L12.2878 0.159999H14.7078V5.72C15.0278 4.96 15.7411 4.58 16.8478 4.58H18.2478ZM27.3964 17.14C26.1831 17.14 25.3031 16.9067 24.7564 16.44C24.2231 15.9733 23.9564 15.1867 23.9564 14.08V7.5C23.9564 6.39333 24.1897 5.63333 24.6564 5.22C25.1231 4.79333 25.9231 4.58 27.0564 4.58H29.5164C30.6631 4.58 31.4764 4.79333 31.9564 5.22C32.4497 5.63333 32.6964 6.39333 32.6964 7.5V12.28H26.3964V14.84C26.3964 15.0133 26.4831 15.1 26.6564 15.1H32.3764V17.14H27.3964ZM26.6564 6.54C26.4831 6.54 26.3964 6.63333 26.3964 6.82V10.52H30.2764V6.82C30.2764 6.63333 30.1897 6.54 30.0164 6.54H26.6564ZM50.0433 1.14H52.2233V17H50.4633L43.1433 5.72V17H40.9633V1.14H42.7033L50.0433 12.44V1.14ZM58.8964 17.14C57.6831 17.14 56.8031 16.9067 56.2564 16.44C55.7231 15.9733 55.4564 15.1867 55.4564 14.08V7.5C55.4564 6.39333 55.6897 5.63333 56.1564 5.22C56.6231 4.79333 57.4231 4.58 58.5564 4.58H61.0164C62.1631 4.58 62.9764 4.79333 63.4564 5.22C63.9497 5.63333 64.1964 6.39333 64.1964 7.5V12.28H57.8964V14.84C57.8964 15.0133 57.9831 15.1 58.1564 15.1H63.8764V17.14H58.8964ZM58.1564 6.54C57.9831 6.54 57.8964 6.63333 57.8964 6.82V10.52H61.7764V6.82C61.7764 6.63333 61.6897 6.54 61.5164 6.54H58.1564ZM69.8758 17.18C68.8624 17.18 68.1224 17 67.6558 16.64C67.2024 16.28 66.9758 15.5933 66.9758 14.58V4.76H69.3958V14.94C69.3958 15.1267 69.4824 15.22 69.6558 15.22H72.8558C73.0291 15.22 73.1158 15.1267 73.1158 14.94V4.76H75.4958V14.94C75.4958 15.1267 75.5824 15.22 75.7558 15.22H78.9758C79.1491 15.22 79.2358 15.1267 79.2358 14.94L79.2158 4.76H81.6358L81.6558 14.48C81.6558 15.4933 81.4224 16.2 80.9558 16.6C80.5024 16.9867 79.7691 17.18 78.7558 17.18H76.9158C75.4891 17.18 74.6158 16.6867 74.2958 15.7C73.9758 16.6867 73.1091 17.18 71.6958 17.18H69.8758ZM84.4809 17.06L84.4609 15.1H89.8609C90.0476 15.1 90.1409 15.0133 90.1409 14.84V12.02C90.1409 11.8333 90.0476 11.74 89.8609 11.74H87.4409C86.2943 11.74 85.4743 11.5333 84.9809 11.12C84.5009 10.6933 84.2609 9.94667 84.2609 8.88V7.56C84.2609 6.45333 84.5143 5.68 85.0209 5.24C85.5409 4.78667 86.3676 4.56667 87.5009 4.58H91.9009V6.62L86.9809 6.6C86.8076 6.6 86.7209 6.69333 86.7209 6.88V9.56C86.7209 9.74667 86.8076 9.84 86.9809 9.84H89.3809C90.5276 9.84 91.3409 10.0467 91.8209 10.46C92.3009 10.86 92.5409 11.6 92.5409 12.68V14.36C92.5409 15.3733 92.3076 16.08 91.8409 16.48C91.3876 16.8667 90.6543 17.06 89.6409 17.06H84.4809ZM95.0494 21.74V4.76H97.1894L97.4094 6.16C97.516 5.64 97.7427 5.24667 98.0894 4.98C98.4494 4.71333 98.956 4.58 99.6094 4.58H101.009C102.023 4.58 102.763 4.78 103.229 5.18C103.696 5.58 103.929 6.28667 103.929 7.3V14.2C103.929 15.28 103.683 16.0267 103.189 16.44C102.709 16.8533 101.896 17.06 100.749 17.06L97.4694 17.02V21.74H95.0494ZM97.4694 6.82V15.04L101.249 15.08C101.423 15.08 101.509 14.9933 101.509 14.82V6.82C101.509 6.63333 101.423 6.54 101.249 6.54H97.7494C97.5627 6.54 97.4694 6.63333 97.4694 6.82ZM106.655 7.62C106.655 6.51333 106.922 5.73333 107.455 5.28C107.988 4.81333 108.862 4.58 110.075 4.58H112.255C113.482 4.58 114.362 4.81333 114.895 5.28C115.428 5.73333 115.695 6.51333 115.695 7.62V14.14C115.695 15.2467 115.428 16.0333 114.895 16.5C114.362 16.9533 113.482 17.18 112.255 17.18H110.075C108.862 17.18 107.988 16.9533 107.455 16.5C106.922 16.0333 106.655 15.2467 106.655 14.14V7.62ZM109.375 6.6C109.188 6.6 109.095 6.69333 109.095 6.88V14.88C109.095 15.0667 109.188 15.16 109.375 15.16H112.995C113.168 15.16 113.255 15.0667 113.255 14.88V6.88C113.255 6.69333 113.168 6.6 112.995 6.6H109.375ZM124.604 6.66H121.744V14.7C121.744 14.8733 121.831 14.96 122.004 14.96H124.604V17H122.744C121.544 17 120.671 16.7667 120.124 16.3C119.591 15.8333 119.324 15.0533 119.324 13.96V6.66H117.884V4.76H119.324V1.64H121.744V4.76H124.604V6.66ZM129.807 17.14C128.593 17.14 127.713 16.9067 127.167 16.44C126.633 15.9733 126.367 15.1867 126.367 14.08V7.5C126.367 6.39333 126.6 5.63333 127.067 5.22C127.533 4.79333 128.333 4.58 129.467 4.58H131.927C133.073 4.58 133.887 4.79333 134.367 5.22C134.86 5.63333 135.107 6.39333 135.107 7.5V12.28H128.807V14.84C128.807 15.0133 128.893 15.1 129.067 15.1H134.787V17.14H129.807ZM129.067 6.54C128.893 6.54 128.807 6.63333 128.807 6.82V10.52H132.687V6.82C132.687 6.63333 132.6 6.54 132.427 6.54H129.067ZM143.926 4.58C144.926 4.58 145.659 4.78 146.126 5.18C146.593 5.58 146.826 6.28667 146.826 7.3V17H144.406V6.82C144.406 6.63333 144.319 6.54 144.146 6.54H140.646C140.459 6.54 140.366 6.63333 140.366 6.82L140.386 17H137.986L137.946 4.76H140.106L140.286 6C140.553 5.05333 141.293 4.58 142.506 4.58H143.926ZM155.753 6.66H152.893V14.7C152.893 14.8733 152.979 14.96 153.153 14.96H155.753V17H153.893C152.693 17 151.819 16.7667 151.273 16.3C150.739 15.8333 150.473 15.0533 150.473 13.96V6.66H149.033V4.76H150.473V1.64H152.893V4.76H155.753V6.66Z" fill="#242424"/>
</svg>
