<svg width="96" height="36" viewBox="0 0 96 36" fill="none" xmlns="http://www.w3.org/2000/svg">
<g clip-path="url(#clip0_175_156)">
<path d="M4.79483 10.0509H0C0 10.0509 0.650257 13.9076 0.650257 16.8803V29.1706C0.650257 32.1433 0 36 0 36H4.79483C4.79483 36 4.14457 32.1433 4.14457 29.1706V16.8803C4.14457 13.9076 4.79483 10.0509 4.79483 10.0509Z" fill="#EAEBED"/>
<path d="M21.3731 19.8858C21.0315 18.6875 19.869 17.8363 18.5619 17.8363C17.7408 17.8363 16.9921 18.0524 16.4141 18.4125C17.0643 16.9654 19.8755 11.5045 24.6901 12.9909V10.0575C22.7393 10.0575 18.0758 9.64496 14.24 21.4245L13.4386 23.6442L12.3549 26.6497V16.8869C12.3549 13.9207 13.0051 10.0575 13.0051 10.0575H8.21031C8.21031 10.0575 8.86057 13.9141 8.86057 16.8869V29.1772C8.86057 32.1499 8.21031 36.0065 8.21031 36.0065H13.0051C13.0051 36.0065 12.4074 32.4642 12.3549 29.5504L15.8886 19.781C16.2302 19.4602 16.598 19.2703 16.9395 19.2703C17.419 19.2703 17.8656 19.6435 18.1415 20.534L20.7754 29.4456C21.6358 32.3136 22.0759 36 22.0759 36H26.805C26.805 36 25.0579 32.3136 24.204 29.4456L21.36 19.8858H21.3731Z" fill="#EAEBED"/>
<path d="M76.3757 10.0509H71.5808C71.5808 10.0509 72.2311 13.9076 72.2311 16.8803V29.1706C72.2311 32.1433 71.5808 36 71.5808 36H76.3757C76.3757 36 75.7254 32.1433 75.7254 29.1706V16.8803C75.7254 13.9076 76.3757 10.0509 76.3757 10.0509Z" fill="#EAEBED"/>
<path d="M88.5598 22.0793L88.9145 21.4442L95.3513 10.0509H92.6124C92.6124 12.7486 91.4498 14.0975 89.3939 17.7512L87.8176 20.5144L85.696 16.1993C84.3627 13.5344 83.3314 10.0509 83.3314 10.0509H79.1212L85.3939 22.8978L85.9193 23.9716L85.5515 24.633L79.1278 36H81.8667C81.8667 33.3023 83.0293 31.9534 85.0852 28.2997L86.6615 25.5366L88.7831 29.8516C90.1164 32.5166 91.1477 36 91.1477 36H95.3645L89.0918 23.1531L88.5663 22.0793H88.5598Z" fill="#EAEBED"/>
<path d="M67.2589 10.0509H63.9485C65.2162 13.7701 66.9634 21.6602 66.9634 26.8527V33.5773L53.4656 10.0509H49.9056V36H54.1159C52.8482 32.2808 51.101 24.3907 51.101 19.1983V12.7093L64.5988 35.9935H68.1588V10.0509H67.2589Z" fill="#EAEBED"/>
<path d="M43.7117 10.0509H31.3306C29.7279 10.0509 28.434 11.3474 28.434 12.9385V33.1059C28.434 34.7035 29.7345 35.9935 31.3306 35.9935H43.7117C45.3144 35.9935 46.6083 34.697 46.6083 33.1059V12.9385C46.6083 11.3408 45.3078 10.0509 43.7117 10.0509ZM32.3421 33.2368C32.0137 33.2368 31.7509 32.9749 31.7509 32.6475V13.3969C31.7509 13.0695 32.0137 12.8076 32.3421 12.8076H42.7002C43.0286 12.8076 43.2914 13.0695 43.2914 13.3969V32.6475C43.2914 32.9749 43.0286 33.2368 42.7002 33.2368H32.3421Z" fill="#C5A291"/>
<path d="M43.2914 5.19243H31.7509V8.06693H43.2914V5.19243Z" fill="#C5A291"/>
<path d="M41.0056 3.81739H36.9267L40.756 0L41.0122 0.255366C41.9974 1.23754 41.9974 2.83521 41.0122 3.81739H41.0056Z" fill="#C5A291"/>
</g>
<defs>
<clipPath id="clip0_175_156">
<rect width="95.3513" height="36" fill="white"/>
</clipPath>
</defs>
</svg>
