<svg width="48" height="48" viewBox="0 0 48 48" fill="none" xmlns="http://www.w3.org/2000/svg">
<g clip-path="url(#clip0_490_924)">
<path d="M23.0123 37.1626C22.9325 36.943 21.1961 36.7435 20.8368 36.6437C16.4859 35.5459 12.8934 32.2129 11.5761 27.9019C11.2767 26.9439 11.1769 25.9459 10.8776 25.0279C10.7179 24.948 10.5582 24.948 10.3786 24.9281C7.36489 24.6686 3.75242 25.2674 0.79857 24.9281C-0.259227 24.8083 -0.279185 23.2715 0.718736 23.0719C1.81645 22.8524 3.41312 23.1917 4.55075 23.0719C4.69046 23.0719 4.83017 23.052 4.92996 22.9123C5.10959 22.6728 5.18942 21.0961 5.26926 20.637C6.40689 14.3701 10.3786 8.96133 16.1865 6.2869C16.8252 5.98753 19.0206 5.0894 19.5994 5.20915C20.3778 5.36881 20.5774 6.36674 19.9986 6.88565C13.4323 8.70187 8.28298 13.9509 7.14535 20.7568C7.08547 21.116 6.86593 22.6528 6.96572 22.8524C6.98568 22.8923 7.16531 23.0719 7.16531 23.0719H10.6979C10.6979 23.0719 10.9574 22.9322 10.9973 22.8324C11.5162 17.5434 15.2884 12.8931 20.4177 11.4761C21.2759 11.2366 22.1541 11.1967 22.9724 10.9173L23.0123 0.977963C23.172 -0.299376 24.7287 -0.299376 24.8884 0.977963C24.6489 4.45073 25.2077 8.38254 24.8884 11.7954C24.7487 13.2923 23.4115 12.8333 22.2539 12.9929C13.5919 14.2503 9.81978 24.9879 15.6876 31.4944C21.9345 38.4399 33.5503 34.7875 34.9474 25.6865C35.0472 25.1077 34.9873 24.2694 35.1071 23.7705C35.2268 23.2715 35.7258 23.1119 36.1649 23.0719C39.5578 22.7526 43.4298 23.3114 46.8826 23.0719C47.9204 22.9721 48.2796 24.6087 47.3416 24.9081C46.4036 25.2075 43.8489 24.6886 43.1703 25.0079C42.7911 25.1875 42.811 26.405 42.7312 26.864C41.6734 32.8715 38.3404 37.941 32.9316 40.8948C32.0934 41.3538 28.6805 42.8906 27.8821 42.6911C27.1437 42.4915 26.9641 41.4936 27.5429 41.0345C27.9221 40.7351 29.6185 40.3559 30.2572 40.0965C35.5262 38.0008 39.6377 33.0312 40.7154 27.4628C40.7952 27.0836 41.2343 24.968 40.7154 24.968H37.083C36.6838 25.5468 36.7237 26.4249 36.5441 27.1435C35.4065 31.6141 31.9337 35.3264 27.463 36.5838C27.0639 36.7035 25.0081 37.0029 24.9083 37.1426L24.8684 47.0819C24.7287 48.3193 23.2318 48.3393 23.0123 47.2615C22.7927 46.1838 23.132 44.7069 23.0123 43.6491C23.0123 43.5094 22.9923 43.3896 22.8526 43.2898C22.653 43.1301 20.757 42.9505 20.278 42.8507C14.3903 41.6333 9.26094 37.6216 6.76614 32.1331C6.38693 31.2948 5.36905 28.8 5.54867 27.9817C5.70834 27.2832 6.64639 27.1235 7.08547 27.6424C7.38485 28.0017 7.90377 30.1372 8.18318 30.8158C10.4385 36.2445 15.8273 40.4956 21.715 41.1942C21.9345 41.2141 22.9923 41.3938 22.9923 41.0545V37.2025L23.0123 37.1626Z" fill="#53443D"/>
<path d="M44.3076 10.2387C44.3076 10.2387 44.0681 10.3584 43.9683 10.4782C41.8726 12.6736 39.6373 14.7493 37.5017 16.9248C35.8851 17.264 34.0689 16.805 32.4323 17.1643L24.4489 25.0877C23.5907 25.6665 22.5329 24.5688 23.2115 23.7306L31.0552 15.7672C31.3146 14.0707 30.7758 12.1746 31.3745 10.578L37.9807 3.97174C38.3999 3.51269 39.3579 3.73224 39.5175 4.29107C39.757 5.08941 39.4177 7.02538 39.5175 8.0233C39.5375 8.22288 39.5774 8.40251 39.7371 8.54222C40.236 8.9813 43.0502 8.48234 43.9084 8.7418C44.5071 8.92143 44.6668 9.75968 44.2876 10.2187L44.3076 10.2387ZM37.5616 7.70396C37.362 7.50438 36.9828 7.58421 36.8032 7.7838L33.051 11.6358C32.9512 11.8553 32.9512 14.3501 32.9911 14.7094C33.0111 14.889 33.0311 15.0287 33.2107 15.1285H36.7234L40.6153 11.0969C40.9745 10.2387 38.8789 10.558 38.4597 10.4981C37.1026 10.2786 38.0007 8.18296 37.5417 7.72392L37.5616 7.70396Z" fill="#53443D"/>
<path d="M18.4811 29.4786C14.6291 25.6266 15.9664 18.9805 20.9759 16.9048C21.8541 16.5455 24.8678 15.5875 24.8079 17.284C24.768 18.262 23.8898 18.0823 23.3111 18.1821C15.3676 19.6191 17.2038 30.5763 24.7481 29.7979C27.3227 29.5385 29.1589 27.5027 29.6778 25.0478C29.7975 24.4491 29.6578 23.2516 30.3963 23.0719C32.7514 22.5331 31.2745 26.7443 30.7156 27.7622C28.2807 32.1929 22.0736 33.0512 18.5011 29.4586L18.4811 29.4786Z" fill="#53443D"/>
</g>
<defs>
<clipPath id="clip0_490_924">
<rect width="47.9002" height="48" fill="white"/>
</clipPath>
</defs>
</svg>
