<svg width="169" height="170" viewBox="0 0 169 170" fill="none" xmlns="http://www.w3.org/2000/svg">
<path d="M18.1675 134.654L18.0267 134.796C16.1254 130.617 14.9283 125.871 14.4354 120.629C14.9283 125.8 16.2663 130.475 18.1675 134.654Z" fill="white"/>
<path d="M63.375 73.5248C72.6308 73.5248 80.1342 65.977 80.1342 56.6664C80.1342 47.3558 72.6308 39.8081 63.375 39.8081C54.1192 39.8081 46.6158 47.3558 46.6158 56.6664C46.6158 65.977 54.1192 73.5248 63.375 73.5248Z" fill="white"/>
<path d="M114.005 14.1665H54.9954C29.3638 14.1665 14.0833 29.5373 14.0833 55.3207V114.679C14.0833 122.4 15.4213 129.129 18.0267 134.796C24.0825 148.254 37.0392 155.833 54.9954 155.833H114.005C139.636 155.833 154.917 140.462 154.917 114.679V98.4582V55.3207C154.917 29.5373 139.636 14.1665 114.005 14.1665ZM143.439 88.5415C137.946 83.7957 129.074 83.7957 123.581 88.5415L94.2879 113.829C88.7954 118.575 79.9229 118.575 74.4304 113.829L72.0363 111.846C67.0367 107.454 59.0796 107.029 53.4463 110.854L27.1104 128.633C25.5613 124.666 24.6458 120.062 24.6458 114.679V55.3207C24.6458 35.3457 35.1379 24.7915 54.9954 24.7915H114.005C133.862 24.7915 144.354 35.3457 144.354 55.3207V89.3207L143.439 88.5415Z" fill="white"/>
</svg>
