<svg width="26" height="26" viewBox="0 0 26 26" fill="none" xmlns="http://www.w3.org/2000/svg">
<circle cx="13" cy="13" r="13" fill="#737A86"/>
<path d="M12.9998 11.9795C12.0805 11.9795 11.2936 11.6476 10.6389 10.9838C9.98429 10.3199 9.65697 9.52194 9.65697 8.58976C9.65697 7.65757 9.98429 6.85956 10.6389 6.19573C11.2936 5.5319 12.0805 5.19999 12.9998 5.19999C13.9191 5.19999 14.7061 5.5319 15.3607 6.19573C16.0154 6.85956 16.3427 7.65757 16.3427 8.58976C16.3427 9.52194 16.0154 10.3199 15.3607 10.9838C14.7061 11.6476 13.9191 11.9795 12.9998 11.9795ZM5.19983 20.15V18.2899C5.19983 17.8234 5.33373 17.387 5.60153 16.9806C5.86951 16.5744 6.22989 16.2589 6.68266 16.0342C7.73418 15.523 8.78634 15.1394 9.83916 14.8837C10.892 14.6282 11.9455 14.5004 12.9998 14.5004C14.0541 14.5004 15.1077 14.6282 16.1605 14.8837C17.2133 15.1394 18.2655 15.523 19.317 16.0342C19.7698 16.2589 20.1301 16.5744 20.3981 16.9806C20.6659 17.387 20.7998 17.8234 20.7998 18.2899V20.15H5.19983ZM6.31411 19.0201H19.6855V18.2899C19.6855 18.0392 19.6059 17.8038 19.4465 17.5837C19.2874 17.3635 19.067 17.1774 18.7855 17.0252C17.8684 16.5747 16.9229 16.2296 15.9488 15.9899C14.9747 15.7502 13.9917 15.6303 12.9998 15.6303C12.0079 15.6303 11.0249 15.7502 10.0509 15.9899C9.0768 16.2296 8.13124 16.5747 7.21418 17.0252C6.93264 17.1774 6.71229 17.3635 6.55313 17.5837C6.39379 17.8038 6.31411 18.0392 6.31411 18.2899V19.0201ZM12.9998 10.8496C13.6127 10.8496 14.1373 10.6283 14.5738 10.1858C15.0102 9.74322 15.2284 9.21121 15.2284 8.58976C15.2284 7.9683 15.0102 7.43629 14.5738 6.99374C14.1373 6.55119 13.6127 6.32991 12.9998 6.32991C12.387 6.32991 11.8623 6.55119 11.4259 6.99374C10.9895 7.43629 10.7713 7.9683 10.7713 8.58976C10.7713 9.21121 10.9895 9.74322 11.4259 10.1858C11.8623 10.6283 12.387 10.8496 12.9998 10.8496Z" fill="#F9F6F4"/>
</svg>
