<?xml version="1.0" encoding="UTF-8"?>
<svg id="Layer_2" data-name="Layer 2" xmlns="http://www.w3.org/2000/svg" viewBox="0 0 47.89 47.93">
  <defs>
    <style>
      .cls-1 {
        fill: #1f567d;
      }
    </style>
  </defs>
  <g id="Layer_1-2" data-name="Layer 1">
    <path class="cls-1" d="M47.89,22.36v3.18l-.31,2.36c-1.64,10.03-9.67,18.04-19.69,19.7l-2.36.31c-1.04-.05-2.14.06-3.18,0C1.15,46.6-7.9,19.78,8.27,5.8c14.9-12.88,38.48-2.97,39.62,16.56ZM22.98,7.23c-6.17.63-9.09,8.19-5.12,12.93s11.7,3.26,13.59-2.59-2.67-10.93-8.47-10.34ZM19.05,26.88c-3.38.24-6.28,2.18-7.35,5.47-.94,2.91-.34,4.37,2.04,6.05,6.11,4.31,14.33,4.29,20.42-.06,2.19-1.56,2.8-2.63,2.15-5.39-.84-3.58-3.96-5.87-7.56-6.1-2.81-.18-6.89-.17-9.7.03Z"/>
  </g>
</svg>