<?xml version="1.0" encoding="UTF-8"?>
<svg id="Layer_2" data-name="Layer 2" xmlns="http://www.w3.org/2000/svg" viewBox="0 0 47.91 47.88">
  <defs>
    <style>
      .cls-1 {
        fill: #1f567d;
      }
    </style>
  </defs>
  <g id="Layer_1-2" data-name="Layer 1">
    <g>
      <path class="cls-1" d="M21.22,47.88C-.5,45.26-7.96,16.96,10.34,4.3c16.85-11.66,39.41,1.96,37.46,22.2-1.03,10.69-10.28,20.5-21.15,21.38h-5.43ZM21.67,13.01c-4.08.36-7.76,3.78-8.47,7.81-1.43,8.14,6.81,14.19,14.17,10.42.25-.13,1-.71,1.18-.66l4.06,4c1.41.95,2.95-.41,2.2-1.92l-4.13-4.21c-.04-.18.57-.99.69-1.24,3.54-7.08-1.86-14.9-9.7-14.2Z"/>
      <path class="cls-1" d="M22.7,15.91c5.39-.06,8.69,6.05,5.67,10.54s-9.8,3.79-11.84-1.14c-1.83-4.42,1.39-9.35,6.17-9.4Z"/>
    </g>
  </g>
</svg>