<svg width="26" height="26" viewBox="0 0 26 26" fill="none" xmlns="http://www.w3.org/2000/svg">
<circle cx="13" cy="13" r="13" fill="#737A86"/>
<path d="M20.5 21.5L16.174 17.1546C15.7087 17.5388 15.1736 17.8395 14.5686 18.0566C13.9637 18.2738 13.3379 18.3823 12.6913 18.3823C11.1006 18.3823 9.75438 17.8316 8.65263 16.7302C7.55088 15.6288 7 14.2829 7 12.6926C7 11.1024 7.55072 9.75605 8.65216 8.65354C9.75361 7.55118 11.0995 7 12.6899 7C14.2801 7 15.6264 7.55087 16.7289 8.6526C17.8313 9.75434 18.3825 11.1005 18.3825 12.6912C18.3825 13.3558 18.271 13.9906 18.0479 14.5955C17.8247 15.2004 17.527 15.7266 17.1547 16.1739L21.4807 20.5191L20.5 21.5ZM12.6913 16.9866C13.8904 16.9866 14.9061 16.5704 15.7383 15.7381C16.5706 14.906 16.9867 13.8903 16.9867 12.6912C16.9867 11.492 16.5706 10.4764 15.7383 9.64421C14.9061 8.8119 13.8904 8.39575 12.6913 8.39575C11.4921 8.39575 10.4764 8.8119 9.64425 9.64421C8.81193 10.4764 8.39577 11.492 8.39577 12.6912C8.39577 13.8903 8.81193 14.906 9.64425 15.7381C10.4764 16.5704 11.4921 16.9866 12.6913 16.9866Z" fill="#EAEBED"/>
</svg>
