<svg width="49" height="48" viewBox="0 0 49 48" fill="none" xmlns="http://www.w3.org/2000/svg">
<g clip-path="url(#clip0_490_929)">
<path d="M30.403 30.1428C30.4631 29.8422 31.7858 28.8802 32.1065 28.5395C34.1307 26.415 35.3533 23.1883 35.1929 20.2422C35.1529 19.4806 34.4514 17.6167 35.5737 17.4163C36.6961 17.2159 36.7562 19.18 36.7963 19.9416C37.0568 24.0902 35.2531 28.2188 31.9863 30.7641V31.9866C34.1307 32.0267 35.0927 34.3516 33.8101 36.015C35.1529 37.5983 34.0706 39.9833 31.9863 39.9833C31.9662 46.5971 24.4506 50.385 19.0994 46.3165C17.1554 44.8334 15.9729 42.4685 15.9729 39.9833C14.8706 39.8831 14.9307 38.38 16.033 38.3599H31.9261C33.0284 38.2798 33.0284 36.8568 31.9261 36.7566H15.8526C12.7462 36.496 12.9266 32.0067 16.013 31.9666V30.7441C11.1228 26.8359 9.78 19.9816 12.8664 14.4902C13.628 13.1274 14.6101 12.0852 15.7124 11.0029C14.089 11.4839 12.5458 12.2054 11.0426 12.9871C10.4213 13.3077 8.53741 14.871 8.23678 13.5282C8.03637 12.6464 9.19879 12.1654 9.84012 11.7846C17.5562 7.195 27.3967 6.85429 35.5537 10.4818C39.7224 12.3457 44.8731 16.1537 47.5186 19.9015C47.7992 20.3023 48.1199 20.5228 47.9395 21.104C47.8192 21.4848 46.0756 23.4288 45.6948 23.8497C43.4501 26.2547 40.4639 28.5595 37.5579 30.1027C37.0769 30.3633 35.9345 31.0246 35.4936 31.1449C34.5716 31.4054 34.0305 30.4835 34.6318 29.7821C39.0209 27.6576 43.1295 24.7315 46.0556 20.8234C46.0756 20.6029 44.9132 19.3002 44.6727 19.0397C41.3658 15.4121 36.9366 12.5461 32.2869 11.0029C33.1687 11.8246 34.0305 12.7265 34.6919 13.7487C35.0326 14.2697 35.9545 15.6727 34.9124 15.9733C33.9504 16.2539 33.5094 14.871 33.0284 14.2096C29.4209 9.27934 22.5466 8.13696 17.5362 11.6844C12.5257 15.2317 11.243 23.0079 15.4117 27.9382C15.7124 28.2789 17.6163 29.9825 17.6163 30.1428V31.9866H20.823V26.2948C15.9529 23.5691 16.8347 16.2138 22.2259 14.6505C23.2681 14.3499 25.6531 14.2096 26.5149 14.9512C27.3767 15.6927 26.2944 16.1937 25.9737 16.5946C24.8514 18.0977 26.7153 19.9616 28.2184 18.8393C28.5992 18.5587 28.6994 17.9574 29.3407 18.0175C29.9821 18.0777 30.1625 18.8793 30.2627 19.4004C30.8439 22.086 29.6614 25.0121 27.2163 26.2948V31.9866H30.423V30.1428H30.403ZM22.4063 25.5332V31.9866H25.613V25.5332C26.0138 25.0522 26.6351 24.8317 27.1161 24.4309C28.2785 23.4489 28.8798 21.9056 28.8197 20.3825C25.9136 21.9056 22.8873 18.8994 24.4305 15.9933C20.6827 15.7929 18.0973 19.5808 19.7808 22.9879C20.4021 24.2305 21.4243 24.6914 22.4263 25.5332H22.4063ZM32.5675 33.8104C32.4272 33.6702 32.0464 33.5699 31.846 33.5699H16.0531C14.9307 33.6702 14.9508 35.0731 16.0531 35.1733H31.9462C32.6476 35.1933 33.0685 34.3115 32.5675 33.7904V33.8104ZM30.403 39.9833H17.6163C17.6564 42.0676 18.6385 44.0317 20.342 45.1942C24.651 48.1804 30.3228 45.114 30.403 39.9833Z" fill="#53443D"/>
<path d="M6.29316 14.2297C7.01466 14.0292 7.63596 14.7507 7.25516 15.3921C6.99462 15.833 5.49149 16.8952 5.01049 17.3562C4.18878 18.1178 2.6656 19.6008 2.06435 20.5027C1.98418 20.643 1.90402 20.7232 1.9441 20.9036C2.00423 21.104 3.12656 22.3466 3.34702 22.6071C6.13283 25.6535 9.66017 27.9983 13.3479 29.8021C13.9692 30.4434 13.428 31.4054 12.4861 31.1449C12.0451 31.0246 10.9028 30.3633 10.4218 30.1027C7.49566 28.5395 4.44932 26.1745 2.1846 23.7495C1.82385 23.3486 0.140342 21.4647 0.0401335 21.104C4.99776e-05 20.9637 -0.0199918 20.8234 4.99757e-05 20.6631C0.0601752 20.2422 1.92406 18.1378 2.34493 17.6969C3.0464 16.9553 3.90819 16.1136 4.68982 15.4522C4.95036 15.2317 6.03262 14.2898 6.27312 14.2297H6.29316Z" fill="#53443D"/>
<path d="M41.9676 4.9303C42.629 4.85013 43.0699 5.59168 42.7292 6.19293C42.5689 6.49356 40.7651 8.65807 40.5046 8.85848C39.7229 9.45973 38.7609 8.67811 39.3221 7.77623C39.6227 7.29523 41.0056 5.63176 41.4064 5.27101C41.5267 5.15076 41.8073 4.97038 41.9877 4.95034L41.9676 4.9303Z" fill="#53443D"/>
<path d="M44.5732 27.4171C44.8338 27.357 45.0141 27.397 45.2346 27.5173C45.4951 27.6576 47.6396 29.4413 47.84 29.7018C48.4814 30.4634 47.82 31.3653 46.9181 31.0246L44.2325 28.8C43.7916 28.3791 43.9519 27.5574 44.5532 27.4171H44.5732Z" fill="#53443D"/>
<path d="M39.7628 31.4054C39.8831 31.3854 40.0033 31.3653 40.1436 31.3854C40.6647 31.4655 42.1478 33.7303 42.6889 34.1511C43.2702 34.8326 42.4284 35.8346 41.6468 35.3937L39.342 32.7081C38.9411 32.2672 39.2217 31.5457 39.7829 31.4054H39.7628Z" fill="#53443D"/>
<path d="M11.8845 2.12444C12.2252 2.04427 12.4657 2.12444 12.7062 2.3449C12.9467 2.56536 14.1292 4.78999 14.3296 5.23091C14.8106 6.31317 13.7484 6.93446 13.067 6.29312C12.8465 6.07266 11.7643 4.02841 11.5638 3.60753C11.3033 3.08644 11.1029 2.30481 11.8845 2.12444Z" fill="#53443D"/>
<path d="M35.674 2.12441C36.3754 1.96408 36.8765 2.52525 36.656 3.20667C36.0949 3.90813 35.5137 5.75197 34.9525 6.2931C34.3913 6.83422 33.3692 6.37326 33.5696 5.53151C33.6698 5.13068 34.732 3.22671 35.0326 2.78579C35.193 2.52525 35.3533 2.20458 35.694 2.14445L35.674 2.12441Z" fill="#53443D"/>
<path d="M5.69164 5.03045C5.99227 4.97033 6.33298 4.99037 6.57348 5.21083C6.93423 5.8722 8.89832 7.63588 8.91836 8.25717C8.91836 8.89851 8.09665 9.33943 7.57556 8.91855C6.97431 8.05676 5.85197 7.13484 5.33089 6.27304C5.0503 5.81208 5.15051 5.17074 5.69164 5.05049V5.03045Z" fill="#53443D"/>
<path d="M7.79626 31.4055C8.51776 31.185 9.07893 31.8865 8.75827 32.5679C8.63801 32.8485 6.73405 35.0931 6.47351 35.2735C5.69188 35.8146 4.87017 35.0731 5.271 34.2714C5.45138 33.9107 6.73405 32.4476 7.07476 32.0869C7.21505 31.9466 7.65597 31.4455 7.79626 31.4055Z" fill="#53443D"/>
<path d="M29.6818 0.521064C30.223 0.420855 30.724 0.861774 30.6639 1.4029C30.6238 1.82378 29.8622 4.30896 29.6618 4.70979C29.1808 5.63171 27.9783 5.21083 28.1386 4.1887C28.1988 3.74779 28.9002 1.44298 29.1006 1.04215C29.2008 0.841732 29.4614 0.58119 29.7019 0.541106L29.6818 0.521064Z" fill="#53443D"/>
<path d="M17.9978 0.521108C18.3986 0.440941 18.7794 0.681442 18.9397 1.02215C19.1402 1.42299 19.8416 3.72779 19.9017 4.16871C20.022 5.11067 18.9798 5.61171 18.4387 4.83008C18.1982 4.46933 17.8174 3.00628 17.6771 2.50524C17.5168 1.88395 16.9957 0.741567 17.9978 0.521108Z" fill="#53443D"/>
<path d="M47.8597 10.7624L45.2743 12.927C44.4125 13.2877 43.6509 12.5261 44.192 11.7445C44.7332 10.9629 46.2563 10.1011 46.9778 9.41965C47.7996 9.0589 48.481 10.1211 47.8597 10.7624Z" fill="#53443D"/>
<path d="M23.7897 0.020033C24.3509 -0.100218 24.7517 0.200409 24.8118 0.741536C24.8719 1.28266 24.892 3.72776 24.7918 4.2288C24.6114 5.01043 23.3287 5.05051 23.2085 4.04843C23.1283 3.38705 23.1083 1.28266 23.2085 0.661369C23.2486 0.360743 23.469 0.1002 23.7696 0.020033H23.7897Z" fill="#53443D"/>
<path d="M3.78806 27.6176C4.16885 27.9983 4.06864 28.4593 3.72793 28.8401C3.48743 29.0806 1.42313 30.6639 1.16259 30.7842C0.441085 31.0848 -0.180209 30.5036 0.0402503 29.762C0.0803338 29.6217 0.441085 29.3211 0.581378 29.2009C0.861962 28.9403 2.60559 27.5775 2.8461 27.4773C3.18681 27.337 3.52751 27.3771 3.78806 27.6376V27.6176Z" fill="#53443D"/>
<path d="M0.500529 9.62006C0.720988 9.55994 0.981531 9.57998 1.20199 9.68019C1.42245 9.7804 3.34646 11.2635 3.58696 11.504C3.98779 11.9048 4.28842 12.3057 3.78738 12.8067C3.46671 13.1274 3.14604 13.1274 2.76525 12.927C2.48466 12.7867 0.480487 11.2234 0.280069 11.0029C-0.100724 10.5821 -0.0606405 9.7804 0.500529 9.62006Z" fill="#53443D"/>
</g>
<defs>
<clipPath id="clip0_490_929">
<rect width="48.1002" height="48" fill="white"/>
</clipPath>
</defs>
</svg>
